%TF.GenerationSoftware,KiCad,Pcbnew,(5.1.9)-1*%
%TF.CreationDate,2021-09-21T23:47:53-04:00*%
%TF.ProjectId,SOIC-16_3.9mm Adapter,534f4943-2d31-4365-9f33-2e396d6d2041,rev?*%
%TF.SameCoordinates,Original*%
%TF.FileFunction,Soldermask,Top*%
%TF.FilePolarity,Negative*%
%FSLAX46Y46*%
G04 Gerber Fmt 4.6, Leading zero omitted, Abs format (unit mm)*
G04 Created by KiCad (PCBNEW (5.1.9)-1) date 2021-09-21 23:47:53*
%MOMM*%
%LPD*%
G01*
G04 APERTURE LIST*
%ADD10O,1.700000X1.700000*%
%ADD11R,1.700000X1.700000*%
G04 APERTURE END LIST*
%TO.C,U1*%
G36*
G01*
X136120000Y-65555000D02*
X136120000Y-65255000D01*
G75*
G02*
X136270000Y-65105000I150000J0D01*
G01*
X137920000Y-65105000D01*
G75*
G02*
X138070000Y-65255000I0J-150000D01*
G01*
X138070000Y-65555000D01*
G75*
G02*
X137920000Y-65705000I-150000J0D01*
G01*
X136270000Y-65705000D01*
G75*
G02*
X136120000Y-65555000I0J150000D01*
G01*
G37*
G36*
G01*
X136120000Y-66825000D02*
X136120000Y-66525000D01*
G75*
G02*
X136270000Y-66375000I150000J0D01*
G01*
X137920000Y-66375000D01*
G75*
G02*
X138070000Y-66525000I0J-150000D01*
G01*
X138070000Y-66825000D01*
G75*
G02*
X137920000Y-66975000I-150000J0D01*
G01*
X136270000Y-66975000D01*
G75*
G02*
X136120000Y-66825000I0J150000D01*
G01*
G37*
G36*
G01*
X136120000Y-68095000D02*
X136120000Y-67795000D01*
G75*
G02*
X136270000Y-67645000I150000J0D01*
G01*
X137920000Y-67645000D01*
G75*
G02*
X138070000Y-67795000I0J-150000D01*
G01*
X138070000Y-68095000D01*
G75*
G02*
X137920000Y-68245000I-150000J0D01*
G01*
X136270000Y-68245000D01*
G75*
G02*
X136120000Y-68095000I0J150000D01*
G01*
G37*
G36*
G01*
X136120000Y-69365000D02*
X136120000Y-69065000D01*
G75*
G02*
X136270000Y-68915000I150000J0D01*
G01*
X137920000Y-68915000D01*
G75*
G02*
X138070000Y-69065000I0J-150000D01*
G01*
X138070000Y-69365000D01*
G75*
G02*
X137920000Y-69515000I-150000J0D01*
G01*
X136270000Y-69515000D01*
G75*
G02*
X136120000Y-69365000I0J150000D01*
G01*
G37*
G36*
G01*
X136120000Y-70635000D02*
X136120000Y-70335000D01*
G75*
G02*
X136270000Y-70185000I150000J0D01*
G01*
X137920000Y-70185000D01*
G75*
G02*
X138070000Y-70335000I0J-150000D01*
G01*
X138070000Y-70635000D01*
G75*
G02*
X137920000Y-70785000I-150000J0D01*
G01*
X136270000Y-70785000D01*
G75*
G02*
X136120000Y-70635000I0J150000D01*
G01*
G37*
G36*
G01*
X136120000Y-71905000D02*
X136120000Y-71605000D01*
G75*
G02*
X136270000Y-71455000I150000J0D01*
G01*
X137920000Y-71455000D01*
G75*
G02*
X138070000Y-71605000I0J-150000D01*
G01*
X138070000Y-71905000D01*
G75*
G02*
X137920000Y-72055000I-150000J0D01*
G01*
X136270000Y-72055000D01*
G75*
G02*
X136120000Y-71905000I0J150000D01*
G01*
G37*
G36*
G01*
X136120000Y-73175000D02*
X136120000Y-72875000D01*
G75*
G02*
X136270000Y-72725000I150000J0D01*
G01*
X137920000Y-72725000D01*
G75*
G02*
X138070000Y-72875000I0J-150000D01*
G01*
X138070000Y-73175000D01*
G75*
G02*
X137920000Y-73325000I-150000J0D01*
G01*
X136270000Y-73325000D01*
G75*
G02*
X136120000Y-73175000I0J150000D01*
G01*
G37*
G36*
G01*
X136120000Y-74445000D02*
X136120000Y-74145000D01*
G75*
G02*
X136270000Y-73995000I150000J0D01*
G01*
X137920000Y-73995000D01*
G75*
G02*
X138070000Y-74145000I0J-150000D01*
G01*
X138070000Y-74445000D01*
G75*
G02*
X137920000Y-74595000I-150000J0D01*
G01*
X136270000Y-74595000D01*
G75*
G02*
X136120000Y-74445000I0J150000D01*
G01*
G37*
G36*
G01*
X131170000Y-74445000D02*
X131170000Y-74145000D01*
G75*
G02*
X131320000Y-73995000I150000J0D01*
G01*
X132970000Y-73995000D01*
G75*
G02*
X133120000Y-74145000I0J-150000D01*
G01*
X133120000Y-74445000D01*
G75*
G02*
X132970000Y-74595000I-150000J0D01*
G01*
X131320000Y-74595000D01*
G75*
G02*
X131170000Y-74445000I0J150000D01*
G01*
G37*
G36*
G01*
X131170000Y-73175000D02*
X131170000Y-72875000D01*
G75*
G02*
X131320000Y-72725000I150000J0D01*
G01*
X132970000Y-72725000D01*
G75*
G02*
X133120000Y-72875000I0J-150000D01*
G01*
X133120000Y-73175000D01*
G75*
G02*
X132970000Y-73325000I-150000J0D01*
G01*
X131320000Y-73325000D01*
G75*
G02*
X131170000Y-73175000I0J150000D01*
G01*
G37*
G36*
G01*
X131170000Y-71905000D02*
X131170000Y-71605000D01*
G75*
G02*
X131320000Y-71455000I150000J0D01*
G01*
X132970000Y-71455000D01*
G75*
G02*
X133120000Y-71605000I0J-150000D01*
G01*
X133120000Y-71905000D01*
G75*
G02*
X132970000Y-72055000I-150000J0D01*
G01*
X131320000Y-72055000D01*
G75*
G02*
X131170000Y-71905000I0J150000D01*
G01*
G37*
G36*
G01*
X131170000Y-70635000D02*
X131170000Y-70335000D01*
G75*
G02*
X131320000Y-70185000I150000J0D01*
G01*
X132970000Y-70185000D01*
G75*
G02*
X133120000Y-70335000I0J-150000D01*
G01*
X133120000Y-70635000D01*
G75*
G02*
X132970000Y-70785000I-150000J0D01*
G01*
X131320000Y-70785000D01*
G75*
G02*
X131170000Y-70635000I0J150000D01*
G01*
G37*
G36*
G01*
X131170000Y-69365000D02*
X131170000Y-69065000D01*
G75*
G02*
X131320000Y-68915000I150000J0D01*
G01*
X132970000Y-68915000D01*
G75*
G02*
X133120000Y-69065000I0J-150000D01*
G01*
X133120000Y-69365000D01*
G75*
G02*
X132970000Y-69515000I-150000J0D01*
G01*
X131320000Y-69515000D01*
G75*
G02*
X131170000Y-69365000I0J150000D01*
G01*
G37*
G36*
G01*
X131170000Y-68095000D02*
X131170000Y-67795000D01*
G75*
G02*
X131320000Y-67645000I150000J0D01*
G01*
X132970000Y-67645000D01*
G75*
G02*
X133120000Y-67795000I0J-150000D01*
G01*
X133120000Y-68095000D01*
G75*
G02*
X132970000Y-68245000I-150000J0D01*
G01*
X131320000Y-68245000D01*
G75*
G02*
X131170000Y-68095000I0J150000D01*
G01*
G37*
G36*
G01*
X131170000Y-66825000D02*
X131170000Y-66525000D01*
G75*
G02*
X131320000Y-66375000I150000J0D01*
G01*
X132970000Y-66375000D01*
G75*
G02*
X133120000Y-66525000I0J-150000D01*
G01*
X133120000Y-66825000D01*
G75*
G02*
X132970000Y-66975000I-150000J0D01*
G01*
X131320000Y-66975000D01*
G75*
G02*
X131170000Y-66825000I0J150000D01*
G01*
G37*
G36*
G01*
X131170000Y-65555000D02*
X131170000Y-65255000D01*
G75*
G02*
X131320000Y-65105000I150000J0D01*
G01*
X132970000Y-65105000D01*
G75*
G02*
X133120000Y-65255000I0J-150000D01*
G01*
X133120000Y-65555000D01*
G75*
G02*
X132970000Y-65705000I-150000J0D01*
G01*
X131320000Y-65705000D01*
G75*
G02*
X131170000Y-65555000I0J150000D01*
G01*
G37*
%TD*%
D10*
%TO.C,J2*%
X142240000Y-78740000D03*
X142240000Y-76200000D03*
X142240000Y-73660000D03*
X142240000Y-71120000D03*
X142240000Y-68580000D03*
X142240000Y-66040000D03*
X142240000Y-63500000D03*
D11*
X142240000Y-60960000D03*
%TD*%
D10*
%TO.C,J1*%
X127000000Y-78740000D03*
X127000000Y-76200000D03*
X127000000Y-73660000D03*
X127000000Y-71120000D03*
X127000000Y-68580000D03*
X127000000Y-66040000D03*
X127000000Y-63500000D03*
D11*
X127000000Y-60960000D03*
%TD*%
M02*
