%TF.GenerationSoftware,KiCad,Pcbnew,(6.0.0)*%
%TF.CreationDate,2022-01-18T21:24:02-05:00*%
%TF.ProjectId,WSOIC-24_7.5mm PANEL,57534f49-432d-4323-945f-372e356d6d20,rev?*%
%TF.SameCoordinates,Original*%
%TF.FileFunction,Legend,Top*%
%TF.FilePolarity,Positive*%
%FSLAX46Y46*%
G04 Gerber Fmt 4.6, Leading zero omitted, Abs format (unit mm)*
G04 Created by KiCad (PCBNEW (6.0.0)) date 2022-01-18 21:24:02*
%MOMM*%
%LPD*%
G01*
G04 APERTURE LIST*
%ADD10C,0.150000*%
%ADD11C,0.120000*%
G04 APERTURE END LIST*
D10*
X82670099Y-111713627D02*
X82717718Y-111666008D01*
X82812956Y-111618388D01*
X83051051Y-111618388D01*
X83146289Y-111666008D01*
X83193908Y-111713627D01*
X83241527Y-111808865D01*
X83241527Y-111904103D01*
X83193908Y-112046960D01*
X82622480Y-112618388D01*
X83241527Y-112618388D01*
X83860575Y-111618388D02*
X83955813Y-111618388D01*
X84051051Y-111666008D01*
X84098670Y-111713627D01*
X84146289Y-111808865D01*
X84193908Y-111999341D01*
X84193908Y-112237436D01*
X84146289Y-112427912D01*
X84098670Y-112523150D01*
X84051051Y-112570769D01*
X83955813Y-112618388D01*
X83860575Y-112618388D01*
X83765337Y-112570769D01*
X83717718Y-112523150D01*
X83670099Y-112427912D01*
X83622480Y-112237436D01*
X83622480Y-111999341D01*
X83670099Y-111808865D01*
X83717718Y-111713627D01*
X83765337Y-111666008D01*
X83860575Y-111618388D01*
X55842092Y-111713627D02*
X55889711Y-111666008D01*
X55984949Y-111618388D01*
X56223044Y-111618388D01*
X56318282Y-111666008D01*
X56365901Y-111713627D01*
X56413520Y-111808865D01*
X56413520Y-111904103D01*
X56365901Y-112046960D01*
X55794473Y-112618388D01*
X56413520Y-112618388D01*
X57032568Y-111618388D02*
X57127806Y-111618388D01*
X57223044Y-111666008D01*
X57270663Y-111713627D01*
X57318282Y-111808865D01*
X57365901Y-111999341D01*
X57365901Y-112237436D01*
X57318282Y-112427912D01*
X57270663Y-112523150D01*
X57223044Y-112570769D01*
X57127806Y-112618388D01*
X57032568Y-112618388D01*
X56937330Y-112570769D01*
X56889711Y-112523150D01*
X56842092Y-112427912D01*
X56794473Y-112237436D01*
X56794473Y-111999341D01*
X56842092Y-111808865D01*
X56889711Y-111713627D01*
X56937330Y-111666008D01*
X57032568Y-111618388D01*
X82670099Y-78725622D02*
X82717718Y-78678003D01*
X82812956Y-78630383D01*
X83051051Y-78630383D01*
X83146289Y-78678003D01*
X83193908Y-78725622D01*
X83241527Y-78820860D01*
X83241527Y-78916098D01*
X83193908Y-79058955D01*
X82622480Y-79630383D01*
X83241527Y-79630383D01*
X83860575Y-78630383D02*
X83955813Y-78630383D01*
X84051051Y-78678003D01*
X84098670Y-78725622D01*
X84146289Y-78820860D01*
X84193908Y-79011336D01*
X84193908Y-79249431D01*
X84146289Y-79439907D01*
X84098670Y-79535145D01*
X84051051Y-79582764D01*
X83955813Y-79630383D01*
X83860575Y-79630383D01*
X83765337Y-79582764D01*
X83717718Y-79535145D01*
X83670099Y-79439907D01*
X83622480Y-79249431D01*
X83622480Y-79011336D01*
X83670099Y-78820860D01*
X83717718Y-78725622D01*
X83765337Y-78678003D01*
X83860575Y-78630383D01*
X55842092Y-45737617D02*
X55889711Y-45689998D01*
X55984949Y-45642378D01*
X56223044Y-45642378D01*
X56318282Y-45689998D01*
X56365901Y-45737617D01*
X56413520Y-45832855D01*
X56413520Y-45928093D01*
X56365901Y-46070950D01*
X55794473Y-46642378D01*
X56413520Y-46642378D01*
X57032568Y-45642378D02*
X57127806Y-45642378D01*
X57223044Y-45689998D01*
X57270663Y-45737617D01*
X57318282Y-45832855D01*
X57365901Y-46023331D01*
X57365901Y-46261426D01*
X57318282Y-46451902D01*
X57270663Y-46547140D01*
X57223044Y-46594759D01*
X57127806Y-46642378D01*
X57032568Y-46642378D01*
X56937330Y-46594759D01*
X56889711Y-46547140D01*
X56842092Y-46451902D01*
X56794473Y-46261426D01*
X56794473Y-46023331D01*
X56842092Y-45832855D01*
X56889711Y-45737617D01*
X56937330Y-45689998D01*
X57032568Y-45642378D01*
X82670099Y-45737617D02*
X82717718Y-45689998D01*
X82812956Y-45642378D01*
X83051051Y-45642378D01*
X83146289Y-45689998D01*
X83193908Y-45737617D01*
X83241527Y-45832855D01*
X83241527Y-45928093D01*
X83193908Y-46070950D01*
X82622480Y-46642378D01*
X83241527Y-46642378D01*
X83860575Y-45642378D02*
X83955813Y-45642378D01*
X84051051Y-45689998D01*
X84098670Y-45737617D01*
X84146289Y-45832855D01*
X84193908Y-46023331D01*
X84193908Y-46261426D01*
X84146289Y-46451902D01*
X84098670Y-46547140D01*
X84051051Y-46594759D01*
X83955813Y-46642378D01*
X83860575Y-46642378D01*
X83765337Y-46594759D01*
X83717718Y-46547140D01*
X83670099Y-46451902D01*
X83622480Y-46261426D01*
X83622480Y-46023331D01*
X83670099Y-45832855D01*
X83717718Y-45737617D01*
X83765337Y-45689998D01*
X83860575Y-45642378D01*
X55842092Y-78725622D02*
X55889711Y-78678003D01*
X55984949Y-78630383D01*
X56223044Y-78630383D01*
X56318282Y-78678003D01*
X56365901Y-78725622D01*
X56413520Y-78820860D01*
X56413520Y-78916098D01*
X56365901Y-79058955D01*
X55794473Y-79630383D01*
X56413520Y-79630383D01*
X57032568Y-78630383D02*
X57127806Y-78630383D01*
X57223044Y-78678003D01*
X57270663Y-78725622D01*
X57318282Y-78820860D01*
X57365901Y-79011336D01*
X57365901Y-79249431D01*
X57318282Y-79439907D01*
X57270663Y-79535145D01*
X57223044Y-79582764D01*
X57127806Y-79630383D01*
X57032568Y-79630383D01*
X56937330Y-79582764D01*
X56889711Y-79535145D01*
X56842092Y-79439907D01*
X56794473Y-79249431D01*
X56794473Y-79011336D01*
X56842092Y-78820860D01*
X56889711Y-78725622D01*
X56937330Y-78678003D01*
X57032568Y-78630383D01*
X56413520Y-120238388D02*
X55842092Y-120238388D01*
X56127806Y-120238388D02*
X56127806Y-119238388D01*
X56032568Y-119381246D01*
X55937330Y-119476484D01*
X55842092Y-119524103D01*
X56746854Y-119238388D02*
X57413520Y-119238388D01*
X56984949Y-120238388D01*
X83241527Y-120238388D02*
X82670099Y-120238388D01*
X82955813Y-120238388D02*
X82955813Y-119238388D01*
X82860575Y-119381246D01*
X82765337Y-119476484D01*
X82670099Y-119524103D01*
X83574861Y-119238388D02*
X84241527Y-119238388D01*
X83812956Y-120238388D01*
X83241527Y-87250383D02*
X82670099Y-87250383D01*
X82955813Y-87250383D02*
X82955813Y-86250383D01*
X82860575Y-86393241D01*
X82765337Y-86488479D01*
X82670099Y-86536098D01*
X83574861Y-86250383D02*
X84241527Y-86250383D01*
X83812956Y-87250383D01*
X56413520Y-54262378D02*
X55842092Y-54262378D01*
X56127806Y-54262378D02*
X56127806Y-53262378D01*
X56032568Y-53405236D01*
X55937330Y-53500474D01*
X55842092Y-53548093D01*
X56746854Y-53262378D02*
X57413520Y-53262378D01*
X56984949Y-54262378D01*
X83241527Y-54262378D02*
X82670099Y-54262378D01*
X82955813Y-54262378D02*
X82955813Y-53262378D01*
X82860575Y-53405236D01*
X82765337Y-53500474D01*
X82670099Y-53548093D01*
X83574861Y-53262378D02*
X84241527Y-53262378D01*
X83812956Y-54262378D01*
X56413520Y-87250383D02*
X55842092Y-87250383D01*
X56127806Y-87250383D02*
X56127806Y-86250383D01*
X56032568Y-86393241D01*
X55937330Y-86488479D01*
X55842092Y-86536098D01*
X56746854Y-86250383D02*
X57413520Y-86250383D01*
X56984949Y-87250383D01*
X56413520Y-127858388D02*
X55842092Y-127858388D01*
X56127806Y-127858388D02*
X56127806Y-126858388D01*
X56032568Y-127001246D01*
X55937330Y-127096484D01*
X55842092Y-127144103D01*
X57270663Y-127191722D02*
X57270663Y-127858388D01*
X57032568Y-126810769D02*
X56794473Y-127525055D01*
X57413520Y-127525055D01*
X83241527Y-127858388D02*
X82670099Y-127858388D01*
X82955813Y-127858388D02*
X82955813Y-126858388D01*
X82860575Y-127001246D01*
X82765337Y-127096484D01*
X82670099Y-127144103D01*
X84098670Y-127191722D02*
X84098670Y-127858388D01*
X83860575Y-126810769D02*
X83622480Y-127525055D01*
X84241527Y-127525055D01*
X83241527Y-94870383D02*
X82670099Y-94870383D01*
X82955813Y-94870383D02*
X82955813Y-93870383D01*
X82860575Y-94013241D01*
X82765337Y-94108479D01*
X82670099Y-94156098D01*
X84098670Y-94203717D02*
X84098670Y-94870383D01*
X83860575Y-93822764D02*
X83622480Y-94537050D01*
X84241527Y-94537050D01*
X56413520Y-61882378D02*
X55842092Y-61882378D01*
X56127806Y-61882378D02*
X56127806Y-60882378D01*
X56032568Y-61025236D01*
X55937330Y-61120474D01*
X55842092Y-61168093D01*
X57270663Y-61215712D02*
X57270663Y-61882378D01*
X57032568Y-60834759D02*
X56794473Y-61549045D01*
X57413520Y-61549045D01*
X83241527Y-61882378D02*
X82670099Y-61882378D01*
X82955813Y-61882378D02*
X82955813Y-60882378D01*
X82860575Y-61025236D01*
X82765337Y-61120474D01*
X82670099Y-61168093D01*
X84098670Y-61215712D02*
X84098670Y-61882378D01*
X83860575Y-60834759D02*
X83622480Y-61549045D01*
X84241527Y-61549045D01*
X56413520Y-94870383D02*
X55842092Y-94870383D01*
X56127806Y-94870383D02*
X56127806Y-93870383D01*
X56032568Y-94013241D01*
X55937330Y-94108479D01*
X55842092Y-94156098D01*
X57270663Y-94203717D02*
X57270663Y-94870383D01*
X57032568Y-93822764D02*
X56794473Y-94537050D01*
X57413520Y-94537050D01*
X56413520Y-125318388D02*
X55842092Y-125318388D01*
X56127806Y-125318388D02*
X56127806Y-124318388D01*
X56032568Y-124461246D01*
X55937330Y-124556484D01*
X55842092Y-124604103D01*
X57318282Y-124318388D02*
X56842092Y-124318388D01*
X56794473Y-124794579D01*
X56842092Y-124746960D01*
X56937330Y-124699341D01*
X57175425Y-124699341D01*
X57270663Y-124746960D01*
X57318282Y-124794579D01*
X57365901Y-124889817D01*
X57365901Y-125127912D01*
X57318282Y-125223150D01*
X57270663Y-125270769D01*
X57175425Y-125318388D01*
X56937330Y-125318388D01*
X56842092Y-125270769D01*
X56794473Y-125223150D01*
X83241527Y-125318388D02*
X82670099Y-125318388D01*
X82955813Y-125318388D02*
X82955813Y-124318388D01*
X82860575Y-124461246D01*
X82765337Y-124556484D01*
X82670099Y-124604103D01*
X84146289Y-124318388D02*
X83670099Y-124318388D01*
X83622480Y-124794579D01*
X83670099Y-124746960D01*
X83765337Y-124699341D01*
X84003432Y-124699341D01*
X84098670Y-124746960D01*
X84146289Y-124794579D01*
X84193908Y-124889817D01*
X84193908Y-125127912D01*
X84146289Y-125223150D01*
X84098670Y-125270769D01*
X84003432Y-125318388D01*
X83765337Y-125318388D01*
X83670099Y-125270769D01*
X83622480Y-125223150D01*
X83241527Y-92330383D02*
X82670099Y-92330383D01*
X82955813Y-92330383D02*
X82955813Y-91330383D01*
X82860575Y-91473241D01*
X82765337Y-91568479D01*
X82670099Y-91616098D01*
X84146289Y-91330383D02*
X83670099Y-91330383D01*
X83622480Y-91806574D01*
X83670099Y-91758955D01*
X83765337Y-91711336D01*
X84003432Y-91711336D01*
X84098670Y-91758955D01*
X84146289Y-91806574D01*
X84193908Y-91901812D01*
X84193908Y-92139907D01*
X84146289Y-92235145D01*
X84098670Y-92282764D01*
X84003432Y-92330383D01*
X83765337Y-92330383D01*
X83670099Y-92282764D01*
X83622480Y-92235145D01*
X56413520Y-59342378D02*
X55842092Y-59342378D01*
X56127806Y-59342378D02*
X56127806Y-58342378D01*
X56032568Y-58485236D01*
X55937330Y-58580474D01*
X55842092Y-58628093D01*
X57318282Y-58342378D02*
X56842092Y-58342378D01*
X56794473Y-58818569D01*
X56842092Y-58770950D01*
X56937330Y-58723331D01*
X57175425Y-58723331D01*
X57270663Y-58770950D01*
X57318282Y-58818569D01*
X57365901Y-58913807D01*
X57365901Y-59151902D01*
X57318282Y-59247140D01*
X57270663Y-59294759D01*
X57175425Y-59342378D01*
X56937330Y-59342378D01*
X56842092Y-59294759D01*
X56794473Y-59247140D01*
X83241527Y-59342378D02*
X82670099Y-59342378D01*
X82955813Y-59342378D02*
X82955813Y-58342378D01*
X82860575Y-58485236D01*
X82765337Y-58580474D01*
X82670099Y-58628093D01*
X84146289Y-58342378D02*
X83670099Y-58342378D01*
X83622480Y-58818569D01*
X83670099Y-58770950D01*
X83765337Y-58723331D01*
X84003432Y-58723331D01*
X84098670Y-58770950D01*
X84146289Y-58818569D01*
X84193908Y-58913807D01*
X84193908Y-59151902D01*
X84146289Y-59247140D01*
X84098670Y-59294759D01*
X84003432Y-59342378D01*
X83765337Y-59342378D01*
X83670099Y-59294759D01*
X83622480Y-59247140D01*
X56413520Y-92330383D02*
X55842092Y-92330383D01*
X56127806Y-92330383D02*
X56127806Y-91330383D01*
X56032568Y-91473241D01*
X55937330Y-91568479D01*
X55842092Y-91616098D01*
X57318282Y-91330383D02*
X56842092Y-91330383D01*
X56794473Y-91806574D01*
X56842092Y-91758955D01*
X56937330Y-91711336D01*
X57175425Y-91711336D01*
X57270663Y-91758955D01*
X57318282Y-91806574D01*
X57365901Y-91901812D01*
X57365901Y-92139907D01*
X57318282Y-92235145D01*
X57270663Y-92282764D01*
X57175425Y-92330383D01*
X56937330Y-92330383D01*
X56842092Y-92282764D01*
X56794473Y-92235145D01*
X70509718Y-102458388D02*
X69938289Y-102458388D01*
X70224004Y-102458388D02*
X70224004Y-101458388D01*
X70128765Y-101601246D01*
X70033527Y-101696484D01*
X69938289Y-101744103D01*
X43681711Y-102458388D02*
X43110282Y-102458388D01*
X43395997Y-102458388D02*
X43395997Y-101458388D01*
X43300758Y-101601246D01*
X43205520Y-101696484D01*
X43110282Y-101744103D01*
X70509718Y-69470383D02*
X69938289Y-69470383D01*
X70224004Y-69470383D02*
X70224004Y-68470383D01*
X70128765Y-68613241D01*
X70033527Y-68708479D01*
X69938289Y-68756098D01*
X43681711Y-36482378D02*
X43110282Y-36482378D01*
X43395997Y-36482378D02*
X43395997Y-35482378D01*
X43300758Y-35625236D01*
X43205520Y-35720474D01*
X43110282Y-35768093D01*
X70509718Y-36482378D02*
X69938289Y-36482378D01*
X70224004Y-36482378D02*
X70224004Y-35482378D01*
X70128765Y-35625236D01*
X70033527Y-35720474D01*
X69938289Y-35768093D01*
X43681711Y-69470383D02*
X43110282Y-69470383D01*
X43395997Y-69470383D02*
X43395997Y-68470383D01*
X43300758Y-68613241D01*
X43205520Y-68708479D01*
X43110282Y-68756098D01*
X43205520Y-122778388D02*
X43395997Y-122778388D01*
X43491235Y-122730769D01*
X43538854Y-122683150D01*
X43634092Y-122540293D01*
X43681711Y-122349817D01*
X43681711Y-121968865D01*
X43634092Y-121873627D01*
X43586473Y-121826008D01*
X43491235Y-121778388D01*
X43300758Y-121778388D01*
X43205520Y-121826008D01*
X43157901Y-121873627D01*
X43110282Y-121968865D01*
X43110282Y-122206960D01*
X43157901Y-122302198D01*
X43205520Y-122349817D01*
X43300758Y-122397436D01*
X43491235Y-122397436D01*
X43586473Y-122349817D01*
X43634092Y-122302198D01*
X43681711Y-122206960D01*
X70033527Y-122778388D02*
X70224004Y-122778388D01*
X70319242Y-122730769D01*
X70366861Y-122683150D01*
X70462099Y-122540293D01*
X70509718Y-122349817D01*
X70509718Y-121968865D01*
X70462099Y-121873627D01*
X70414480Y-121826008D01*
X70319242Y-121778388D01*
X70128765Y-121778388D01*
X70033527Y-121826008D01*
X69985908Y-121873627D01*
X69938289Y-121968865D01*
X69938289Y-122206960D01*
X69985908Y-122302198D01*
X70033527Y-122349817D01*
X70128765Y-122397436D01*
X70319242Y-122397436D01*
X70414480Y-122349817D01*
X70462099Y-122302198D01*
X70509718Y-122206960D01*
X70033527Y-89790383D02*
X70224004Y-89790383D01*
X70319242Y-89742764D01*
X70366861Y-89695145D01*
X70462099Y-89552288D01*
X70509718Y-89361812D01*
X70509718Y-88980860D01*
X70462099Y-88885622D01*
X70414480Y-88838003D01*
X70319242Y-88790383D01*
X70128765Y-88790383D01*
X70033527Y-88838003D01*
X69985908Y-88885622D01*
X69938289Y-88980860D01*
X69938289Y-89218955D01*
X69985908Y-89314193D01*
X70033527Y-89361812D01*
X70128765Y-89409431D01*
X70319242Y-89409431D01*
X70414480Y-89361812D01*
X70462099Y-89314193D01*
X70509718Y-89218955D01*
X43205520Y-56802378D02*
X43395997Y-56802378D01*
X43491235Y-56754759D01*
X43538854Y-56707140D01*
X43634092Y-56564283D01*
X43681711Y-56373807D01*
X43681711Y-55992855D01*
X43634092Y-55897617D01*
X43586473Y-55849998D01*
X43491235Y-55802378D01*
X43300758Y-55802378D01*
X43205520Y-55849998D01*
X43157901Y-55897617D01*
X43110282Y-55992855D01*
X43110282Y-56230950D01*
X43157901Y-56326188D01*
X43205520Y-56373807D01*
X43300758Y-56421426D01*
X43491235Y-56421426D01*
X43586473Y-56373807D01*
X43634092Y-56326188D01*
X43681711Y-56230950D01*
X70033527Y-56802378D02*
X70224004Y-56802378D01*
X70319242Y-56754759D01*
X70366861Y-56707140D01*
X70462099Y-56564283D01*
X70509718Y-56373807D01*
X70509718Y-55992855D01*
X70462099Y-55897617D01*
X70414480Y-55849998D01*
X70319242Y-55802378D01*
X70128765Y-55802378D01*
X70033527Y-55849998D01*
X69985908Y-55897617D01*
X69938289Y-55992855D01*
X69938289Y-56230950D01*
X69985908Y-56326188D01*
X70033527Y-56373807D01*
X70128765Y-56421426D01*
X70319242Y-56421426D01*
X70414480Y-56373807D01*
X70462099Y-56326188D01*
X70509718Y-56230950D01*
X43205520Y-89790383D02*
X43395997Y-89790383D01*
X43491235Y-89742764D01*
X43538854Y-89695145D01*
X43634092Y-89552288D01*
X43681711Y-89361812D01*
X43681711Y-88980860D01*
X43634092Y-88885622D01*
X43586473Y-88838003D01*
X43491235Y-88790383D01*
X43300758Y-88790383D01*
X43205520Y-88838003D01*
X43157901Y-88885622D01*
X43110282Y-88980860D01*
X43110282Y-89218955D01*
X43157901Y-89314193D01*
X43205520Y-89361812D01*
X43300758Y-89409431D01*
X43491235Y-89409431D01*
X43586473Y-89361812D01*
X43634092Y-89314193D01*
X43681711Y-89218955D01*
X43110282Y-104093627D02*
X43157901Y-104046008D01*
X43253139Y-103998388D01*
X43491235Y-103998388D01*
X43586473Y-104046008D01*
X43634092Y-104093627D01*
X43681711Y-104188865D01*
X43681711Y-104284103D01*
X43634092Y-104426960D01*
X43062663Y-104998388D01*
X43681711Y-104998388D01*
X69938289Y-104093627D02*
X69985908Y-104046008D01*
X70081146Y-103998388D01*
X70319242Y-103998388D01*
X70414480Y-104046008D01*
X70462099Y-104093627D01*
X70509718Y-104188865D01*
X70509718Y-104284103D01*
X70462099Y-104426960D01*
X69890670Y-104998388D01*
X70509718Y-104998388D01*
X69938289Y-71105622D02*
X69985908Y-71058003D01*
X70081146Y-71010383D01*
X70319242Y-71010383D01*
X70414480Y-71058003D01*
X70462099Y-71105622D01*
X70509718Y-71200860D01*
X70509718Y-71296098D01*
X70462099Y-71438955D01*
X69890670Y-72010383D01*
X70509718Y-72010383D01*
X43110282Y-38117617D02*
X43157901Y-38069998D01*
X43253139Y-38022378D01*
X43491235Y-38022378D01*
X43586473Y-38069998D01*
X43634092Y-38117617D01*
X43681711Y-38212855D01*
X43681711Y-38308093D01*
X43634092Y-38450950D01*
X43062663Y-39022378D01*
X43681711Y-39022378D01*
X69938289Y-38117617D02*
X69985908Y-38069998D01*
X70081146Y-38022378D01*
X70319242Y-38022378D01*
X70414480Y-38069998D01*
X70462099Y-38117617D01*
X70509718Y-38212855D01*
X70509718Y-38308093D01*
X70462099Y-38450950D01*
X69890670Y-39022378D01*
X70509718Y-39022378D01*
X43110282Y-71105622D02*
X43157901Y-71058003D01*
X43253139Y-71010383D01*
X43491235Y-71010383D01*
X43586473Y-71058003D01*
X43634092Y-71105622D01*
X43681711Y-71200860D01*
X43681711Y-71296098D01*
X43634092Y-71438955D01*
X43062663Y-72010383D01*
X43681711Y-72010383D01*
X43062663Y-116698388D02*
X43729330Y-116698388D01*
X43300758Y-117698388D01*
X69890670Y-116698388D02*
X70557337Y-116698388D01*
X70128765Y-117698388D01*
X69890670Y-83710383D02*
X70557337Y-83710383D01*
X70128765Y-84710383D01*
X43062663Y-50722378D02*
X43729330Y-50722378D01*
X43300758Y-51722378D01*
X69890670Y-50722378D02*
X70557337Y-50722378D01*
X70128765Y-51722378D01*
X43062663Y-83710383D02*
X43729330Y-83710383D01*
X43300758Y-84710383D01*
X83241527Y-122778388D02*
X82670099Y-122778388D01*
X82955813Y-122778388D02*
X82955813Y-121778388D01*
X82860575Y-121921246D01*
X82765337Y-122016484D01*
X82670099Y-122064103D01*
X84098670Y-121778388D02*
X83908194Y-121778388D01*
X83812956Y-121826008D01*
X83765337Y-121873627D01*
X83670099Y-122016484D01*
X83622480Y-122206960D01*
X83622480Y-122587912D01*
X83670099Y-122683150D01*
X83717718Y-122730769D01*
X83812956Y-122778388D01*
X84003432Y-122778388D01*
X84098670Y-122730769D01*
X84146289Y-122683150D01*
X84193908Y-122587912D01*
X84193908Y-122349817D01*
X84146289Y-122254579D01*
X84098670Y-122206960D01*
X84003432Y-122159341D01*
X83812956Y-122159341D01*
X83717718Y-122206960D01*
X83670099Y-122254579D01*
X83622480Y-122349817D01*
X56413520Y-122778388D02*
X55842092Y-122778388D01*
X56127806Y-122778388D02*
X56127806Y-121778388D01*
X56032568Y-121921246D01*
X55937330Y-122016484D01*
X55842092Y-122064103D01*
X57270663Y-121778388D02*
X57080187Y-121778388D01*
X56984949Y-121826008D01*
X56937330Y-121873627D01*
X56842092Y-122016484D01*
X56794473Y-122206960D01*
X56794473Y-122587912D01*
X56842092Y-122683150D01*
X56889711Y-122730769D01*
X56984949Y-122778388D01*
X57175425Y-122778388D01*
X57270663Y-122730769D01*
X57318282Y-122683150D01*
X57365901Y-122587912D01*
X57365901Y-122349817D01*
X57318282Y-122254579D01*
X57270663Y-122206960D01*
X57175425Y-122159341D01*
X56984949Y-122159341D01*
X56889711Y-122206960D01*
X56842092Y-122254579D01*
X56794473Y-122349817D01*
X83241527Y-89790383D02*
X82670099Y-89790383D01*
X82955813Y-89790383D02*
X82955813Y-88790383D01*
X82860575Y-88933241D01*
X82765337Y-89028479D01*
X82670099Y-89076098D01*
X84098670Y-88790383D02*
X83908194Y-88790383D01*
X83812956Y-88838003D01*
X83765337Y-88885622D01*
X83670099Y-89028479D01*
X83622480Y-89218955D01*
X83622480Y-89599907D01*
X83670099Y-89695145D01*
X83717718Y-89742764D01*
X83812956Y-89790383D01*
X84003432Y-89790383D01*
X84098670Y-89742764D01*
X84146289Y-89695145D01*
X84193908Y-89599907D01*
X84193908Y-89361812D01*
X84146289Y-89266574D01*
X84098670Y-89218955D01*
X84003432Y-89171336D01*
X83812956Y-89171336D01*
X83717718Y-89218955D01*
X83670099Y-89266574D01*
X83622480Y-89361812D01*
X56413520Y-56802378D02*
X55842092Y-56802378D01*
X56127806Y-56802378D02*
X56127806Y-55802378D01*
X56032568Y-55945236D01*
X55937330Y-56040474D01*
X55842092Y-56088093D01*
X57270663Y-55802378D02*
X57080187Y-55802378D01*
X56984949Y-55849998D01*
X56937330Y-55897617D01*
X56842092Y-56040474D01*
X56794473Y-56230950D01*
X56794473Y-56611902D01*
X56842092Y-56707140D01*
X56889711Y-56754759D01*
X56984949Y-56802378D01*
X57175425Y-56802378D01*
X57270663Y-56754759D01*
X57318282Y-56707140D01*
X57365901Y-56611902D01*
X57365901Y-56373807D01*
X57318282Y-56278569D01*
X57270663Y-56230950D01*
X57175425Y-56183331D01*
X56984949Y-56183331D01*
X56889711Y-56230950D01*
X56842092Y-56278569D01*
X56794473Y-56373807D01*
X83241527Y-56802378D02*
X82670099Y-56802378D01*
X82955813Y-56802378D02*
X82955813Y-55802378D01*
X82860575Y-55945236D01*
X82765337Y-56040474D01*
X82670099Y-56088093D01*
X84098670Y-55802378D02*
X83908194Y-55802378D01*
X83812956Y-55849998D01*
X83765337Y-55897617D01*
X83670099Y-56040474D01*
X83622480Y-56230950D01*
X83622480Y-56611902D01*
X83670099Y-56707140D01*
X83717718Y-56754759D01*
X83812956Y-56802378D01*
X84003432Y-56802378D01*
X84098670Y-56754759D01*
X84146289Y-56707140D01*
X84193908Y-56611902D01*
X84193908Y-56373807D01*
X84146289Y-56278569D01*
X84098670Y-56230950D01*
X84003432Y-56183331D01*
X83812956Y-56183331D01*
X83717718Y-56230950D01*
X83670099Y-56278569D01*
X83622480Y-56373807D01*
X56413520Y-89790383D02*
X55842092Y-89790383D01*
X56127806Y-89790383D02*
X56127806Y-88790383D01*
X56032568Y-88933241D01*
X55937330Y-89028479D01*
X55842092Y-89076098D01*
X57270663Y-88790383D02*
X57080187Y-88790383D01*
X56984949Y-88838003D01*
X56937330Y-88885622D01*
X56842092Y-89028479D01*
X56794473Y-89218955D01*
X56794473Y-89599907D01*
X56842092Y-89695145D01*
X56889711Y-89742764D01*
X56984949Y-89790383D01*
X57175425Y-89790383D01*
X57270663Y-89742764D01*
X57318282Y-89695145D01*
X57365901Y-89599907D01*
X57365901Y-89361812D01*
X57318282Y-89266574D01*
X57270663Y-89218955D01*
X57175425Y-89171336D01*
X56984949Y-89171336D01*
X56889711Y-89218955D01*
X56842092Y-89266574D01*
X56794473Y-89361812D01*
X82670099Y-109173627D02*
X82717718Y-109126008D01*
X82812956Y-109078388D01*
X83051051Y-109078388D01*
X83146289Y-109126008D01*
X83193908Y-109173627D01*
X83241527Y-109268865D01*
X83241527Y-109364103D01*
X83193908Y-109506960D01*
X82622480Y-110078388D01*
X83241527Y-110078388D01*
X84193908Y-110078388D02*
X83622480Y-110078388D01*
X83908194Y-110078388D02*
X83908194Y-109078388D01*
X83812956Y-109221246D01*
X83717718Y-109316484D01*
X83622480Y-109364103D01*
X55842092Y-109173627D02*
X55889711Y-109126008D01*
X55984949Y-109078388D01*
X56223044Y-109078388D01*
X56318282Y-109126008D01*
X56365901Y-109173627D01*
X56413520Y-109268865D01*
X56413520Y-109364103D01*
X56365901Y-109506960D01*
X55794473Y-110078388D01*
X56413520Y-110078388D01*
X57365901Y-110078388D02*
X56794473Y-110078388D01*
X57080187Y-110078388D02*
X57080187Y-109078388D01*
X56984949Y-109221246D01*
X56889711Y-109316484D01*
X56794473Y-109364103D01*
X82670099Y-76185622D02*
X82717718Y-76138003D01*
X82812956Y-76090383D01*
X83051051Y-76090383D01*
X83146289Y-76138003D01*
X83193908Y-76185622D01*
X83241527Y-76280860D01*
X83241527Y-76376098D01*
X83193908Y-76518955D01*
X82622480Y-77090383D01*
X83241527Y-77090383D01*
X84193908Y-77090383D02*
X83622480Y-77090383D01*
X83908194Y-77090383D02*
X83908194Y-76090383D01*
X83812956Y-76233241D01*
X83717718Y-76328479D01*
X83622480Y-76376098D01*
X55842092Y-43197617D02*
X55889711Y-43149998D01*
X55984949Y-43102378D01*
X56223044Y-43102378D01*
X56318282Y-43149998D01*
X56365901Y-43197617D01*
X56413520Y-43292855D01*
X56413520Y-43388093D01*
X56365901Y-43530950D01*
X55794473Y-44102378D01*
X56413520Y-44102378D01*
X57365901Y-44102378D02*
X56794473Y-44102378D01*
X57080187Y-44102378D02*
X57080187Y-43102378D01*
X56984949Y-43245236D01*
X56889711Y-43340474D01*
X56794473Y-43388093D01*
X82670099Y-43197617D02*
X82717718Y-43149998D01*
X82812956Y-43102378D01*
X83051051Y-43102378D01*
X83146289Y-43149998D01*
X83193908Y-43197617D01*
X83241527Y-43292855D01*
X83241527Y-43388093D01*
X83193908Y-43530950D01*
X82622480Y-44102378D01*
X83241527Y-44102378D01*
X84193908Y-44102378D02*
X83622480Y-44102378D01*
X83908194Y-44102378D02*
X83908194Y-43102378D01*
X83812956Y-43245236D01*
X83717718Y-43340474D01*
X83622480Y-43388093D01*
X55842092Y-76185622D02*
X55889711Y-76138003D01*
X55984949Y-76090383D01*
X56223044Y-76090383D01*
X56318282Y-76138003D01*
X56365901Y-76185622D01*
X56413520Y-76280860D01*
X56413520Y-76376098D01*
X56365901Y-76518955D01*
X55794473Y-77090383D01*
X56413520Y-77090383D01*
X57365901Y-77090383D02*
X56794473Y-77090383D01*
X57080187Y-77090383D02*
X57080187Y-76090383D01*
X56984949Y-76233241D01*
X56889711Y-76328479D01*
X56794473Y-76376098D01*
X43586473Y-114158388D02*
X43395997Y-114158388D01*
X43300758Y-114206008D01*
X43253139Y-114253627D01*
X43157901Y-114396484D01*
X43110282Y-114586960D01*
X43110282Y-114967912D01*
X43157901Y-115063150D01*
X43205520Y-115110769D01*
X43300758Y-115158388D01*
X43491235Y-115158388D01*
X43586473Y-115110769D01*
X43634092Y-115063150D01*
X43681711Y-114967912D01*
X43681711Y-114729817D01*
X43634092Y-114634579D01*
X43586473Y-114586960D01*
X43491235Y-114539341D01*
X43300758Y-114539341D01*
X43205520Y-114586960D01*
X43157901Y-114634579D01*
X43110282Y-114729817D01*
X70414480Y-114158388D02*
X70224004Y-114158388D01*
X70128765Y-114206008D01*
X70081146Y-114253627D01*
X69985908Y-114396484D01*
X69938289Y-114586960D01*
X69938289Y-114967912D01*
X69985908Y-115063150D01*
X70033527Y-115110769D01*
X70128765Y-115158388D01*
X70319242Y-115158388D01*
X70414480Y-115110769D01*
X70462099Y-115063150D01*
X70509718Y-114967912D01*
X70509718Y-114729817D01*
X70462099Y-114634579D01*
X70414480Y-114586960D01*
X70319242Y-114539341D01*
X70128765Y-114539341D01*
X70033527Y-114586960D01*
X69985908Y-114634579D01*
X69938289Y-114729817D01*
X70414480Y-81170383D02*
X70224004Y-81170383D01*
X70128765Y-81218003D01*
X70081146Y-81265622D01*
X69985908Y-81408479D01*
X69938289Y-81598955D01*
X69938289Y-81979907D01*
X69985908Y-82075145D01*
X70033527Y-82122764D01*
X70128765Y-82170383D01*
X70319242Y-82170383D01*
X70414480Y-82122764D01*
X70462099Y-82075145D01*
X70509718Y-81979907D01*
X70509718Y-81741812D01*
X70462099Y-81646574D01*
X70414480Y-81598955D01*
X70319242Y-81551336D01*
X70128765Y-81551336D01*
X70033527Y-81598955D01*
X69985908Y-81646574D01*
X69938289Y-81741812D01*
X43586473Y-48182378D02*
X43395997Y-48182378D01*
X43300758Y-48229998D01*
X43253139Y-48277617D01*
X43157901Y-48420474D01*
X43110282Y-48610950D01*
X43110282Y-48991902D01*
X43157901Y-49087140D01*
X43205520Y-49134759D01*
X43300758Y-49182378D01*
X43491235Y-49182378D01*
X43586473Y-49134759D01*
X43634092Y-49087140D01*
X43681711Y-48991902D01*
X43681711Y-48753807D01*
X43634092Y-48658569D01*
X43586473Y-48610950D01*
X43491235Y-48563331D01*
X43300758Y-48563331D01*
X43205520Y-48610950D01*
X43157901Y-48658569D01*
X43110282Y-48753807D01*
X70414480Y-48182378D02*
X70224004Y-48182378D01*
X70128765Y-48229998D01*
X70081146Y-48277617D01*
X69985908Y-48420474D01*
X69938289Y-48610950D01*
X69938289Y-48991902D01*
X69985908Y-49087140D01*
X70033527Y-49134759D01*
X70128765Y-49182378D01*
X70319242Y-49182378D01*
X70414480Y-49134759D01*
X70462099Y-49087140D01*
X70509718Y-48991902D01*
X70509718Y-48753807D01*
X70462099Y-48658569D01*
X70414480Y-48610950D01*
X70319242Y-48563331D01*
X70128765Y-48563331D01*
X70033527Y-48610950D01*
X69985908Y-48658569D01*
X69938289Y-48753807D01*
X43586473Y-81170383D02*
X43395997Y-81170383D01*
X43300758Y-81218003D01*
X43253139Y-81265622D01*
X43157901Y-81408479D01*
X43110282Y-81598955D01*
X43110282Y-81979907D01*
X43157901Y-82075145D01*
X43205520Y-82122764D01*
X43300758Y-82170383D01*
X43491235Y-82170383D01*
X43586473Y-82122764D01*
X43634092Y-82075145D01*
X43681711Y-81979907D01*
X43681711Y-81741812D01*
X43634092Y-81646574D01*
X43586473Y-81598955D01*
X43491235Y-81551336D01*
X43300758Y-81551336D01*
X43205520Y-81598955D01*
X43157901Y-81646574D01*
X43110282Y-81741812D01*
X56413520Y-117698388D02*
X55842092Y-117698388D01*
X56127806Y-117698388D02*
X56127806Y-116698388D01*
X56032568Y-116841246D01*
X55937330Y-116936484D01*
X55842092Y-116984103D01*
X56984949Y-117126960D02*
X56889711Y-117079341D01*
X56842092Y-117031722D01*
X56794473Y-116936484D01*
X56794473Y-116888865D01*
X56842092Y-116793627D01*
X56889711Y-116746008D01*
X56984949Y-116698388D01*
X57175425Y-116698388D01*
X57270663Y-116746008D01*
X57318282Y-116793627D01*
X57365901Y-116888865D01*
X57365901Y-116936484D01*
X57318282Y-117031722D01*
X57270663Y-117079341D01*
X57175425Y-117126960D01*
X56984949Y-117126960D01*
X56889711Y-117174579D01*
X56842092Y-117222198D01*
X56794473Y-117317436D01*
X56794473Y-117507912D01*
X56842092Y-117603150D01*
X56889711Y-117650769D01*
X56984949Y-117698388D01*
X57175425Y-117698388D01*
X57270663Y-117650769D01*
X57318282Y-117603150D01*
X57365901Y-117507912D01*
X57365901Y-117317436D01*
X57318282Y-117222198D01*
X57270663Y-117174579D01*
X57175425Y-117126960D01*
X83241527Y-117698388D02*
X82670099Y-117698388D01*
X82955813Y-117698388D02*
X82955813Y-116698388D01*
X82860575Y-116841246D01*
X82765337Y-116936484D01*
X82670099Y-116984103D01*
X83812956Y-117126960D02*
X83717718Y-117079341D01*
X83670099Y-117031722D01*
X83622480Y-116936484D01*
X83622480Y-116888865D01*
X83670099Y-116793627D01*
X83717718Y-116746008D01*
X83812956Y-116698388D01*
X84003432Y-116698388D01*
X84098670Y-116746008D01*
X84146289Y-116793627D01*
X84193908Y-116888865D01*
X84193908Y-116936484D01*
X84146289Y-117031722D01*
X84098670Y-117079341D01*
X84003432Y-117126960D01*
X83812956Y-117126960D01*
X83717718Y-117174579D01*
X83670099Y-117222198D01*
X83622480Y-117317436D01*
X83622480Y-117507912D01*
X83670099Y-117603150D01*
X83717718Y-117650769D01*
X83812956Y-117698388D01*
X84003432Y-117698388D01*
X84098670Y-117650769D01*
X84146289Y-117603150D01*
X84193908Y-117507912D01*
X84193908Y-117317436D01*
X84146289Y-117222198D01*
X84098670Y-117174579D01*
X84003432Y-117126960D01*
X83241527Y-84710383D02*
X82670099Y-84710383D01*
X82955813Y-84710383D02*
X82955813Y-83710383D01*
X82860575Y-83853241D01*
X82765337Y-83948479D01*
X82670099Y-83996098D01*
X83812956Y-84138955D02*
X83717718Y-84091336D01*
X83670099Y-84043717D01*
X83622480Y-83948479D01*
X83622480Y-83900860D01*
X83670099Y-83805622D01*
X83717718Y-83758003D01*
X83812956Y-83710383D01*
X84003432Y-83710383D01*
X84098670Y-83758003D01*
X84146289Y-83805622D01*
X84193908Y-83900860D01*
X84193908Y-83948479D01*
X84146289Y-84043717D01*
X84098670Y-84091336D01*
X84003432Y-84138955D01*
X83812956Y-84138955D01*
X83717718Y-84186574D01*
X83670099Y-84234193D01*
X83622480Y-84329431D01*
X83622480Y-84519907D01*
X83670099Y-84615145D01*
X83717718Y-84662764D01*
X83812956Y-84710383D01*
X84003432Y-84710383D01*
X84098670Y-84662764D01*
X84146289Y-84615145D01*
X84193908Y-84519907D01*
X84193908Y-84329431D01*
X84146289Y-84234193D01*
X84098670Y-84186574D01*
X84003432Y-84138955D01*
X56413520Y-84710383D02*
X55842092Y-84710383D01*
X56127806Y-84710383D02*
X56127806Y-83710383D01*
X56032568Y-83853241D01*
X55937330Y-83948479D01*
X55842092Y-83996098D01*
X56984949Y-84138955D02*
X56889711Y-84091336D01*
X56842092Y-84043717D01*
X56794473Y-83948479D01*
X56794473Y-83900860D01*
X56842092Y-83805622D01*
X56889711Y-83758003D01*
X56984949Y-83710383D01*
X57175425Y-83710383D01*
X57270663Y-83758003D01*
X57318282Y-83805622D01*
X57365901Y-83900860D01*
X57365901Y-83948479D01*
X57318282Y-84043717D01*
X57270663Y-84091336D01*
X57175425Y-84138955D01*
X56984949Y-84138955D01*
X56889711Y-84186574D01*
X56842092Y-84234193D01*
X56794473Y-84329431D01*
X56794473Y-84519907D01*
X56842092Y-84615145D01*
X56889711Y-84662764D01*
X56984949Y-84710383D01*
X57175425Y-84710383D01*
X57270663Y-84662764D01*
X57318282Y-84615145D01*
X57365901Y-84519907D01*
X57365901Y-84329431D01*
X57318282Y-84234193D01*
X57270663Y-84186574D01*
X57175425Y-84138955D01*
X56413520Y-51722378D02*
X55842092Y-51722378D01*
X56127806Y-51722378D02*
X56127806Y-50722378D01*
X56032568Y-50865236D01*
X55937330Y-50960474D01*
X55842092Y-51008093D01*
X56984949Y-51150950D02*
X56889711Y-51103331D01*
X56842092Y-51055712D01*
X56794473Y-50960474D01*
X56794473Y-50912855D01*
X56842092Y-50817617D01*
X56889711Y-50769998D01*
X56984949Y-50722378D01*
X57175425Y-50722378D01*
X57270663Y-50769998D01*
X57318282Y-50817617D01*
X57365901Y-50912855D01*
X57365901Y-50960474D01*
X57318282Y-51055712D01*
X57270663Y-51103331D01*
X57175425Y-51150950D01*
X56984949Y-51150950D01*
X56889711Y-51198569D01*
X56842092Y-51246188D01*
X56794473Y-51341426D01*
X56794473Y-51531902D01*
X56842092Y-51627140D01*
X56889711Y-51674759D01*
X56984949Y-51722378D01*
X57175425Y-51722378D01*
X57270663Y-51674759D01*
X57318282Y-51627140D01*
X57365901Y-51531902D01*
X57365901Y-51341426D01*
X57318282Y-51246188D01*
X57270663Y-51198569D01*
X57175425Y-51150950D01*
X83241527Y-51722378D02*
X82670099Y-51722378D01*
X82955813Y-51722378D02*
X82955813Y-50722378D01*
X82860575Y-50865236D01*
X82765337Y-50960474D01*
X82670099Y-51008093D01*
X83812956Y-51150950D02*
X83717718Y-51103331D01*
X83670099Y-51055712D01*
X83622480Y-50960474D01*
X83622480Y-50912855D01*
X83670099Y-50817617D01*
X83717718Y-50769998D01*
X83812956Y-50722378D01*
X84003432Y-50722378D01*
X84098670Y-50769998D01*
X84146289Y-50817617D01*
X84193908Y-50912855D01*
X84193908Y-50960474D01*
X84146289Y-51055712D01*
X84098670Y-51103331D01*
X84003432Y-51150950D01*
X83812956Y-51150950D01*
X83717718Y-51198569D01*
X83670099Y-51246188D01*
X83622480Y-51341426D01*
X83622480Y-51531902D01*
X83670099Y-51627140D01*
X83717718Y-51674759D01*
X83812956Y-51722378D01*
X84003432Y-51722378D01*
X84098670Y-51674759D01*
X84146289Y-51627140D01*
X84193908Y-51531902D01*
X84193908Y-51341426D01*
X84146289Y-51246188D01*
X84098670Y-51198569D01*
X84003432Y-51150950D01*
X43634092Y-111618388D02*
X43157901Y-111618388D01*
X43110282Y-112094579D01*
X43157901Y-112046960D01*
X43253139Y-111999341D01*
X43491235Y-111999341D01*
X43586473Y-112046960D01*
X43634092Y-112094579D01*
X43681711Y-112189817D01*
X43681711Y-112427912D01*
X43634092Y-112523150D01*
X43586473Y-112570769D01*
X43491235Y-112618388D01*
X43253139Y-112618388D01*
X43157901Y-112570769D01*
X43110282Y-112523150D01*
X70462099Y-111618388D02*
X69985908Y-111618388D01*
X69938289Y-112094579D01*
X69985908Y-112046960D01*
X70081146Y-111999341D01*
X70319242Y-111999341D01*
X70414480Y-112046960D01*
X70462099Y-112094579D01*
X70509718Y-112189817D01*
X70509718Y-112427912D01*
X70462099Y-112523150D01*
X70414480Y-112570769D01*
X70319242Y-112618388D01*
X70081146Y-112618388D01*
X69985908Y-112570769D01*
X69938289Y-112523150D01*
X70462099Y-78630383D02*
X69985908Y-78630383D01*
X69938289Y-79106574D01*
X69985908Y-79058955D01*
X70081146Y-79011336D01*
X70319242Y-79011336D01*
X70414480Y-79058955D01*
X70462099Y-79106574D01*
X70509718Y-79201812D01*
X70509718Y-79439907D01*
X70462099Y-79535145D01*
X70414480Y-79582764D01*
X70319242Y-79630383D01*
X70081146Y-79630383D01*
X69985908Y-79582764D01*
X69938289Y-79535145D01*
X43634092Y-45642378D02*
X43157901Y-45642378D01*
X43110282Y-46118569D01*
X43157901Y-46070950D01*
X43253139Y-46023331D01*
X43491235Y-46023331D01*
X43586473Y-46070950D01*
X43634092Y-46118569D01*
X43681711Y-46213807D01*
X43681711Y-46451902D01*
X43634092Y-46547140D01*
X43586473Y-46594759D01*
X43491235Y-46642378D01*
X43253139Y-46642378D01*
X43157901Y-46594759D01*
X43110282Y-46547140D01*
X43634092Y-78630383D02*
X43157901Y-78630383D01*
X43110282Y-79106574D01*
X43157901Y-79058955D01*
X43253139Y-79011336D01*
X43491235Y-79011336D01*
X43586473Y-79058955D01*
X43634092Y-79106574D01*
X43681711Y-79201812D01*
X43681711Y-79439907D01*
X43634092Y-79535145D01*
X43586473Y-79582764D01*
X43491235Y-79630383D01*
X43253139Y-79630383D01*
X43157901Y-79582764D01*
X43110282Y-79535145D01*
X70462099Y-45642378D02*
X69985908Y-45642378D01*
X69938289Y-46118569D01*
X69985908Y-46070950D01*
X70081146Y-46023331D01*
X70319242Y-46023331D01*
X70414480Y-46070950D01*
X70462099Y-46118569D01*
X70509718Y-46213807D01*
X70509718Y-46451902D01*
X70462099Y-46547140D01*
X70414480Y-46594759D01*
X70319242Y-46642378D01*
X70081146Y-46642378D01*
X69985908Y-46594759D01*
X69938289Y-46547140D01*
X69890670Y-106538388D02*
X70509718Y-106538388D01*
X70176384Y-106919341D01*
X70319242Y-106919341D01*
X70414480Y-106966960D01*
X70462099Y-107014579D01*
X70509718Y-107109817D01*
X70509718Y-107347912D01*
X70462099Y-107443150D01*
X70414480Y-107490769D01*
X70319242Y-107538388D01*
X70033527Y-107538388D01*
X69938289Y-107490769D01*
X69890670Y-107443150D01*
X43062663Y-106538388D02*
X43681711Y-106538388D01*
X43348377Y-106919341D01*
X43491235Y-106919341D01*
X43586473Y-106966960D01*
X43634092Y-107014579D01*
X43681711Y-107109817D01*
X43681711Y-107347912D01*
X43634092Y-107443150D01*
X43586473Y-107490769D01*
X43491235Y-107538388D01*
X43205520Y-107538388D01*
X43110282Y-107490769D01*
X43062663Y-107443150D01*
X69890670Y-73550383D02*
X70509718Y-73550383D01*
X70176384Y-73931336D01*
X70319242Y-73931336D01*
X70414480Y-73978955D01*
X70462099Y-74026574D01*
X70509718Y-74121812D01*
X70509718Y-74359907D01*
X70462099Y-74455145D01*
X70414480Y-74502764D01*
X70319242Y-74550383D01*
X70033527Y-74550383D01*
X69938289Y-74502764D01*
X69890670Y-74455145D01*
X43062663Y-40562378D02*
X43681711Y-40562378D01*
X43348377Y-40943331D01*
X43491235Y-40943331D01*
X43586473Y-40990950D01*
X43634092Y-41038569D01*
X43681711Y-41133807D01*
X43681711Y-41371902D01*
X43634092Y-41467140D01*
X43586473Y-41514759D01*
X43491235Y-41562378D01*
X43205520Y-41562378D01*
X43110282Y-41514759D01*
X43062663Y-41467140D01*
X43062663Y-73550383D02*
X43681711Y-73550383D01*
X43348377Y-73931336D01*
X43491235Y-73931336D01*
X43586473Y-73978955D01*
X43634092Y-74026574D01*
X43681711Y-74121812D01*
X43681711Y-74359907D01*
X43634092Y-74455145D01*
X43586473Y-74502764D01*
X43491235Y-74550383D01*
X43205520Y-74550383D01*
X43110282Y-74502764D01*
X43062663Y-74455145D01*
X69890670Y-40562378D02*
X70509718Y-40562378D01*
X70176384Y-40943331D01*
X70319242Y-40943331D01*
X70414480Y-40990950D01*
X70462099Y-41038569D01*
X70509718Y-41133807D01*
X70509718Y-41371902D01*
X70462099Y-41467140D01*
X70414480Y-41514759D01*
X70319242Y-41562378D01*
X70033527Y-41562378D01*
X69938289Y-41514759D01*
X69890670Y-41467140D01*
X43586473Y-109411722D02*
X43586473Y-110078388D01*
X43348377Y-109030769D02*
X43110282Y-109745055D01*
X43729330Y-109745055D01*
X70414480Y-109411722D02*
X70414480Y-110078388D01*
X70176384Y-109030769D02*
X69938289Y-109745055D01*
X70557337Y-109745055D01*
X70414480Y-76423717D02*
X70414480Y-77090383D01*
X70176384Y-76042764D02*
X69938289Y-76757050D01*
X70557337Y-76757050D01*
X43586473Y-43435712D02*
X43586473Y-44102378D01*
X43348377Y-43054759D02*
X43110282Y-43769045D01*
X43729330Y-43769045D01*
X70414480Y-43435712D02*
X70414480Y-44102378D01*
X70176384Y-43054759D02*
X69938289Y-43769045D01*
X70557337Y-43769045D01*
X43586473Y-76423717D02*
X43586473Y-77090383D01*
X43348377Y-76042764D02*
X43110282Y-76757050D01*
X43729330Y-76757050D01*
X82670099Y-106633627D02*
X82717718Y-106586008D01*
X82812956Y-106538388D01*
X83051051Y-106538388D01*
X83146289Y-106586008D01*
X83193908Y-106633627D01*
X83241527Y-106728865D01*
X83241527Y-106824103D01*
X83193908Y-106966960D01*
X82622480Y-107538388D01*
X83241527Y-107538388D01*
X83622480Y-106633627D02*
X83670099Y-106586008D01*
X83765337Y-106538388D01*
X84003432Y-106538388D01*
X84098670Y-106586008D01*
X84146289Y-106633627D01*
X84193908Y-106728865D01*
X84193908Y-106824103D01*
X84146289Y-106966960D01*
X83574861Y-107538388D01*
X84193908Y-107538388D01*
X82670099Y-73645622D02*
X82717718Y-73598003D01*
X82812956Y-73550383D01*
X83051051Y-73550383D01*
X83146289Y-73598003D01*
X83193908Y-73645622D01*
X83241527Y-73740860D01*
X83241527Y-73836098D01*
X83193908Y-73978955D01*
X82622480Y-74550383D01*
X83241527Y-74550383D01*
X83622480Y-73645622D02*
X83670099Y-73598003D01*
X83765337Y-73550383D01*
X84003432Y-73550383D01*
X84098670Y-73598003D01*
X84146289Y-73645622D01*
X84193908Y-73740860D01*
X84193908Y-73836098D01*
X84146289Y-73978955D01*
X83574861Y-74550383D01*
X84193908Y-74550383D01*
X55842092Y-106633627D02*
X55889711Y-106586008D01*
X55984949Y-106538388D01*
X56223044Y-106538388D01*
X56318282Y-106586008D01*
X56365901Y-106633627D01*
X56413520Y-106728865D01*
X56413520Y-106824103D01*
X56365901Y-106966960D01*
X55794473Y-107538388D01*
X56413520Y-107538388D01*
X56794473Y-106633627D02*
X56842092Y-106586008D01*
X56937330Y-106538388D01*
X57175425Y-106538388D01*
X57270663Y-106586008D01*
X57318282Y-106633627D01*
X57365901Y-106728865D01*
X57365901Y-106824103D01*
X57318282Y-106966960D01*
X56746854Y-107538388D01*
X57365901Y-107538388D01*
X55842092Y-40657617D02*
X55889711Y-40609998D01*
X55984949Y-40562378D01*
X56223044Y-40562378D01*
X56318282Y-40609998D01*
X56365901Y-40657617D01*
X56413520Y-40752855D01*
X56413520Y-40848093D01*
X56365901Y-40990950D01*
X55794473Y-41562378D01*
X56413520Y-41562378D01*
X56794473Y-40657617D02*
X56842092Y-40609998D01*
X56937330Y-40562378D01*
X57175425Y-40562378D01*
X57270663Y-40609998D01*
X57318282Y-40657617D01*
X57365901Y-40752855D01*
X57365901Y-40848093D01*
X57318282Y-40990950D01*
X56746854Y-41562378D01*
X57365901Y-41562378D01*
X55842092Y-73645622D02*
X55889711Y-73598003D01*
X55984949Y-73550383D01*
X56223044Y-73550383D01*
X56318282Y-73598003D01*
X56365901Y-73645622D01*
X56413520Y-73740860D01*
X56413520Y-73836098D01*
X56365901Y-73978955D01*
X55794473Y-74550383D01*
X56413520Y-74550383D01*
X56794473Y-73645622D02*
X56842092Y-73598003D01*
X56937330Y-73550383D01*
X57175425Y-73550383D01*
X57270663Y-73598003D01*
X57318282Y-73645622D01*
X57365901Y-73740860D01*
X57365901Y-73836098D01*
X57318282Y-73978955D01*
X56746854Y-74550383D01*
X57365901Y-74550383D01*
X82670099Y-40657617D02*
X82717718Y-40609998D01*
X82812956Y-40562378D01*
X83051051Y-40562378D01*
X83146289Y-40609998D01*
X83193908Y-40657617D01*
X83241527Y-40752855D01*
X83241527Y-40848093D01*
X83193908Y-40990950D01*
X82622480Y-41562378D01*
X83241527Y-41562378D01*
X83622480Y-40657617D02*
X83670099Y-40609998D01*
X83765337Y-40562378D01*
X84003432Y-40562378D01*
X84098670Y-40609998D01*
X84146289Y-40657617D01*
X84193908Y-40752855D01*
X84193908Y-40848093D01*
X84146289Y-40990950D01*
X83574861Y-41562378D01*
X84193908Y-41562378D01*
X82670099Y-104093627D02*
X82717718Y-104046008D01*
X82812956Y-103998388D01*
X83051051Y-103998388D01*
X83146289Y-104046008D01*
X83193908Y-104093627D01*
X83241527Y-104188865D01*
X83241527Y-104284103D01*
X83193908Y-104426960D01*
X82622480Y-104998388D01*
X83241527Y-104998388D01*
X83574861Y-103998388D02*
X84193908Y-103998388D01*
X83860575Y-104379341D01*
X84003432Y-104379341D01*
X84098670Y-104426960D01*
X84146289Y-104474579D01*
X84193908Y-104569817D01*
X84193908Y-104807912D01*
X84146289Y-104903150D01*
X84098670Y-104950769D01*
X84003432Y-104998388D01*
X83717718Y-104998388D01*
X83622480Y-104950769D01*
X83574861Y-104903150D01*
X55842092Y-104093627D02*
X55889711Y-104046008D01*
X55984949Y-103998388D01*
X56223044Y-103998388D01*
X56318282Y-104046008D01*
X56365901Y-104093627D01*
X56413520Y-104188865D01*
X56413520Y-104284103D01*
X56365901Y-104426960D01*
X55794473Y-104998388D01*
X56413520Y-104998388D01*
X56746854Y-103998388D02*
X57365901Y-103998388D01*
X57032568Y-104379341D01*
X57175425Y-104379341D01*
X57270663Y-104426960D01*
X57318282Y-104474579D01*
X57365901Y-104569817D01*
X57365901Y-104807912D01*
X57318282Y-104903150D01*
X57270663Y-104950769D01*
X57175425Y-104998388D01*
X56889711Y-104998388D01*
X56794473Y-104950769D01*
X56746854Y-104903150D01*
X82670099Y-71105622D02*
X82717718Y-71058003D01*
X82812956Y-71010383D01*
X83051051Y-71010383D01*
X83146289Y-71058003D01*
X83193908Y-71105622D01*
X83241527Y-71200860D01*
X83241527Y-71296098D01*
X83193908Y-71438955D01*
X82622480Y-72010383D01*
X83241527Y-72010383D01*
X83574861Y-71010383D02*
X84193908Y-71010383D01*
X83860575Y-71391336D01*
X84003432Y-71391336D01*
X84098670Y-71438955D01*
X84146289Y-71486574D01*
X84193908Y-71581812D01*
X84193908Y-71819907D01*
X84146289Y-71915145D01*
X84098670Y-71962764D01*
X84003432Y-72010383D01*
X83717718Y-72010383D01*
X83622480Y-71962764D01*
X83574861Y-71915145D01*
X55842092Y-38117617D02*
X55889711Y-38069998D01*
X55984949Y-38022378D01*
X56223044Y-38022378D01*
X56318282Y-38069998D01*
X56365901Y-38117617D01*
X56413520Y-38212855D01*
X56413520Y-38308093D01*
X56365901Y-38450950D01*
X55794473Y-39022378D01*
X56413520Y-39022378D01*
X56746854Y-38022378D02*
X57365901Y-38022378D01*
X57032568Y-38403331D01*
X57175425Y-38403331D01*
X57270663Y-38450950D01*
X57318282Y-38498569D01*
X57365901Y-38593807D01*
X57365901Y-38831902D01*
X57318282Y-38927140D01*
X57270663Y-38974759D01*
X57175425Y-39022378D01*
X56889711Y-39022378D01*
X56794473Y-38974759D01*
X56746854Y-38927140D01*
X82670099Y-38117617D02*
X82717718Y-38069998D01*
X82812956Y-38022378D01*
X83051051Y-38022378D01*
X83146289Y-38069998D01*
X83193908Y-38117617D01*
X83241527Y-38212855D01*
X83241527Y-38308093D01*
X83193908Y-38450950D01*
X82622480Y-39022378D01*
X83241527Y-39022378D01*
X83574861Y-38022378D02*
X84193908Y-38022378D01*
X83860575Y-38403331D01*
X84003432Y-38403331D01*
X84098670Y-38450950D01*
X84146289Y-38498569D01*
X84193908Y-38593807D01*
X84193908Y-38831902D01*
X84146289Y-38927140D01*
X84098670Y-38974759D01*
X84003432Y-39022378D01*
X83717718Y-39022378D01*
X83622480Y-38974759D01*
X83574861Y-38927140D01*
X55842092Y-71105622D02*
X55889711Y-71058003D01*
X55984949Y-71010383D01*
X56223044Y-71010383D01*
X56318282Y-71058003D01*
X56365901Y-71105622D01*
X56413520Y-71200860D01*
X56413520Y-71296098D01*
X56365901Y-71438955D01*
X55794473Y-72010383D01*
X56413520Y-72010383D01*
X56746854Y-71010383D02*
X57365901Y-71010383D01*
X57032568Y-71391336D01*
X57175425Y-71391336D01*
X57270663Y-71438955D01*
X57318282Y-71486574D01*
X57365901Y-71581812D01*
X57365901Y-71819907D01*
X57318282Y-71915145D01*
X57270663Y-71962764D01*
X57175425Y-72010383D01*
X56889711Y-72010383D01*
X56794473Y-71962764D01*
X56746854Y-71915145D01*
X70033527Y-127858388D02*
X69462099Y-127858388D01*
X69747813Y-127858388D02*
X69747813Y-126858388D01*
X69652575Y-127001246D01*
X69557337Y-127096484D01*
X69462099Y-127144103D01*
X70985908Y-127858388D02*
X70414480Y-127858388D01*
X70700194Y-127858388D02*
X70700194Y-126858388D01*
X70604956Y-127001246D01*
X70509718Y-127096484D01*
X70414480Y-127144103D01*
X43205520Y-127858388D02*
X42634092Y-127858388D01*
X42919806Y-127858388D02*
X42919806Y-126858388D01*
X42824568Y-127001246D01*
X42729330Y-127096484D01*
X42634092Y-127144103D01*
X44157901Y-127858388D02*
X43586473Y-127858388D01*
X43872187Y-127858388D02*
X43872187Y-126858388D01*
X43776949Y-127001246D01*
X43681711Y-127096484D01*
X43586473Y-127144103D01*
X70033527Y-94870383D02*
X69462099Y-94870383D01*
X69747813Y-94870383D02*
X69747813Y-93870383D01*
X69652575Y-94013241D01*
X69557337Y-94108479D01*
X69462099Y-94156098D01*
X70985908Y-94870383D02*
X70414480Y-94870383D01*
X70700194Y-94870383D02*
X70700194Y-93870383D01*
X70604956Y-94013241D01*
X70509718Y-94108479D01*
X70414480Y-94156098D01*
X43205520Y-61882378D02*
X42634092Y-61882378D01*
X42919806Y-61882378D02*
X42919806Y-60882378D01*
X42824568Y-61025236D01*
X42729330Y-61120474D01*
X42634092Y-61168093D01*
X44157901Y-61882378D02*
X43586473Y-61882378D01*
X43872187Y-61882378D02*
X43872187Y-60882378D01*
X43776949Y-61025236D01*
X43681711Y-61120474D01*
X43586473Y-61168093D01*
X43205520Y-94870383D02*
X42634092Y-94870383D01*
X42919806Y-94870383D02*
X42919806Y-93870383D01*
X42824568Y-94013241D01*
X42729330Y-94108479D01*
X42634092Y-94156098D01*
X44157901Y-94870383D02*
X43586473Y-94870383D01*
X43872187Y-94870383D02*
X43872187Y-93870383D01*
X43776949Y-94013241D01*
X43681711Y-94108479D01*
X43586473Y-94156098D01*
X70033527Y-61882378D02*
X69462099Y-61882378D01*
X69747813Y-61882378D02*
X69747813Y-60882378D01*
X69652575Y-61025236D01*
X69557337Y-61120474D01*
X69462099Y-61168093D01*
X70985908Y-61882378D02*
X70414480Y-61882378D01*
X70700194Y-61882378D02*
X70700194Y-60882378D01*
X70604956Y-61025236D01*
X70509718Y-61120474D01*
X70414480Y-61168093D01*
X70128765Y-119666960D02*
X70033527Y-119619341D01*
X69985908Y-119571722D01*
X69938289Y-119476484D01*
X69938289Y-119428865D01*
X69985908Y-119333627D01*
X70033527Y-119286008D01*
X70128765Y-119238388D01*
X70319242Y-119238388D01*
X70414480Y-119286008D01*
X70462099Y-119333627D01*
X70509718Y-119428865D01*
X70509718Y-119476484D01*
X70462099Y-119571722D01*
X70414480Y-119619341D01*
X70319242Y-119666960D01*
X70128765Y-119666960D01*
X70033527Y-119714579D01*
X69985908Y-119762198D01*
X69938289Y-119857436D01*
X69938289Y-120047912D01*
X69985908Y-120143150D01*
X70033527Y-120190769D01*
X70128765Y-120238388D01*
X70319242Y-120238388D01*
X70414480Y-120190769D01*
X70462099Y-120143150D01*
X70509718Y-120047912D01*
X70509718Y-119857436D01*
X70462099Y-119762198D01*
X70414480Y-119714579D01*
X70319242Y-119666960D01*
X70128765Y-86678955D02*
X70033527Y-86631336D01*
X69985908Y-86583717D01*
X69938289Y-86488479D01*
X69938289Y-86440860D01*
X69985908Y-86345622D01*
X70033527Y-86298003D01*
X70128765Y-86250383D01*
X70319242Y-86250383D01*
X70414480Y-86298003D01*
X70462099Y-86345622D01*
X70509718Y-86440860D01*
X70509718Y-86488479D01*
X70462099Y-86583717D01*
X70414480Y-86631336D01*
X70319242Y-86678955D01*
X70128765Y-86678955D01*
X70033527Y-86726574D01*
X69985908Y-86774193D01*
X69938289Y-86869431D01*
X69938289Y-87059907D01*
X69985908Y-87155145D01*
X70033527Y-87202764D01*
X70128765Y-87250383D01*
X70319242Y-87250383D01*
X70414480Y-87202764D01*
X70462099Y-87155145D01*
X70509718Y-87059907D01*
X70509718Y-86869431D01*
X70462099Y-86774193D01*
X70414480Y-86726574D01*
X70319242Y-86678955D01*
X43300758Y-119666960D02*
X43205520Y-119619341D01*
X43157901Y-119571722D01*
X43110282Y-119476484D01*
X43110282Y-119428865D01*
X43157901Y-119333627D01*
X43205520Y-119286008D01*
X43300758Y-119238388D01*
X43491235Y-119238388D01*
X43586473Y-119286008D01*
X43634092Y-119333627D01*
X43681711Y-119428865D01*
X43681711Y-119476484D01*
X43634092Y-119571722D01*
X43586473Y-119619341D01*
X43491235Y-119666960D01*
X43300758Y-119666960D01*
X43205520Y-119714579D01*
X43157901Y-119762198D01*
X43110282Y-119857436D01*
X43110282Y-120047912D01*
X43157901Y-120143150D01*
X43205520Y-120190769D01*
X43300758Y-120238388D01*
X43491235Y-120238388D01*
X43586473Y-120190769D01*
X43634092Y-120143150D01*
X43681711Y-120047912D01*
X43681711Y-119857436D01*
X43634092Y-119762198D01*
X43586473Y-119714579D01*
X43491235Y-119666960D01*
X43300758Y-53690950D02*
X43205520Y-53643331D01*
X43157901Y-53595712D01*
X43110282Y-53500474D01*
X43110282Y-53452855D01*
X43157901Y-53357617D01*
X43205520Y-53309998D01*
X43300758Y-53262378D01*
X43491235Y-53262378D01*
X43586473Y-53309998D01*
X43634092Y-53357617D01*
X43681711Y-53452855D01*
X43681711Y-53500474D01*
X43634092Y-53595712D01*
X43586473Y-53643331D01*
X43491235Y-53690950D01*
X43300758Y-53690950D01*
X43205520Y-53738569D01*
X43157901Y-53786188D01*
X43110282Y-53881426D01*
X43110282Y-54071902D01*
X43157901Y-54167140D01*
X43205520Y-54214759D01*
X43300758Y-54262378D01*
X43491235Y-54262378D01*
X43586473Y-54214759D01*
X43634092Y-54167140D01*
X43681711Y-54071902D01*
X43681711Y-53881426D01*
X43634092Y-53786188D01*
X43586473Y-53738569D01*
X43491235Y-53690950D01*
X43300758Y-86678955D02*
X43205520Y-86631336D01*
X43157901Y-86583717D01*
X43110282Y-86488479D01*
X43110282Y-86440860D01*
X43157901Y-86345622D01*
X43205520Y-86298003D01*
X43300758Y-86250383D01*
X43491235Y-86250383D01*
X43586473Y-86298003D01*
X43634092Y-86345622D01*
X43681711Y-86440860D01*
X43681711Y-86488479D01*
X43634092Y-86583717D01*
X43586473Y-86631336D01*
X43491235Y-86678955D01*
X43300758Y-86678955D01*
X43205520Y-86726574D01*
X43157901Y-86774193D01*
X43110282Y-86869431D01*
X43110282Y-87059907D01*
X43157901Y-87155145D01*
X43205520Y-87202764D01*
X43300758Y-87250383D01*
X43491235Y-87250383D01*
X43586473Y-87202764D01*
X43634092Y-87155145D01*
X43681711Y-87059907D01*
X43681711Y-86869431D01*
X43634092Y-86774193D01*
X43586473Y-86726574D01*
X43491235Y-86678955D01*
X70128765Y-53690950D02*
X70033527Y-53643331D01*
X69985908Y-53595712D01*
X69938289Y-53500474D01*
X69938289Y-53452855D01*
X69985908Y-53357617D01*
X70033527Y-53309998D01*
X70128765Y-53262378D01*
X70319242Y-53262378D01*
X70414480Y-53309998D01*
X70462099Y-53357617D01*
X70509718Y-53452855D01*
X70509718Y-53500474D01*
X70462099Y-53595712D01*
X70414480Y-53643331D01*
X70319242Y-53690950D01*
X70128765Y-53690950D01*
X70033527Y-53738569D01*
X69985908Y-53786188D01*
X69938289Y-53881426D01*
X69938289Y-54071902D01*
X69985908Y-54167140D01*
X70033527Y-54214759D01*
X70128765Y-54262378D01*
X70319242Y-54262378D01*
X70414480Y-54214759D01*
X70462099Y-54167140D01*
X70509718Y-54071902D01*
X70509718Y-53881426D01*
X70462099Y-53786188D01*
X70414480Y-53738569D01*
X70319242Y-53690950D01*
X83241527Y-130398388D02*
X82670099Y-130398388D01*
X82955813Y-130398388D02*
X82955813Y-129398388D01*
X82860575Y-129541246D01*
X82765337Y-129636484D01*
X82670099Y-129684103D01*
X83574861Y-129398388D02*
X84193908Y-129398388D01*
X83860575Y-129779341D01*
X84003432Y-129779341D01*
X84098670Y-129826960D01*
X84146289Y-129874579D01*
X84193908Y-129969817D01*
X84193908Y-130207912D01*
X84146289Y-130303150D01*
X84098670Y-130350769D01*
X84003432Y-130398388D01*
X83717718Y-130398388D01*
X83622480Y-130350769D01*
X83574861Y-130303150D01*
X56413520Y-130398388D02*
X55842092Y-130398388D01*
X56127806Y-130398388D02*
X56127806Y-129398388D01*
X56032568Y-129541246D01*
X55937330Y-129636484D01*
X55842092Y-129684103D01*
X56746854Y-129398388D02*
X57365901Y-129398388D01*
X57032568Y-129779341D01*
X57175425Y-129779341D01*
X57270663Y-129826960D01*
X57318282Y-129874579D01*
X57365901Y-129969817D01*
X57365901Y-130207912D01*
X57318282Y-130303150D01*
X57270663Y-130350769D01*
X57175425Y-130398388D01*
X56889711Y-130398388D01*
X56794473Y-130350769D01*
X56746854Y-130303150D01*
X83241527Y-97410383D02*
X82670099Y-97410383D01*
X82955813Y-97410383D02*
X82955813Y-96410383D01*
X82860575Y-96553241D01*
X82765337Y-96648479D01*
X82670099Y-96696098D01*
X83574861Y-96410383D02*
X84193908Y-96410383D01*
X83860575Y-96791336D01*
X84003432Y-96791336D01*
X84098670Y-96838955D01*
X84146289Y-96886574D01*
X84193908Y-96981812D01*
X84193908Y-97219907D01*
X84146289Y-97315145D01*
X84098670Y-97362764D01*
X84003432Y-97410383D01*
X83717718Y-97410383D01*
X83622480Y-97362764D01*
X83574861Y-97315145D01*
X56413520Y-64422378D02*
X55842092Y-64422378D01*
X56127806Y-64422378D02*
X56127806Y-63422378D01*
X56032568Y-63565236D01*
X55937330Y-63660474D01*
X55842092Y-63708093D01*
X56746854Y-63422378D02*
X57365901Y-63422378D01*
X57032568Y-63803331D01*
X57175425Y-63803331D01*
X57270663Y-63850950D01*
X57318282Y-63898569D01*
X57365901Y-63993807D01*
X57365901Y-64231902D01*
X57318282Y-64327140D01*
X57270663Y-64374759D01*
X57175425Y-64422378D01*
X56889711Y-64422378D01*
X56794473Y-64374759D01*
X56746854Y-64327140D01*
X56413520Y-97410383D02*
X55842092Y-97410383D01*
X56127806Y-97410383D02*
X56127806Y-96410383D01*
X56032568Y-96553241D01*
X55937330Y-96648479D01*
X55842092Y-96696098D01*
X56746854Y-96410383D02*
X57365901Y-96410383D01*
X57032568Y-96791336D01*
X57175425Y-96791336D01*
X57270663Y-96838955D01*
X57318282Y-96886574D01*
X57365901Y-96981812D01*
X57365901Y-97219907D01*
X57318282Y-97315145D01*
X57270663Y-97362764D01*
X57175425Y-97410383D01*
X56889711Y-97410383D01*
X56794473Y-97362764D01*
X56746854Y-97315145D01*
X83241527Y-64422378D02*
X82670099Y-64422378D01*
X82955813Y-64422378D02*
X82955813Y-63422378D01*
X82860575Y-63565236D01*
X82765337Y-63660474D01*
X82670099Y-63708093D01*
X83574861Y-63422378D02*
X84193908Y-63422378D01*
X83860575Y-63803331D01*
X84003432Y-63803331D01*
X84098670Y-63850950D01*
X84146289Y-63898569D01*
X84193908Y-63993807D01*
X84193908Y-64231902D01*
X84146289Y-64327140D01*
X84098670Y-64374759D01*
X84003432Y-64422378D01*
X83717718Y-64422378D01*
X83622480Y-64374759D01*
X83574861Y-64327140D01*
X70033527Y-125318388D02*
X69462099Y-125318388D01*
X69747813Y-125318388D02*
X69747813Y-124318388D01*
X69652575Y-124461246D01*
X69557337Y-124556484D01*
X69462099Y-124604103D01*
X70652575Y-124318388D02*
X70747813Y-124318388D01*
X70843051Y-124366008D01*
X70890670Y-124413627D01*
X70938289Y-124508865D01*
X70985908Y-124699341D01*
X70985908Y-124937436D01*
X70938289Y-125127912D01*
X70890670Y-125223150D01*
X70843051Y-125270769D01*
X70747813Y-125318388D01*
X70652575Y-125318388D01*
X70557337Y-125270769D01*
X70509718Y-125223150D01*
X70462099Y-125127912D01*
X70414480Y-124937436D01*
X70414480Y-124699341D01*
X70462099Y-124508865D01*
X70509718Y-124413627D01*
X70557337Y-124366008D01*
X70652575Y-124318388D01*
X70033527Y-92330383D02*
X69462099Y-92330383D01*
X69747813Y-92330383D02*
X69747813Y-91330383D01*
X69652575Y-91473241D01*
X69557337Y-91568479D01*
X69462099Y-91616098D01*
X70652575Y-91330383D02*
X70747813Y-91330383D01*
X70843051Y-91378003D01*
X70890670Y-91425622D01*
X70938289Y-91520860D01*
X70985908Y-91711336D01*
X70985908Y-91949431D01*
X70938289Y-92139907D01*
X70890670Y-92235145D01*
X70843051Y-92282764D01*
X70747813Y-92330383D01*
X70652575Y-92330383D01*
X70557337Y-92282764D01*
X70509718Y-92235145D01*
X70462099Y-92139907D01*
X70414480Y-91949431D01*
X70414480Y-91711336D01*
X70462099Y-91520860D01*
X70509718Y-91425622D01*
X70557337Y-91378003D01*
X70652575Y-91330383D01*
X43205520Y-125318388D02*
X42634092Y-125318388D01*
X42919806Y-125318388D02*
X42919806Y-124318388D01*
X42824568Y-124461246D01*
X42729330Y-124556484D01*
X42634092Y-124604103D01*
X43824568Y-124318388D02*
X43919806Y-124318388D01*
X44015044Y-124366008D01*
X44062663Y-124413627D01*
X44110282Y-124508865D01*
X44157901Y-124699341D01*
X44157901Y-124937436D01*
X44110282Y-125127912D01*
X44062663Y-125223150D01*
X44015044Y-125270769D01*
X43919806Y-125318388D01*
X43824568Y-125318388D01*
X43729330Y-125270769D01*
X43681711Y-125223150D01*
X43634092Y-125127912D01*
X43586473Y-124937436D01*
X43586473Y-124699341D01*
X43634092Y-124508865D01*
X43681711Y-124413627D01*
X43729330Y-124366008D01*
X43824568Y-124318388D01*
X43205520Y-59342378D02*
X42634092Y-59342378D01*
X42919806Y-59342378D02*
X42919806Y-58342378D01*
X42824568Y-58485236D01*
X42729330Y-58580474D01*
X42634092Y-58628093D01*
X43824568Y-58342378D02*
X43919806Y-58342378D01*
X44015044Y-58389998D01*
X44062663Y-58437617D01*
X44110282Y-58532855D01*
X44157901Y-58723331D01*
X44157901Y-58961426D01*
X44110282Y-59151902D01*
X44062663Y-59247140D01*
X44015044Y-59294759D01*
X43919806Y-59342378D01*
X43824568Y-59342378D01*
X43729330Y-59294759D01*
X43681711Y-59247140D01*
X43634092Y-59151902D01*
X43586473Y-58961426D01*
X43586473Y-58723331D01*
X43634092Y-58532855D01*
X43681711Y-58437617D01*
X43729330Y-58389998D01*
X43824568Y-58342378D01*
X43205520Y-92330383D02*
X42634092Y-92330383D01*
X42919806Y-92330383D02*
X42919806Y-91330383D01*
X42824568Y-91473241D01*
X42729330Y-91568479D01*
X42634092Y-91616098D01*
X43824568Y-91330383D02*
X43919806Y-91330383D01*
X44015044Y-91378003D01*
X44062663Y-91425622D01*
X44110282Y-91520860D01*
X44157901Y-91711336D01*
X44157901Y-91949431D01*
X44110282Y-92139907D01*
X44062663Y-92235145D01*
X44015044Y-92282764D01*
X43919806Y-92330383D01*
X43824568Y-92330383D01*
X43729330Y-92282764D01*
X43681711Y-92235145D01*
X43634092Y-92139907D01*
X43586473Y-91949431D01*
X43586473Y-91711336D01*
X43634092Y-91520860D01*
X43681711Y-91425622D01*
X43729330Y-91378003D01*
X43824568Y-91330383D01*
X70033527Y-59342378D02*
X69462099Y-59342378D01*
X69747813Y-59342378D02*
X69747813Y-58342378D01*
X69652575Y-58485236D01*
X69557337Y-58580474D01*
X69462099Y-58628093D01*
X70652575Y-58342378D02*
X70747813Y-58342378D01*
X70843051Y-58389998D01*
X70890670Y-58437617D01*
X70938289Y-58532855D01*
X70985908Y-58723331D01*
X70985908Y-58961426D01*
X70938289Y-59151902D01*
X70890670Y-59247140D01*
X70843051Y-59294759D01*
X70747813Y-59342378D01*
X70652575Y-59342378D01*
X70557337Y-59294759D01*
X70509718Y-59247140D01*
X70462099Y-59151902D01*
X70414480Y-58961426D01*
X70414480Y-58723331D01*
X70462099Y-58532855D01*
X70509718Y-58437617D01*
X70557337Y-58389998D01*
X70652575Y-58342378D01*
X83241527Y-115158388D02*
X82670099Y-115158388D01*
X82955813Y-115158388D02*
X82955813Y-114158388D01*
X82860575Y-114301246D01*
X82765337Y-114396484D01*
X82670099Y-114444103D01*
X83717718Y-115158388D02*
X83908194Y-115158388D01*
X84003432Y-115110769D01*
X84051051Y-115063150D01*
X84146289Y-114920293D01*
X84193908Y-114729817D01*
X84193908Y-114348865D01*
X84146289Y-114253627D01*
X84098670Y-114206008D01*
X84003432Y-114158388D01*
X83812956Y-114158388D01*
X83717718Y-114206008D01*
X83670099Y-114253627D01*
X83622480Y-114348865D01*
X83622480Y-114586960D01*
X83670099Y-114682198D01*
X83717718Y-114729817D01*
X83812956Y-114777436D01*
X84003432Y-114777436D01*
X84098670Y-114729817D01*
X84146289Y-114682198D01*
X84193908Y-114586960D01*
X83241527Y-82170383D02*
X82670099Y-82170383D01*
X82955813Y-82170383D02*
X82955813Y-81170383D01*
X82860575Y-81313241D01*
X82765337Y-81408479D01*
X82670099Y-81456098D01*
X83717718Y-82170383D02*
X83908194Y-82170383D01*
X84003432Y-82122764D01*
X84051051Y-82075145D01*
X84146289Y-81932288D01*
X84193908Y-81741812D01*
X84193908Y-81360860D01*
X84146289Y-81265622D01*
X84098670Y-81218003D01*
X84003432Y-81170383D01*
X83812956Y-81170383D01*
X83717718Y-81218003D01*
X83670099Y-81265622D01*
X83622480Y-81360860D01*
X83622480Y-81598955D01*
X83670099Y-81694193D01*
X83717718Y-81741812D01*
X83812956Y-81789431D01*
X84003432Y-81789431D01*
X84098670Y-81741812D01*
X84146289Y-81694193D01*
X84193908Y-81598955D01*
X56413520Y-115158388D02*
X55842092Y-115158388D01*
X56127806Y-115158388D02*
X56127806Y-114158388D01*
X56032568Y-114301246D01*
X55937330Y-114396484D01*
X55842092Y-114444103D01*
X56889711Y-115158388D02*
X57080187Y-115158388D01*
X57175425Y-115110769D01*
X57223044Y-115063150D01*
X57318282Y-114920293D01*
X57365901Y-114729817D01*
X57365901Y-114348865D01*
X57318282Y-114253627D01*
X57270663Y-114206008D01*
X57175425Y-114158388D01*
X56984949Y-114158388D01*
X56889711Y-114206008D01*
X56842092Y-114253627D01*
X56794473Y-114348865D01*
X56794473Y-114586960D01*
X56842092Y-114682198D01*
X56889711Y-114729817D01*
X56984949Y-114777436D01*
X57175425Y-114777436D01*
X57270663Y-114729817D01*
X57318282Y-114682198D01*
X57365901Y-114586960D01*
X56413520Y-49182378D02*
X55842092Y-49182378D01*
X56127806Y-49182378D02*
X56127806Y-48182378D01*
X56032568Y-48325236D01*
X55937330Y-48420474D01*
X55842092Y-48468093D01*
X56889711Y-49182378D02*
X57080187Y-49182378D01*
X57175425Y-49134759D01*
X57223044Y-49087140D01*
X57318282Y-48944283D01*
X57365901Y-48753807D01*
X57365901Y-48372855D01*
X57318282Y-48277617D01*
X57270663Y-48229998D01*
X57175425Y-48182378D01*
X56984949Y-48182378D01*
X56889711Y-48229998D01*
X56842092Y-48277617D01*
X56794473Y-48372855D01*
X56794473Y-48610950D01*
X56842092Y-48706188D01*
X56889711Y-48753807D01*
X56984949Y-48801426D01*
X57175425Y-48801426D01*
X57270663Y-48753807D01*
X57318282Y-48706188D01*
X57365901Y-48610950D01*
X83241527Y-49182378D02*
X82670099Y-49182378D01*
X82955813Y-49182378D02*
X82955813Y-48182378D01*
X82860575Y-48325236D01*
X82765337Y-48420474D01*
X82670099Y-48468093D01*
X83717718Y-49182378D02*
X83908194Y-49182378D01*
X84003432Y-49134759D01*
X84051051Y-49087140D01*
X84146289Y-48944283D01*
X84193908Y-48753807D01*
X84193908Y-48372855D01*
X84146289Y-48277617D01*
X84098670Y-48229998D01*
X84003432Y-48182378D01*
X83812956Y-48182378D01*
X83717718Y-48229998D01*
X83670099Y-48277617D01*
X83622480Y-48372855D01*
X83622480Y-48610950D01*
X83670099Y-48706188D01*
X83717718Y-48753807D01*
X83812956Y-48801426D01*
X84003432Y-48801426D01*
X84098670Y-48753807D01*
X84146289Y-48706188D01*
X84193908Y-48610950D01*
X56413520Y-82170383D02*
X55842092Y-82170383D01*
X56127806Y-82170383D02*
X56127806Y-81170383D01*
X56032568Y-81313241D01*
X55937330Y-81408479D01*
X55842092Y-81456098D01*
X56889711Y-82170383D02*
X57080187Y-82170383D01*
X57175425Y-82122764D01*
X57223044Y-82075145D01*
X57318282Y-81932288D01*
X57365901Y-81741812D01*
X57365901Y-81360860D01*
X57318282Y-81265622D01*
X57270663Y-81218003D01*
X57175425Y-81170383D01*
X56984949Y-81170383D01*
X56889711Y-81218003D01*
X56842092Y-81265622D01*
X56794473Y-81360860D01*
X56794473Y-81598955D01*
X56842092Y-81694193D01*
X56889711Y-81741812D01*
X56984949Y-81789431D01*
X57175425Y-81789431D01*
X57270663Y-81741812D01*
X57318282Y-81694193D01*
X57365901Y-81598955D01*
X70033527Y-130398388D02*
X69462099Y-130398388D01*
X69747813Y-130398388D02*
X69747813Y-129398388D01*
X69652575Y-129541246D01*
X69557337Y-129636484D01*
X69462099Y-129684103D01*
X70414480Y-129493627D02*
X70462099Y-129446008D01*
X70557337Y-129398388D01*
X70795432Y-129398388D01*
X70890670Y-129446008D01*
X70938289Y-129493627D01*
X70985908Y-129588865D01*
X70985908Y-129684103D01*
X70938289Y-129826960D01*
X70366861Y-130398388D01*
X70985908Y-130398388D01*
X70033527Y-97410383D02*
X69462099Y-97410383D01*
X69747813Y-97410383D02*
X69747813Y-96410383D01*
X69652575Y-96553241D01*
X69557337Y-96648479D01*
X69462099Y-96696098D01*
X70414480Y-96505622D02*
X70462099Y-96458003D01*
X70557337Y-96410383D01*
X70795432Y-96410383D01*
X70890670Y-96458003D01*
X70938289Y-96505622D01*
X70985908Y-96600860D01*
X70985908Y-96696098D01*
X70938289Y-96838955D01*
X70366861Y-97410383D01*
X70985908Y-97410383D01*
X43205520Y-130398388D02*
X42634092Y-130398388D01*
X42919806Y-130398388D02*
X42919806Y-129398388D01*
X42824568Y-129541246D01*
X42729330Y-129636484D01*
X42634092Y-129684103D01*
X43586473Y-129493627D02*
X43634092Y-129446008D01*
X43729330Y-129398388D01*
X43967425Y-129398388D01*
X44062663Y-129446008D01*
X44110282Y-129493627D01*
X44157901Y-129588865D01*
X44157901Y-129684103D01*
X44110282Y-129826960D01*
X43538854Y-130398388D01*
X44157901Y-130398388D01*
X43205520Y-64422378D02*
X42634092Y-64422378D01*
X42919806Y-64422378D02*
X42919806Y-63422378D01*
X42824568Y-63565236D01*
X42729330Y-63660474D01*
X42634092Y-63708093D01*
X43586473Y-63517617D02*
X43634092Y-63469998D01*
X43729330Y-63422378D01*
X43967425Y-63422378D01*
X44062663Y-63469998D01*
X44110282Y-63517617D01*
X44157901Y-63612855D01*
X44157901Y-63708093D01*
X44110282Y-63850950D01*
X43538854Y-64422378D01*
X44157901Y-64422378D01*
X43205520Y-97410383D02*
X42634092Y-97410383D01*
X42919806Y-97410383D02*
X42919806Y-96410383D01*
X42824568Y-96553241D01*
X42729330Y-96648479D01*
X42634092Y-96696098D01*
X43586473Y-96505622D02*
X43634092Y-96458003D01*
X43729330Y-96410383D01*
X43967425Y-96410383D01*
X44062663Y-96458003D01*
X44110282Y-96505622D01*
X44157901Y-96600860D01*
X44157901Y-96696098D01*
X44110282Y-96838955D01*
X43538854Y-97410383D01*
X44157901Y-97410383D01*
X70033527Y-64422378D02*
X69462099Y-64422378D01*
X69747813Y-64422378D02*
X69747813Y-63422378D01*
X69652575Y-63565236D01*
X69557337Y-63660474D01*
X69462099Y-63708093D01*
X70414480Y-63517617D02*
X70462099Y-63469998D01*
X70557337Y-63422378D01*
X70795432Y-63422378D01*
X70890670Y-63469998D01*
X70938289Y-63517617D01*
X70985908Y-63612855D01*
X70985908Y-63708093D01*
X70938289Y-63850950D01*
X70366861Y-64422378D01*
X70985908Y-64422378D01*
X73089908Y-125291388D02*
X73328004Y-126291388D01*
X73518480Y-125577103D01*
X73708956Y-126291388D01*
X73947051Y-125291388D01*
X74280384Y-126243769D02*
X74423242Y-126291388D01*
X74661337Y-126291388D01*
X74756575Y-126243769D01*
X74804194Y-126196150D01*
X74851813Y-126100912D01*
X74851813Y-126005674D01*
X74804194Y-125910436D01*
X74756575Y-125862817D01*
X74661337Y-125815198D01*
X74470861Y-125767579D01*
X74375623Y-125719960D01*
X74328004Y-125672341D01*
X74280384Y-125577103D01*
X74280384Y-125481865D01*
X74328004Y-125386627D01*
X74375623Y-125339008D01*
X74470861Y-125291388D01*
X74708956Y-125291388D01*
X74851813Y-125339008D01*
X75470861Y-125291388D02*
X75661337Y-125291388D01*
X75756575Y-125339008D01*
X75851813Y-125434246D01*
X75899432Y-125624722D01*
X75899432Y-125958055D01*
X75851813Y-126148531D01*
X75756575Y-126243769D01*
X75661337Y-126291388D01*
X75470861Y-126291388D01*
X75375623Y-126243769D01*
X75280384Y-126148531D01*
X75232765Y-125958055D01*
X75232765Y-125624722D01*
X75280384Y-125434246D01*
X75375623Y-125339008D01*
X75470861Y-125291388D01*
X76328004Y-126291388D02*
X76328004Y-125291388D01*
X77375623Y-126196150D02*
X77328004Y-126243769D01*
X77185146Y-126291388D01*
X77089908Y-126291388D01*
X76947051Y-126243769D01*
X76851813Y-126148531D01*
X76804194Y-126053293D01*
X76756575Y-125862817D01*
X76756575Y-125719960D01*
X76804194Y-125529484D01*
X76851813Y-125434246D01*
X76947051Y-125339008D01*
X77089908Y-125291388D01*
X77185146Y-125291388D01*
X77328004Y-125339008D01*
X77375623Y-125386627D01*
X77804194Y-125910436D02*
X78566099Y-125910436D01*
X78994670Y-125386627D02*
X79042289Y-125339008D01*
X79137527Y-125291388D01*
X79375623Y-125291388D01*
X79470861Y-125339008D01*
X79518480Y-125386627D01*
X79566099Y-125481865D01*
X79566099Y-125577103D01*
X79518480Y-125719960D01*
X78947051Y-126291388D01*
X79566099Y-126291388D01*
X80423242Y-125624722D02*
X80423242Y-126291388D01*
X80185146Y-125243769D02*
X79947051Y-125958055D01*
X80566099Y-125958055D01*
X74208956Y-127615674D02*
X74685146Y-127615674D01*
X74113718Y-127901388D02*
X74447051Y-126901388D01*
X74780384Y-127901388D01*
X75542289Y-127901388D02*
X75542289Y-126901388D01*
X75542289Y-127853769D02*
X75447051Y-127901388D01*
X75256575Y-127901388D01*
X75161337Y-127853769D01*
X75113718Y-127806150D01*
X75066099Y-127710912D01*
X75066099Y-127425198D01*
X75113718Y-127329960D01*
X75161337Y-127282341D01*
X75256575Y-127234722D01*
X75447051Y-127234722D01*
X75542289Y-127282341D01*
X76447051Y-127901388D02*
X76447051Y-127377579D01*
X76399432Y-127282341D01*
X76304194Y-127234722D01*
X76113718Y-127234722D01*
X76018480Y-127282341D01*
X76447051Y-127853769D02*
X76351813Y-127901388D01*
X76113718Y-127901388D01*
X76018480Y-127853769D01*
X75970861Y-127758531D01*
X75970861Y-127663293D01*
X76018480Y-127568055D01*
X76113718Y-127520436D01*
X76351813Y-127520436D01*
X76447051Y-127472817D01*
X76923242Y-127234722D02*
X76923242Y-128234722D01*
X76923242Y-127282341D02*
X77018480Y-127234722D01*
X77208956Y-127234722D01*
X77304194Y-127282341D01*
X77351813Y-127329960D01*
X77399432Y-127425198D01*
X77399432Y-127710912D01*
X77351813Y-127806150D01*
X77304194Y-127853769D01*
X77208956Y-127901388D01*
X77018480Y-127901388D01*
X76923242Y-127853769D01*
X77685146Y-127234722D02*
X78066099Y-127234722D01*
X77828004Y-126901388D02*
X77828004Y-127758531D01*
X77875623Y-127853769D01*
X77970861Y-127901388D01*
X78066099Y-127901388D01*
X78780384Y-127853769D02*
X78685146Y-127901388D01*
X78494670Y-127901388D01*
X78399432Y-127853769D01*
X78351813Y-127758531D01*
X78351813Y-127377579D01*
X78399432Y-127282341D01*
X78494670Y-127234722D01*
X78685146Y-127234722D01*
X78780384Y-127282341D01*
X78828004Y-127377579D01*
X78828004Y-127472817D01*
X78351813Y-127568055D01*
X79256575Y-127901388D02*
X79256575Y-127234722D01*
X79256575Y-127425198D02*
X79304194Y-127329960D01*
X79351813Y-127282341D01*
X79447051Y-127234722D01*
X79542289Y-127234722D01*
X46261901Y-125291388D02*
X46499997Y-126291388D01*
X46690473Y-125577103D01*
X46880949Y-126291388D01*
X47119044Y-125291388D01*
X47452377Y-126243769D02*
X47595235Y-126291388D01*
X47833330Y-126291388D01*
X47928568Y-126243769D01*
X47976187Y-126196150D01*
X48023806Y-126100912D01*
X48023806Y-126005674D01*
X47976187Y-125910436D01*
X47928568Y-125862817D01*
X47833330Y-125815198D01*
X47642854Y-125767579D01*
X47547616Y-125719960D01*
X47499997Y-125672341D01*
X47452377Y-125577103D01*
X47452377Y-125481865D01*
X47499997Y-125386627D01*
X47547616Y-125339008D01*
X47642854Y-125291388D01*
X47880949Y-125291388D01*
X48023806Y-125339008D01*
X48642854Y-125291388D02*
X48833330Y-125291388D01*
X48928568Y-125339008D01*
X49023806Y-125434246D01*
X49071425Y-125624722D01*
X49071425Y-125958055D01*
X49023806Y-126148531D01*
X48928568Y-126243769D01*
X48833330Y-126291388D01*
X48642854Y-126291388D01*
X48547616Y-126243769D01*
X48452377Y-126148531D01*
X48404758Y-125958055D01*
X48404758Y-125624722D01*
X48452377Y-125434246D01*
X48547616Y-125339008D01*
X48642854Y-125291388D01*
X49499997Y-126291388D02*
X49499997Y-125291388D01*
X50547616Y-126196150D02*
X50499997Y-126243769D01*
X50357139Y-126291388D01*
X50261901Y-126291388D01*
X50119044Y-126243769D01*
X50023806Y-126148531D01*
X49976187Y-126053293D01*
X49928568Y-125862817D01*
X49928568Y-125719960D01*
X49976187Y-125529484D01*
X50023806Y-125434246D01*
X50119044Y-125339008D01*
X50261901Y-125291388D01*
X50357139Y-125291388D01*
X50499997Y-125339008D01*
X50547616Y-125386627D01*
X50976187Y-125910436D02*
X51738092Y-125910436D01*
X52166663Y-125386627D02*
X52214282Y-125339008D01*
X52309520Y-125291388D01*
X52547616Y-125291388D01*
X52642854Y-125339008D01*
X52690473Y-125386627D01*
X52738092Y-125481865D01*
X52738092Y-125577103D01*
X52690473Y-125719960D01*
X52119044Y-126291388D01*
X52738092Y-126291388D01*
X53595235Y-125624722D02*
X53595235Y-126291388D01*
X53357139Y-125243769D02*
X53119044Y-125958055D01*
X53738092Y-125958055D01*
X47380949Y-127615674D02*
X47857139Y-127615674D01*
X47285711Y-127901388D02*
X47619044Y-126901388D01*
X47952377Y-127901388D01*
X48714282Y-127901388D02*
X48714282Y-126901388D01*
X48714282Y-127853769D02*
X48619044Y-127901388D01*
X48428568Y-127901388D01*
X48333330Y-127853769D01*
X48285711Y-127806150D01*
X48238092Y-127710912D01*
X48238092Y-127425198D01*
X48285711Y-127329960D01*
X48333330Y-127282341D01*
X48428568Y-127234722D01*
X48619044Y-127234722D01*
X48714282Y-127282341D01*
X49619044Y-127901388D02*
X49619044Y-127377579D01*
X49571425Y-127282341D01*
X49476187Y-127234722D01*
X49285711Y-127234722D01*
X49190473Y-127282341D01*
X49619044Y-127853769D02*
X49523806Y-127901388D01*
X49285711Y-127901388D01*
X49190473Y-127853769D01*
X49142854Y-127758531D01*
X49142854Y-127663293D01*
X49190473Y-127568055D01*
X49285711Y-127520436D01*
X49523806Y-127520436D01*
X49619044Y-127472817D01*
X50095235Y-127234722D02*
X50095235Y-128234722D01*
X50095235Y-127282341D02*
X50190473Y-127234722D01*
X50380949Y-127234722D01*
X50476187Y-127282341D01*
X50523806Y-127329960D01*
X50571425Y-127425198D01*
X50571425Y-127710912D01*
X50523806Y-127806150D01*
X50476187Y-127853769D01*
X50380949Y-127901388D01*
X50190473Y-127901388D01*
X50095235Y-127853769D01*
X50857139Y-127234722D02*
X51238092Y-127234722D01*
X50999997Y-126901388D02*
X50999997Y-127758531D01*
X51047616Y-127853769D01*
X51142854Y-127901388D01*
X51238092Y-127901388D01*
X51952377Y-127853769D02*
X51857139Y-127901388D01*
X51666663Y-127901388D01*
X51571425Y-127853769D01*
X51523806Y-127758531D01*
X51523806Y-127377579D01*
X51571425Y-127282341D01*
X51666663Y-127234722D01*
X51857139Y-127234722D01*
X51952377Y-127282341D01*
X51999997Y-127377579D01*
X51999997Y-127472817D01*
X51523806Y-127568055D01*
X52428568Y-127901388D02*
X52428568Y-127234722D01*
X52428568Y-127425198D02*
X52476187Y-127329960D01*
X52523806Y-127282341D01*
X52619044Y-127234722D01*
X52714282Y-127234722D01*
X73089908Y-92303383D02*
X73328004Y-93303383D01*
X73518480Y-92589098D01*
X73708956Y-93303383D01*
X73947051Y-92303383D01*
X74280384Y-93255764D02*
X74423242Y-93303383D01*
X74661337Y-93303383D01*
X74756575Y-93255764D01*
X74804194Y-93208145D01*
X74851813Y-93112907D01*
X74851813Y-93017669D01*
X74804194Y-92922431D01*
X74756575Y-92874812D01*
X74661337Y-92827193D01*
X74470861Y-92779574D01*
X74375623Y-92731955D01*
X74328004Y-92684336D01*
X74280384Y-92589098D01*
X74280384Y-92493860D01*
X74328004Y-92398622D01*
X74375623Y-92351003D01*
X74470861Y-92303383D01*
X74708956Y-92303383D01*
X74851813Y-92351003D01*
X75470861Y-92303383D02*
X75661337Y-92303383D01*
X75756575Y-92351003D01*
X75851813Y-92446241D01*
X75899432Y-92636717D01*
X75899432Y-92970050D01*
X75851813Y-93160526D01*
X75756575Y-93255764D01*
X75661337Y-93303383D01*
X75470861Y-93303383D01*
X75375623Y-93255764D01*
X75280384Y-93160526D01*
X75232765Y-92970050D01*
X75232765Y-92636717D01*
X75280384Y-92446241D01*
X75375623Y-92351003D01*
X75470861Y-92303383D01*
X76328004Y-93303383D02*
X76328004Y-92303383D01*
X77375623Y-93208145D02*
X77328004Y-93255764D01*
X77185146Y-93303383D01*
X77089908Y-93303383D01*
X76947051Y-93255764D01*
X76851813Y-93160526D01*
X76804194Y-93065288D01*
X76756575Y-92874812D01*
X76756575Y-92731955D01*
X76804194Y-92541479D01*
X76851813Y-92446241D01*
X76947051Y-92351003D01*
X77089908Y-92303383D01*
X77185146Y-92303383D01*
X77328004Y-92351003D01*
X77375623Y-92398622D01*
X77804194Y-92922431D02*
X78566099Y-92922431D01*
X78994670Y-92398622D02*
X79042289Y-92351003D01*
X79137527Y-92303383D01*
X79375623Y-92303383D01*
X79470861Y-92351003D01*
X79518480Y-92398622D01*
X79566099Y-92493860D01*
X79566099Y-92589098D01*
X79518480Y-92731955D01*
X78947051Y-93303383D01*
X79566099Y-93303383D01*
X80423242Y-92636717D02*
X80423242Y-93303383D01*
X80185146Y-92255764D02*
X79947051Y-92970050D01*
X80566099Y-92970050D01*
X74208956Y-94627669D02*
X74685146Y-94627669D01*
X74113718Y-94913383D02*
X74447051Y-93913383D01*
X74780384Y-94913383D01*
X75542289Y-94913383D02*
X75542289Y-93913383D01*
X75542289Y-94865764D02*
X75447051Y-94913383D01*
X75256575Y-94913383D01*
X75161337Y-94865764D01*
X75113718Y-94818145D01*
X75066099Y-94722907D01*
X75066099Y-94437193D01*
X75113718Y-94341955D01*
X75161337Y-94294336D01*
X75256575Y-94246717D01*
X75447051Y-94246717D01*
X75542289Y-94294336D01*
X76447051Y-94913383D02*
X76447051Y-94389574D01*
X76399432Y-94294336D01*
X76304194Y-94246717D01*
X76113718Y-94246717D01*
X76018480Y-94294336D01*
X76447051Y-94865764D02*
X76351813Y-94913383D01*
X76113718Y-94913383D01*
X76018480Y-94865764D01*
X75970861Y-94770526D01*
X75970861Y-94675288D01*
X76018480Y-94580050D01*
X76113718Y-94532431D01*
X76351813Y-94532431D01*
X76447051Y-94484812D01*
X76923242Y-94246717D02*
X76923242Y-95246717D01*
X76923242Y-94294336D02*
X77018480Y-94246717D01*
X77208956Y-94246717D01*
X77304194Y-94294336D01*
X77351813Y-94341955D01*
X77399432Y-94437193D01*
X77399432Y-94722907D01*
X77351813Y-94818145D01*
X77304194Y-94865764D01*
X77208956Y-94913383D01*
X77018480Y-94913383D01*
X76923242Y-94865764D01*
X77685146Y-94246717D02*
X78066099Y-94246717D01*
X77828004Y-93913383D02*
X77828004Y-94770526D01*
X77875623Y-94865764D01*
X77970861Y-94913383D01*
X78066099Y-94913383D01*
X78780384Y-94865764D02*
X78685146Y-94913383D01*
X78494670Y-94913383D01*
X78399432Y-94865764D01*
X78351813Y-94770526D01*
X78351813Y-94389574D01*
X78399432Y-94294336D01*
X78494670Y-94246717D01*
X78685146Y-94246717D01*
X78780384Y-94294336D01*
X78828004Y-94389574D01*
X78828004Y-94484812D01*
X78351813Y-94580050D01*
X79256575Y-94913383D02*
X79256575Y-94246717D01*
X79256575Y-94437193D02*
X79304194Y-94341955D01*
X79351813Y-94294336D01*
X79447051Y-94246717D01*
X79542289Y-94246717D01*
X46261901Y-59315378D02*
X46499997Y-60315378D01*
X46690473Y-59601093D01*
X46880949Y-60315378D01*
X47119044Y-59315378D01*
X47452377Y-60267759D02*
X47595235Y-60315378D01*
X47833330Y-60315378D01*
X47928568Y-60267759D01*
X47976187Y-60220140D01*
X48023806Y-60124902D01*
X48023806Y-60029664D01*
X47976187Y-59934426D01*
X47928568Y-59886807D01*
X47833330Y-59839188D01*
X47642854Y-59791569D01*
X47547616Y-59743950D01*
X47499997Y-59696331D01*
X47452377Y-59601093D01*
X47452377Y-59505855D01*
X47499997Y-59410617D01*
X47547616Y-59362998D01*
X47642854Y-59315378D01*
X47880949Y-59315378D01*
X48023806Y-59362998D01*
X48642854Y-59315378D02*
X48833330Y-59315378D01*
X48928568Y-59362998D01*
X49023806Y-59458236D01*
X49071425Y-59648712D01*
X49071425Y-59982045D01*
X49023806Y-60172521D01*
X48928568Y-60267759D01*
X48833330Y-60315378D01*
X48642854Y-60315378D01*
X48547616Y-60267759D01*
X48452377Y-60172521D01*
X48404758Y-59982045D01*
X48404758Y-59648712D01*
X48452377Y-59458236D01*
X48547616Y-59362998D01*
X48642854Y-59315378D01*
X49499997Y-60315378D02*
X49499997Y-59315378D01*
X50547616Y-60220140D02*
X50499997Y-60267759D01*
X50357139Y-60315378D01*
X50261901Y-60315378D01*
X50119044Y-60267759D01*
X50023806Y-60172521D01*
X49976187Y-60077283D01*
X49928568Y-59886807D01*
X49928568Y-59743950D01*
X49976187Y-59553474D01*
X50023806Y-59458236D01*
X50119044Y-59362998D01*
X50261901Y-59315378D01*
X50357139Y-59315378D01*
X50499997Y-59362998D01*
X50547616Y-59410617D01*
X50976187Y-59934426D02*
X51738092Y-59934426D01*
X52166663Y-59410617D02*
X52214282Y-59362998D01*
X52309520Y-59315378D01*
X52547616Y-59315378D01*
X52642854Y-59362998D01*
X52690473Y-59410617D01*
X52738092Y-59505855D01*
X52738092Y-59601093D01*
X52690473Y-59743950D01*
X52119044Y-60315378D01*
X52738092Y-60315378D01*
X53595235Y-59648712D02*
X53595235Y-60315378D01*
X53357139Y-59267759D02*
X53119044Y-59982045D01*
X53738092Y-59982045D01*
X47380949Y-61639664D02*
X47857139Y-61639664D01*
X47285711Y-61925378D02*
X47619044Y-60925378D01*
X47952377Y-61925378D01*
X48714282Y-61925378D02*
X48714282Y-60925378D01*
X48714282Y-61877759D02*
X48619044Y-61925378D01*
X48428568Y-61925378D01*
X48333330Y-61877759D01*
X48285711Y-61830140D01*
X48238092Y-61734902D01*
X48238092Y-61449188D01*
X48285711Y-61353950D01*
X48333330Y-61306331D01*
X48428568Y-61258712D01*
X48619044Y-61258712D01*
X48714282Y-61306331D01*
X49619044Y-61925378D02*
X49619044Y-61401569D01*
X49571425Y-61306331D01*
X49476187Y-61258712D01*
X49285711Y-61258712D01*
X49190473Y-61306331D01*
X49619044Y-61877759D02*
X49523806Y-61925378D01*
X49285711Y-61925378D01*
X49190473Y-61877759D01*
X49142854Y-61782521D01*
X49142854Y-61687283D01*
X49190473Y-61592045D01*
X49285711Y-61544426D01*
X49523806Y-61544426D01*
X49619044Y-61496807D01*
X50095235Y-61258712D02*
X50095235Y-62258712D01*
X50095235Y-61306331D02*
X50190473Y-61258712D01*
X50380949Y-61258712D01*
X50476187Y-61306331D01*
X50523806Y-61353950D01*
X50571425Y-61449188D01*
X50571425Y-61734902D01*
X50523806Y-61830140D01*
X50476187Y-61877759D01*
X50380949Y-61925378D01*
X50190473Y-61925378D01*
X50095235Y-61877759D01*
X50857139Y-61258712D02*
X51238092Y-61258712D01*
X50999997Y-60925378D02*
X50999997Y-61782521D01*
X51047616Y-61877759D01*
X51142854Y-61925378D01*
X51238092Y-61925378D01*
X51952377Y-61877759D02*
X51857139Y-61925378D01*
X51666663Y-61925378D01*
X51571425Y-61877759D01*
X51523806Y-61782521D01*
X51523806Y-61401569D01*
X51571425Y-61306331D01*
X51666663Y-61258712D01*
X51857139Y-61258712D01*
X51952377Y-61306331D01*
X51999997Y-61401569D01*
X51999997Y-61496807D01*
X51523806Y-61592045D01*
X52428568Y-61925378D02*
X52428568Y-61258712D01*
X52428568Y-61449188D02*
X52476187Y-61353950D01*
X52523806Y-61306331D01*
X52619044Y-61258712D01*
X52714282Y-61258712D01*
X46261901Y-92303383D02*
X46499997Y-93303383D01*
X46690473Y-92589098D01*
X46880949Y-93303383D01*
X47119044Y-92303383D01*
X47452377Y-93255764D02*
X47595235Y-93303383D01*
X47833330Y-93303383D01*
X47928568Y-93255764D01*
X47976187Y-93208145D01*
X48023806Y-93112907D01*
X48023806Y-93017669D01*
X47976187Y-92922431D01*
X47928568Y-92874812D01*
X47833330Y-92827193D01*
X47642854Y-92779574D01*
X47547616Y-92731955D01*
X47499997Y-92684336D01*
X47452377Y-92589098D01*
X47452377Y-92493860D01*
X47499997Y-92398622D01*
X47547616Y-92351003D01*
X47642854Y-92303383D01*
X47880949Y-92303383D01*
X48023806Y-92351003D01*
X48642854Y-92303383D02*
X48833330Y-92303383D01*
X48928568Y-92351003D01*
X49023806Y-92446241D01*
X49071425Y-92636717D01*
X49071425Y-92970050D01*
X49023806Y-93160526D01*
X48928568Y-93255764D01*
X48833330Y-93303383D01*
X48642854Y-93303383D01*
X48547616Y-93255764D01*
X48452377Y-93160526D01*
X48404758Y-92970050D01*
X48404758Y-92636717D01*
X48452377Y-92446241D01*
X48547616Y-92351003D01*
X48642854Y-92303383D01*
X49499997Y-93303383D02*
X49499997Y-92303383D01*
X50547616Y-93208145D02*
X50499997Y-93255764D01*
X50357139Y-93303383D01*
X50261901Y-93303383D01*
X50119044Y-93255764D01*
X50023806Y-93160526D01*
X49976187Y-93065288D01*
X49928568Y-92874812D01*
X49928568Y-92731955D01*
X49976187Y-92541479D01*
X50023806Y-92446241D01*
X50119044Y-92351003D01*
X50261901Y-92303383D01*
X50357139Y-92303383D01*
X50499997Y-92351003D01*
X50547616Y-92398622D01*
X50976187Y-92922431D02*
X51738092Y-92922431D01*
X52166663Y-92398622D02*
X52214282Y-92351003D01*
X52309520Y-92303383D01*
X52547616Y-92303383D01*
X52642854Y-92351003D01*
X52690473Y-92398622D01*
X52738092Y-92493860D01*
X52738092Y-92589098D01*
X52690473Y-92731955D01*
X52119044Y-93303383D01*
X52738092Y-93303383D01*
X53595235Y-92636717D02*
X53595235Y-93303383D01*
X53357139Y-92255764D02*
X53119044Y-92970050D01*
X53738092Y-92970050D01*
X47380949Y-94627669D02*
X47857139Y-94627669D01*
X47285711Y-94913383D02*
X47619044Y-93913383D01*
X47952377Y-94913383D01*
X48714282Y-94913383D02*
X48714282Y-93913383D01*
X48714282Y-94865764D02*
X48619044Y-94913383D01*
X48428568Y-94913383D01*
X48333330Y-94865764D01*
X48285711Y-94818145D01*
X48238092Y-94722907D01*
X48238092Y-94437193D01*
X48285711Y-94341955D01*
X48333330Y-94294336D01*
X48428568Y-94246717D01*
X48619044Y-94246717D01*
X48714282Y-94294336D01*
X49619044Y-94913383D02*
X49619044Y-94389574D01*
X49571425Y-94294336D01*
X49476187Y-94246717D01*
X49285711Y-94246717D01*
X49190473Y-94294336D01*
X49619044Y-94865764D02*
X49523806Y-94913383D01*
X49285711Y-94913383D01*
X49190473Y-94865764D01*
X49142854Y-94770526D01*
X49142854Y-94675288D01*
X49190473Y-94580050D01*
X49285711Y-94532431D01*
X49523806Y-94532431D01*
X49619044Y-94484812D01*
X50095235Y-94246717D02*
X50095235Y-95246717D01*
X50095235Y-94294336D02*
X50190473Y-94246717D01*
X50380949Y-94246717D01*
X50476187Y-94294336D01*
X50523806Y-94341955D01*
X50571425Y-94437193D01*
X50571425Y-94722907D01*
X50523806Y-94818145D01*
X50476187Y-94865764D01*
X50380949Y-94913383D01*
X50190473Y-94913383D01*
X50095235Y-94865764D01*
X50857139Y-94246717D02*
X51238092Y-94246717D01*
X50999997Y-93913383D02*
X50999997Y-94770526D01*
X51047616Y-94865764D01*
X51142854Y-94913383D01*
X51238092Y-94913383D01*
X51952377Y-94865764D02*
X51857139Y-94913383D01*
X51666663Y-94913383D01*
X51571425Y-94865764D01*
X51523806Y-94770526D01*
X51523806Y-94389574D01*
X51571425Y-94294336D01*
X51666663Y-94246717D01*
X51857139Y-94246717D01*
X51952377Y-94294336D01*
X51999997Y-94389574D01*
X51999997Y-94484812D01*
X51523806Y-94580050D01*
X52428568Y-94913383D02*
X52428568Y-94246717D01*
X52428568Y-94437193D02*
X52476187Y-94341955D01*
X52523806Y-94294336D01*
X52619044Y-94246717D01*
X52714282Y-94246717D01*
X73089908Y-59315378D02*
X73328004Y-60315378D01*
X73518480Y-59601093D01*
X73708956Y-60315378D01*
X73947051Y-59315378D01*
X74280384Y-60267759D02*
X74423242Y-60315378D01*
X74661337Y-60315378D01*
X74756575Y-60267759D01*
X74804194Y-60220140D01*
X74851813Y-60124902D01*
X74851813Y-60029664D01*
X74804194Y-59934426D01*
X74756575Y-59886807D01*
X74661337Y-59839188D01*
X74470861Y-59791569D01*
X74375623Y-59743950D01*
X74328004Y-59696331D01*
X74280384Y-59601093D01*
X74280384Y-59505855D01*
X74328004Y-59410617D01*
X74375623Y-59362998D01*
X74470861Y-59315378D01*
X74708956Y-59315378D01*
X74851813Y-59362998D01*
X75470861Y-59315378D02*
X75661337Y-59315378D01*
X75756575Y-59362998D01*
X75851813Y-59458236D01*
X75899432Y-59648712D01*
X75899432Y-59982045D01*
X75851813Y-60172521D01*
X75756575Y-60267759D01*
X75661337Y-60315378D01*
X75470861Y-60315378D01*
X75375623Y-60267759D01*
X75280384Y-60172521D01*
X75232765Y-59982045D01*
X75232765Y-59648712D01*
X75280384Y-59458236D01*
X75375623Y-59362998D01*
X75470861Y-59315378D01*
X76328004Y-60315378D02*
X76328004Y-59315378D01*
X77375623Y-60220140D02*
X77328004Y-60267759D01*
X77185146Y-60315378D01*
X77089908Y-60315378D01*
X76947051Y-60267759D01*
X76851813Y-60172521D01*
X76804194Y-60077283D01*
X76756575Y-59886807D01*
X76756575Y-59743950D01*
X76804194Y-59553474D01*
X76851813Y-59458236D01*
X76947051Y-59362998D01*
X77089908Y-59315378D01*
X77185146Y-59315378D01*
X77328004Y-59362998D01*
X77375623Y-59410617D01*
X77804194Y-59934426D02*
X78566099Y-59934426D01*
X78994670Y-59410617D02*
X79042289Y-59362998D01*
X79137527Y-59315378D01*
X79375623Y-59315378D01*
X79470861Y-59362998D01*
X79518480Y-59410617D01*
X79566099Y-59505855D01*
X79566099Y-59601093D01*
X79518480Y-59743950D01*
X78947051Y-60315378D01*
X79566099Y-60315378D01*
X80423242Y-59648712D02*
X80423242Y-60315378D01*
X80185146Y-59267759D02*
X79947051Y-59982045D01*
X80566099Y-59982045D01*
X74208956Y-61639664D02*
X74685146Y-61639664D01*
X74113718Y-61925378D02*
X74447051Y-60925378D01*
X74780384Y-61925378D01*
X75542289Y-61925378D02*
X75542289Y-60925378D01*
X75542289Y-61877759D02*
X75447051Y-61925378D01*
X75256575Y-61925378D01*
X75161337Y-61877759D01*
X75113718Y-61830140D01*
X75066099Y-61734902D01*
X75066099Y-61449188D01*
X75113718Y-61353950D01*
X75161337Y-61306331D01*
X75256575Y-61258712D01*
X75447051Y-61258712D01*
X75542289Y-61306331D01*
X76447051Y-61925378D02*
X76447051Y-61401569D01*
X76399432Y-61306331D01*
X76304194Y-61258712D01*
X76113718Y-61258712D01*
X76018480Y-61306331D01*
X76447051Y-61877759D02*
X76351813Y-61925378D01*
X76113718Y-61925378D01*
X76018480Y-61877759D01*
X75970861Y-61782521D01*
X75970861Y-61687283D01*
X76018480Y-61592045D01*
X76113718Y-61544426D01*
X76351813Y-61544426D01*
X76447051Y-61496807D01*
X76923242Y-61258712D02*
X76923242Y-62258712D01*
X76923242Y-61306331D02*
X77018480Y-61258712D01*
X77208956Y-61258712D01*
X77304194Y-61306331D01*
X77351813Y-61353950D01*
X77399432Y-61449188D01*
X77399432Y-61734902D01*
X77351813Y-61830140D01*
X77304194Y-61877759D01*
X77208956Y-61925378D01*
X77018480Y-61925378D01*
X76923242Y-61877759D01*
X77685146Y-61258712D02*
X78066099Y-61258712D01*
X77828004Y-60925378D02*
X77828004Y-61782521D01*
X77875623Y-61877759D01*
X77970861Y-61925378D01*
X78066099Y-61925378D01*
X78780384Y-61877759D02*
X78685146Y-61925378D01*
X78494670Y-61925378D01*
X78399432Y-61877759D01*
X78351813Y-61782521D01*
X78351813Y-61401569D01*
X78399432Y-61306331D01*
X78494670Y-61258712D01*
X78685146Y-61258712D01*
X78780384Y-61306331D01*
X78828004Y-61401569D01*
X78828004Y-61496807D01*
X78351813Y-61592045D01*
X79256575Y-61925378D02*
X79256575Y-61258712D01*
X79256575Y-61449188D02*
X79304194Y-61353950D01*
X79351813Y-61306331D01*
X79447051Y-61258712D01*
X79542289Y-61258712D01*
X82670099Y-101553627D02*
X82717718Y-101506008D01*
X82812956Y-101458388D01*
X83051051Y-101458388D01*
X83146289Y-101506008D01*
X83193908Y-101553627D01*
X83241527Y-101648865D01*
X83241527Y-101744103D01*
X83193908Y-101886960D01*
X82622480Y-102458388D01*
X83241527Y-102458388D01*
X84098670Y-101791722D02*
X84098670Y-102458388D01*
X83860575Y-101410769D02*
X83622480Y-102125055D01*
X84241527Y-102125055D01*
X55842092Y-101553627D02*
X55889711Y-101506008D01*
X55984949Y-101458388D01*
X56223044Y-101458388D01*
X56318282Y-101506008D01*
X56365901Y-101553627D01*
X56413520Y-101648865D01*
X56413520Y-101744103D01*
X56365901Y-101886960D01*
X55794473Y-102458388D01*
X56413520Y-102458388D01*
X57270663Y-101791722D02*
X57270663Y-102458388D01*
X57032568Y-101410769D02*
X56794473Y-102125055D01*
X57413520Y-102125055D01*
X82670099Y-68565622D02*
X82717718Y-68518003D01*
X82812956Y-68470383D01*
X83051051Y-68470383D01*
X83146289Y-68518003D01*
X83193908Y-68565622D01*
X83241527Y-68660860D01*
X83241527Y-68756098D01*
X83193908Y-68898955D01*
X82622480Y-69470383D01*
X83241527Y-69470383D01*
X84098670Y-68803717D02*
X84098670Y-69470383D01*
X83860575Y-68422764D02*
X83622480Y-69137050D01*
X84241527Y-69137050D01*
X55842092Y-35577617D02*
X55889711Y-35529998D01*
X55984949Y-35482378D01*
X56223044Y-35482378D01*
X56318282Y-35529998D01*
X56365901Y-35577617D01*
X56413520Y-35672855D01*
X56413520Y-35768093D01*
X56365901Y-35910950D01*
X55794473Y-36482378D01*
X56413520Y-36482378D01*
X57270663Y-35815712D02*
X57270663Y-36482378D01*
X57032568Y-35434759D02*
X56794473Y-36149045D01*
X57413520Y-36149045D01*
X55842092Y-68565622D02*
X55889711Y-68518003D01*
X55984949Y-68470383D01*
X56223044Y-68470383D01*
X56318282Y-68518003D01*
X56365901Y-68565622D01*
X56413520Y-68660860D01*
X56413520Y-68756098D01*
X56365901Y-68898955D01*
X55794473Y-69470383D01*
X56413520Y-69470383D01*
X57270663Y-68803717D02*
X57270663Y-69470383D01*
X57032568Y-68422764D02*
X56794473Y-69137050D01*
X57413520Y-69137050D01*
X82670099Y-35577617D02*
X82717718Y-35529998D01*
X82812956Y-35482378D01*
X83051051Y-35482378D01*
X83146289Y-35529998D01*
X83193908Y-35577617D01*
X83241527Y-35672855D01*
X83241527Y-35768093D01*
X83193908Y-35910950D01*
X82622480Y-36482378D01*
X83241527Y-36482378D01*
X84098670Y-35815712D02*
X84098670Y-36482378D01*
X83860575Y-35434759D02*
X83622480Y-36149045D01*
X84241527Y-36149045D01*
%TO.C,J2*%
X85384670Y-66140383D02*
X85384670Y-66854669D01*
X85337051Y-66997526D01*
X85241813Y-67092764D01*
X85098956Y-67140383D01*
X85003718Y-67140383D01*
X85813242Y-66235622D02*
X85860861Y-66188003D01*
X85956099Y-66140383D01*
X86194194Y-66140383D01*
X86289432Y-66188003D01*
X86337051Y-66235622D01*
X86384670Y-66330860D01*
X86384670Y-66426098D01*
X86337051Y-66568955D01*
X85765623Y-67140383D01*
X86384670Y-67140383D01*
%TO.C,U1*%
X76066099Y-73590383D02*
X76066099Y-74399907D01*
X76113718Y-74495145D01*
X76161337Y-74542764D01*
X76256575Y-74590383D01*
X76447051Y-74590383D01*
X76542289Y-74542764D01*
X76589908Y-74495145D01*
X76637527Y-74399907D01*
X76637527Y-73590383D01*
X77637527Y-74590383D02*
X77066099Y-74590383D01*
X77351813Y-74590383D02*
X77351813Y-73590383D01*
X77256575Y-73733241D01*
X77161337Y-73828479D01*
X77066099Y-73876098D01*
%TO.C,J2*%
X58556663Y-66140383D02*
X58556663Y-66854669D01*
X58509044Y-66997526D01*
X58413806Y-67092764D01*
X58270949Y-67140383D01*
X58175711Y-67140383D01*
X58985235Y-66235622D02*
X59032854Y-66188003D01*
X59128092Y-66140383D01*
X59366187Y-66140383D01*
X59461425Y-66188003D01*
X59509044Y-66235622D01*
X59556663Y-66330860D01*
X59556663Y-66426098D01*
X59509044Y-66568955D01*
X58937616Y-67140383D01*
X59556663Y-67140383D01*
%TO.C,U1*%
X76066099Y-106578388D02*
X76066099Y-107387912D01*
X76113718Y-107483150D01*
X76161337Y-107530769D01*
X76256575Y-107578388D01*
X76447051Y-107578388D01*
X76542289Y-107530769D01*
X76589908Y-107483150D01*
X76637527Y-107387912D01*
X76637527Y-106578388D01*
X77637527Y-107578388D02*
X77066099Y-107578388D01*
X77351813Y-107578388D02*
X77351813Y-106578388D01*
X77256575Y-106721246D01*
X77161337Y-106816484D01*
X77066099Y-106864103D01*
%TO.C,J1*%
X40776663Y-33152378D02*
X40776663Y-33866664D01*
X40729044Y-34009521D01*
X40633806Y-34104759D01*
X40490949Y-34152378D01*
X40395711Y-34152378D01*
X41776663Y-34152378D02*
X41205235Y-34152378D01*
X41490949Y-34152378D02*
X41490949Y-33152378D01*
X41395711Y-33295236D01*
X41300473Y-33390474D01*
X41205235Y-33438093D01*
%TO.C,J2*%
X85384670Y-99128388D02*
X85384670Y-99842674D01*
X85337051Y-99985531D01*
X85241813Y-100080769D01*
X85098956Y-100128388D01*
X85003718Y-100128388D01*
X85813242Y-99223627D02*
X85860861Y-99176008D01*
X85956099Y-99128388D01*
X86194194Y-99128388D01*
X86289432Y-99176008D01*
X86337051Y-99223627D01*
X86384670Y-99318865D01*
X86384670Y-99414103D01*
X86337051Y-99556960D01*
X85765623Y-100128388D01*
X86384670Y-100128388D01*
%TO.C,U1*%
X49238092Y-106578388D02*
X49238092Y-107387912D01*
X49285711Y-107483150D01*
X49333330Y-107530769D01*
X49428568Y-107578388D01*
X49619044Y-107578388D01*
X49714282Y-107530769D01*
X49761901Y-107483150D01*
X49809520Y-107387912D01*
X49809520Y-106578388D01*
X50809520Y-107578388D02*
X50238092Y-107578388D01*
X50523806Y-107578388D02*
X50523806Y-106578388D01*
X50428568Y-106721246D01*
X50333330Y-106816484D01*
X50238092Y-106864103D01*
%TO.C,J2*%
X58556663Y-99128388D02*
X58556663Y-99842674D01*
X58509044Y-99985531D01*
X58413806Y-100080769D01*
X58270949Y-100128388D01*
X58175711Y-100128388D01*
X58985235Y-99223627D02*
X59032854Y-99176008D01*
X59128092Y-99128388D01*
X59366187Y-99128388D01*
X59461425Y-99176008D01*
X59509044Y-99223627D01*
X59556663Y-99318865D01*
X59556663Y-99414103D01*
X59509044Y-99556960D01*
X58937616Y-100128388D01*
X59556663Y-100128388D01*
%TO.C,J1*%
X40776663Y-66140383D02*
X40776663Y-66854669D01*
X40729044Y-66997526D01*
X40633806Y-67092764D01*
X40490949Y-67140383D01*
X40395711Y-67140383D01*
X41776663Y-67140383D02*
X41205235Y-67140383D01*
X41490949Y-67140383D02*
X41490949Y-66140383D01*
X41395711Y-66283241D01*
X41300473Y-66378479D01*
X41205235Y-66426098D01*
%TO.C,U1*%
X49238092Y-40602378D02*
X49238092Y-41411902D01*
X49285711Y-41507140D01*
X49333330Y-41554759D01*
X49428568Y-41602378D01*
X49619044Y-41602378D01*
X49714282Y-41554759D01*
X49761901Y-41507140D01*
X49809520Y-41411902D01*
X49809520Y-40602378D01*
X50809520Y-41602378D02*
X50238092Y-41602378D01*
X50523806Y-41602378D02*
X50523806Y-40602378D01*
X50428568Y-40745236D01*
X50333330Y-40840474D01*
X50238092Y-40888093D01*
%TO.C,J1*%
X40776663Y-99128388D02*
X40776663Y-99842674D01*
X40729044Y-99985531D01*
X40633806Y-100080769D01*
X40490949Y-100128388D01*
X40395711Y-100128388D01*
X41776663Y-100128388D02*
X41205235Y-100128388D01*
X41490949Y-100128388D02*
X41490949Y-99128388D01*
X41395711Y-99271246D01*
X41300473Y-99366484D01*
X41205235Y-99414103D01*
%TO.C,U1*%
X76066099Y-40602378D02*
X76066099Y-41411902D01*
X76113718Y-41507140D01*
X76161337Y-41554759D01*
X76256575Y-41602378D01*
X76447051Y-41602378D01*
X76542289Y-41554759D01*
X76589908Y-41507140D01*
X76637527Y-41411902D01*
X76637527Y-40602378D01*
X77637527Y-41602378D02*
X77066099Y-41602378D01*
X77351813Y-41602378D02*
X77351813Y-40602378D01*
X77256575Y-40745236D01*
X77161337Y-40840474D01*
X77066099Y-40888093D01*
%TO.C,J2*%
X85384670Y-33152378D02*
X85384670Y-33866664D01*
X85337051Y-34009521D01*
X85241813Y-34104759D01*
X85098956Y-34152378D01*
X85003718Y-34152378D01*
X85813242Y-33247617D02*
X85860861Y-33199998D01*
X85956099Y-33152378D01*
X86194194Y-33152378D01*
X86289432Y-33199998D01*
X86337051Y-33247617D01*
X86384670Y-33342855D01*
X86384670Y-33438093D01*
X86337051Y-33580950D01*
X85765623Y-34152378D01*
X86384670Y-34152378D01*
%TO.C,J1*%
X67604670Y-33152378D02*
X67604670Y-33866664D01*
X67557051Y-34009521D01*
X67461813Y-34104759D01*
X67318956Y-34152378D01*
X67223718Y-34152378D01*
X68604670Y-34152378D02*
X68033242Y-34152378D01*
X68318956Y-34152378D02*
X68318956Y-33152378D01*
X68223718Y-33295236D01*
X68128480Y-33390474D01*
X68033242Y-33438093D01*
X67604670Y-99128388D02*
X67604670Y-99842674D01*
X67557051Y-99985531D01*
X67461813Y-100080769D01*
X67318956Y-100128388D01*
X67223718Y-100128388D01*
X68604670Y-100128388D02*
X68033242Y-100128388D01*
X68318956Y-100128388D02*
X68318956Y-99128388D01*
X68223718Y-99271246D01*
X68128480Y-99366484D01*
X68033242Y-99414103D01*
X67604670Y-66140383D02*
X67604670Y-66854669D01*
X67557051Y-66997526D01*
X67461813Y-67092764D01*
X67318956Y-67140383D01*
X67223718Y-67140383D01*
X68604670Y-67140383D02*
X68033242Y-67140383D01*
X68318956Y-67140383D02*
X68318956Y-66140383D01*
X68223718Y-66283241D01*
X68128480Y-66378479D01*
X68033242Y-66426098D01*
%TO.C,J2*%
X58556663Y-33152378D02*
X58556663Y-33866664D01*
X58509044Y-34009521D01*
X58413806Y-34104759D01*
X58270949Y-34152378D01*
X58175711Y-34152378D01*
X58985235Y-33247617D02*
X59032854Y-33199998D01*
X59128092Y-33152378D01*
X59366187Y-33152378D01*
X59461425Y-33199998D01*
X59509044Y-33247617D01*
X59556663Y-33342855D01*
X59556663Y-33438093D01*
X59509044Y-33580950D01*
X58937616Y-34152378D01*
X59556663Y-34152378D01*
%TO.C,U1*%
X49238092Y-73590383D02*
X49238092Y-74399907D01*
X49285711Y-74495145D01*
X49333330Y-74542764D01*
X49428568Y-74590383D01*
X49619044Y-74590383D01*
X49714282Y-74542764D01*
X49761901Y-74495145D01*
X49809520Y-74399907D01*
X49809520Y-73590383D01*
X50809520Y-74590383D02*
X50238092Y-74590383D01*
X50523806Y-74590383D02*
X50523806Y-73590383D01*
X50428568Y-73733241D01*
X50333330Y-73828479D01*
X50238092Y-73876098D01*
D11*
%TO.C,J2*%
X84388004Y-69018003D02*
X84388004Y-67688003D01*
X84388004Y-98288003D02*
X87048004Y-98288003D01*
X84388004Y-67688003D02*
X85718004Y-67688003D01*
X84388004Y-70288003D02*
X87048004Y-70288003D01*
X87048004Y-70288003D02*
X87048004Y-98288003D01*
X84388004Y-70288003D02*
X84388004Y-98288003D01*
%TO.C,U1*%
X76828004Y-90598003D02*
X72968004Y-90598003D01*
X76828004Y-74978003D02*
X72968004Y-74978003D01*
X76828004Y-90598003D02*
X80688004Y-90598003D01*
X72968004Y-74978003D02*
X72968004Y-75243003D01*
X72968004Y-75243003D02*
X71153004Y-75243003D01*
X72968004Y-90598003D02*
X72968004Y-90333003D01*
X76828004Y-74978003D02*
X80688004Y-74978003D01*
X80688004Y-74978003D02*
X80688004Y-75243003D01*
X80688004Y-90598003D02*
X80688004Y-90333003D01*
%TO.C,J2*%
X57559997Y-70288003D02*
X57559997Y-98288003D01*
X57559997Y-69018003D02*
X57559997Y-67688003D01*
X57559997Y-67688003D02*
X58889997Y-67688003D01*
X57559997Y-70288003D02*
X60219997Y-70288003D01*
X60219997Y-70288003D02*
X60219997Y-98288003D01*
X57559997Y-98288003D02*
X60219997Y-98288003D01*
%TO.C,U1*%
X72968004Y-108231008D02*
X71153004Y-108231008D01*
X76828004Y-123586008D02*
X72968004Y-123586008D01*
X72968004Y-123586008D02*
X72968004Y-123321008D01*
X80688004Y-123586008D02*
X80688004Y-123321008D01*
X72968004Y-107966008D02*
X72968004Y-108231008D01*
X76828004Y-107966008D02*
X72968004Y-107966008D01*
X76828004Y-107966008D02*
X80688004Y-107966008D01*
X80688004Y-107966008D02*
X80688004Y-108231008D01*
X76828004Y-123586008D02*
X80688004Y-123586008D01*
%TO.C,J1*%
X42439997Y-37299998D02*
X42439997Y-65299998D01*
X39779997Y-36029998D02*
X39779997Y-34699998D01*
X39779997Y-37299998D02*
X39779997Y-65299998D01*
X39779997Y-34699998D02*
X41109997Y-34699998D01*
X39779997Y-65299998D02*
X42439997Y-65299998D01*
X39779997Y-37299998D02*
X42439997Y-37299998D01*
%TO.C,J2*%
X84388004Y-131276008D02*
X87048004Y-131276008D01*
X84388004Y-102006008D02*
X84388004Y-100676008D01*
X84388004Y-100676008D02*
X85718004Y-100676008D01*
X84388004Y-103276008D02*
X84388004Y-131276008D01*
X87048004Y-103276008D02*
X87048004Y-131276008D01*
X84388004Y-103276008D02*
X87048004Y-103276008D01*
%TO.C,U1*%
X49999997Y-123586008D02*
X46139997Y-123586008D01*
X49999997Y-123586008D02*
X53859997Y-123586008D01*
X46139997Y-108231008D02*
X44324997Y-108231008D01*
X46139997Y-123586008D02*
X46139997Y-123321008D01*
X49999997Y-107966008D02*
X53859997Y-107966008D01*
X53859997Y-123586008D02*
X53859997Y-123321008D01*
X46139997Y-107966008D02*
X46139997Y-108231008D01*
X49999997Y-107966008D02*
X46139997Y-107966008D01*
X53859997Y-107966008D02*
X53859997Y-108231008D01*
%TO.C,J2*%
X57559997Y-103276008D02*
X60219997Y-103276008D01*
X57559997Y-102006008D02*
X57559997Y-100676008D01*
X57559997Y-131276008D02*
X60219997Y-131276008D01*
X57559997Y-100676008D02*
X58889997Y-100676008D01*
X57559997Y-103276008D02*
X57559997Y-131276008D01*
X60219997Y-103276008D02*
X60219997Y-131276008D01*
%TO.C,J1*%
X39779997Y-98288003D02*
X42439997Y-98288003D01*
X39779997Y-69018003D02*
X39779997Y-67688003D01*
X39779997Y-67688003D02*
X41109997Y-67688003D01*
X39779997Y-70288003D02*
X42439997Y-70288003D01*
X42439997Y-70288003D02*
X42439997Y-98288003D01*
X39779997Y-70288003D02*
X39779997Y-98288003D01*
%TO.C,U1*%
X49999997Y-41989998D02*
X46139997Y-41989998D01*
X46139997Y-42254998D02*
X44324997Y-42254998D01*
X46139997Y-57609998D02*
X46139997Y-57344998D01*
X49999997Y-57609998D02*
X46139997Y-57609998D01*
X49999997Y-57609998D02*
X53859997Y-57609998D01*
X53859997Y-57609998D02*
X53859997Y-57344998D01*
X49999997Y-41989998D02*
X53859997Y-41989998D01*
X53859997Y-41989998D02*
X53859997Y-42254998D01*
X46139997Y-41989998D02*
X46139997Y-42254998D01*
%TO.C,J1*%
X39779997Y-131276008D02*
X42439997Y-131276008D01*
X39779997Y-103276008D02*
X42439997Y-103276008D01*
X39779997Y-100676008D02*
X41109997Y-100676008D01*
X39779997Y-103276008D02*
X39779997Y-131276008D01*
X42439997Y-103276008D02*
X42439997Y-131276008D01*
X39779997Y-102006008D02*
X39779997Y-100676008D01*
%TO.C,U1*%
X76828004Y-41989998D02*
X80688004Y-41989998D01*
X80688004Y-57609998D02*
X80688004Y-57344998D01*
X72968004Y-57609998D02*
X72968004Y-57344998D01*
X76828004Y-57609998D02*
X72968004Y-57609998D01*
X76828004Y-41989998D02*
X72968004Y-41989998D01*
X72968004Y-41989998D02*
X72968004Y-42254998D01*
X80688004Y-41989998D02*
X80688004Y-42254998D01*
X76828004Y-57609998D02*
X80688004Y-57609998D01*
X72968004Y-42254998D02*
X71153004Y-42254998D01*
%TO.C,J2*%
X84388004Y-37299998D02*
X87048004Y-37299998D01*
X84388004Y-65299998D02*
X87048004Y-65299998D01*
X84388004Y-37299998D02*
X84388004Y-65299998D01*
X84388004Y-36029998D02*
X84388004Y-34699998D01*
X84388004Y-34699998D02*
X85718004Y-34699998D01*
X87048004Y-37299998D02*
X87048004Y-65299998D01*
%TO.C,J1*%
X66608004Y-37299998D02*
X66608004Y-65299998D01*
X66608004Y-34699998D02*
X67938004Y-34699998D01*
X66608004Y-36029998D02*
X66608004Y-34699998D01*
X66608004Y-65299998D02*
X69268004Y-65299998D01*
X69268004Y-37299998D02*
X69268004Y-65299998D01*
X66608004Y-37299998D02*
X69268004Y-37299998D01*
X66608004Y-100676008D02*
X67938004Y-100676008D01*
X66608004Y-103276008D02*
X69268004Y-103276008D01*
X66608004Y-102006008D02*
X66608004Y-100676008D01*
X66608004Y-131276008D02*
X69268004Y-131276008D01*
X69268004Y-103276008D02*
X69268004Y-131276008D01*
X66608004Y-103276008D02*
X66608004Y-131276008D01*
X66608004Y-70288003D02*
X69268004Y-70288003D01*
X69268004Y-70288003D02*
X69268004Y-98288003D01*
X66608004Y-67688003D02*
X67938004Y-67688003D01*
X66608004Y-70288003D02*
X66608004Y-98288003D01*
X66608004Y-69018003D02*
X66608004Y-67688003D01*
X66608004Y-98288003D02*
X69268004Y-98288003D01*
%TO.C,J2*%
X57559997Y-37299998D02*
X60219997Y-37299998D01*
X57559997Y-65299998D02*
X60219997Y-65299998D01*
X57559997Y-34699998D02*
X58889997Y-34699998D01*
X60219997Y-37299998D02*
X60219997Y-65299998D01*
X57559997Y-36029998D02*
X57559997Y-34699998D01*
X57559997Y-37299998D02*
X57559997Y-65299998D01*
%TO.C,U1*%
X46139997Y-75243003D02*
X44324997Y-75243003D01*
X53859997Y-90598003D02*
X53859997Y-90333003D01*
X49999997Y-74978003D02*
X46139997Y-74978003D01*
X49999997Y-90598003D02*
X46139997Y-90598003D01*
X46139997Y-90598003D02*
X46139997Y-90333003D01*
X49999997Y-74978003D02*
X53859997Y-74978003D01*
X46139997Y-74978003D02*
X46139997Y-75243003D01*
X53859997Y-74978003D02*
X53859997Y-75243003D01*
X49999997Y-90598003D02*
X53859997Y-90598003D01*
%TD*%
M02*
