%TF.GenerationSoftware,KiCad,Pcbnew,(6.0.0)*%
%TF.CreationDate,2022-01-18T21:24:02-05:00*%
%TF.ProjectId,WSOIC-24_7.5mm PANEL,57534f49-432d-4323-945f-372e356d6d20,rev?*%
%TF.SameCoordinates,Original*%
%TF.FileFunction,Copper,L1,Top*%
%TF.FilePolarity,Positive*%
%FSLAX46Y46*%
G04 Gerber Fmt 4.6, Leading zero omitted, Abs format (unit mm)*
G04 Created by KiCad (PCBNEW (6.0.0)) date 2022-01-18 21:24:02*
%MOMM*%
%LPD*%
G01*
G04 APERTURE LIST*
G04 Aperture macros list*
%AMRoundRect*
0 Rectangle with rounded corners*
0 $1 Rounding radius*
0 $2 $3 $4 $5 $6 $7 $8 $9 X,Y pos of 4 corners*
0 Add a 4 corners polygon primitive as box body*
4,1,4,$2,$3,$4,$5,$6,$7,$8,$9,$2,$3,0*
0 Add four circle primitives for the rounded corners*
1,1,$1+$1,$2,$3*
1,1,$1+$1,$4,$5*
1,1,$1+$1,$6,$7*
1,1,$1+$1,$8,$9*
0 Add four rect primitives between the rounded corners*
20,1,$1+$1,$2,$3,$4,$5,0*
20,1,$1+$1,$4,$5,$6,$7,0*
20,1,$1+$1,$6,$7,$8,$9,0*
20,1,$1+$1,$8,$9,$2,$3,0*%
G04 Aperture macros list end*
%TA.AperFunction,ComponentPad*%
%ADD10R,1.700000X1.700000*%
%TD*%
%TA.AperFunction,ComponentPad*%
%ADD11O,1.700000X1.700000*%
%TD*%
%TA.AperFunction,SMDPad,CuDef*%
%ADD12RoundRect,0.150000X-0.875000X-0.150000X0.875000X-0.150000X0.875000X0.150000X-0.875000X0.150000X0*%
%TD*%
%TA.AperFunction,Conductor*%
%ADD13C,0.250000*%
%TD*%
G04 APERTURE END LIST*
D10*
%TO.P,J2,1,Pin_1*%
%TO.N,Board_3-Net-(J2-Pad1)*%
X85718004Y-69018003D03*
D11*
%TO.P,J2,2,Pin_2*%
%TO.N,Board_3-Net-(J2-Pad2)*%
X85718004Y-71558003D03*
%TO.P,J2,3,Pin_3*%
%TO.N,Board_3-Net-(U1-Pad22)*%
X85718004Y-74098003D03*
%TO.P,J2,4,Pin_4*%
%TO.N,Board_3-Net-(U1-Pad21)*%
X85718004Y-76638003D03*
%TO.P,J2,5,Pin_5*%
%TO.N,Board_3-Net-(U1-Pad20)*%
X85718004Y-79178003D03*
%TO.P,J2,6,Pin_6*%
%TO.N,Board_3-Net-(U1-Pad19)*%
X85718004Y-81718003D03*
%TO.P,J2,7,Pin_7*%
%TO.N,Board_3-Net-(U1-Pad18)*%
X85718004Y-84258003D03*
%TO.P,J2,8,Pin_8*%
%TO.N,Board_3-Net-(U1-Pad17)*%
X85718004Y-86798003D03*
%TO.P,J2,9,Pin_9*%
%TO.N,Board_3-Net-(U1-Pad16)*%
X85718004Y-89338003D03*
%TO.P,J2,10,Pin_10*%
%TO.N,Board_3-Net-(U1-Pad15)*%
X85718004Y-91878003D03*
%TO.P,J2,11,Pin_11*%
%TO.N,Board_3-Net-(U1-Pad14)*%
X85718004Y-94418003D03*
%TO.P,J2,12,Pin_12*%
%TO.N,Board_3-Net-(U1-Pad13)*%
X85718004Y-96958003D03*
%TD*%
D12*
%TO.P,U1,1,1*%
%TO.N,Board_3-Net-(J1-Pad1)*%
X72178004Y-75803003D03*
%TO.P,U1,2,2*%
%TO.N,Board_3-Net-(J1-Pad2)*%
X72178004Y-77073003D03*
%TO.P,U1,3,3*%
%TO.N,Board_3-Net-(J1-Pad3)*%
X72178004Y-78343003D03*
%TO.P,U1,4,4*%
%TO.N,Board_3-Net-(J1-Pad4)*%
X72178004Y-79613003D03*
%TO.P,U1,5,5*%
%TO.N,Board_3-Net-(J1-Pad5)*%
X72178004Y-80883003D03*
%TO.P,U1,6,6*%
%TO.N,Board_3-Net-(J1-Pad6)*%
X72178004Y-82153003D03*
%TO.P,U1,7,7*%
%TO.N,Board_3-Net-(J1-Pad7)*%
X72178004Y-83423003D03*
%TO.P,U1,8,8*%
%TO.N,Board_3-Net-(J1-Pad8)*%
X72178004Y-84693003D03*
%TO.P,U1,9,9*%
%TO.N,Board_3-Net-(J1-Pad9)*%
X72178004Y-85963003D03*
%TO.P,U1,10,10*%
%TO.N,Board_3-Net-(J1-Pad10)*%
X72178004Y-87233003D03*
%TO.P,U1,11,11*%
%TO.N,Board_3-Net-(J1-Pad11)*%
X72178004Y-88503003D03*
%TO.P,U1,12,12*%
%TO.N,Board_3-Net-(J1-Pad12)*%
X72178004Y-89773003D03*
%TO.P,U1,13,13*%
%TO.N,Board_3-Net-(U1-Pad13)*%
X81478004Y-89773003D03*
%TO.P,U1,14,14*%
%TO.N,Board_3-Net-(U1-Pad14)*%
X81478004Y-88503003D03*
%TO.P,U1,15,15*%
%TO.N,Board_3-Net-(U1-Pad15)*%
X81478004Y-87233003D03*
%TO.P,U1,16,16*%
%TO.N,Board_3-Net-(U1-Pad16)*%
X81478004Y-85963003D03*
%TO.P,U1,17,17*%
%TO.N,Board_3-Net-(U1-Pad17)*%
X81478004Y-84693003D03*
%TO.P,U1,18,18*%
%TO.N,Board_3-Net-(U1-Pad18)*%
X81478004Y-83423003D03*
%TO.P,U1,19,19*%
%TO.N,Board_3-Net-(U1-Pad19)*%
X81478004Y-82153003D03*
%TO.P,U1,20,20*%
%TO.N,Board_3-Net-(U1-Pad20)*%
X81478004Y-80883003D03*
%TO.P,U1,21,21*%
%TO.N,Board_3-Net-(U1-Pad21)*%
X81478004Y-79613003D03*
%TO.P,U1,22,22*%
%TO.N,Board_3-Net-(U1-Pad22)*%
X81478004Y-78343003D03*
%TO.P,U1,23,23*%
%TO.N,Board_3-Net-(J2-Pad2)*%
X81478004Y-77073003D03*
%TO.P,U1,24,24*%
%TO.N,Board_3-Net-(J2-Pad1)*%
X81478004Y-75803003D03*
%TD*%
D10*
%TO.P,J2,1,Pin_1*%
%TO.N,Board_2-Net-(J2-Pad1)*%
X58889997Y-69018003D03*
D11*
%TO.P,J2,2,Pin_2*%
%TO.N,Board_2-Net-(J2-Pad2)*%
X58889997Y-71558003D03*
%TO.P,J2,3,Pin_3*%
%TO.N,Board_2-Net-(U1-Pad22)*%
X58889997Y-74098003D03*
%TO.P,J2,4,Pin_4*%
%TO.N,Board_2-Net-(U1-Pad21)*%
X58889997Y-76638003D03*
%TO.P,J2,5,Pin_5*%
%TO.N,Board_2-Net-(U1-Pad20)*%
X58889997Y-79178003D03*
%TO.P,J2,6,Pin_6*%
%TO.N,Board_2-Net-(U1-Pad19)*%
X58889997Y-81718003D03*
%TO.P,J2,7,Pin_7*%
%TO.N,Board_2-Net-(U1-Pad18)*%
X58889997Y-84258003D03*
%TO.P,J2,8,Pin_8*%
%TO.N,Board_2-Net-(U1-Pad17)*%
X58889997Y-86798003D03*
%TO.P,J2,9,Pin_9*%
%TO.N,Board_2-Net-(U1-Pad16)*%
X58889997Y-89338003D03*
%TO.P,J2,10,Pin_10*%
%TO.N,Board_2-Net-(U1-Pad15)*%
X58889997Y-91878003D03*
%TO.P,J2,11,Pin_11*%
%TO.N,Board_2-Net-(U1-Pad14)*%
X58889997Y-94418003D03*
%TO.P,J2,12,Pin_12*%
%TO.N,Board_2-Net-(U1-Pad13)*%
X58889997Y-96958003D03*
%TD*%
D12*
%TO.P,U1,1,1*%
%TO.N,Board_5-Net-(J1-Pad1)*%
X72178004Y-108791008D03*
%TO.P,U1,2,2*%
%TO.N,Board_5-Net-(J1-Pad2)*%
X72178004Y-110061008D03*
%TO.P,U1,3,3*%
%TO.N,Board_5-Net-(J1-Pad3)*%
X72178004Y-111331008D03*
%TO.P,U1,4,4*%
%TO.N,Board_5-Net-(J1-Pad4)*%
X72178004Y-112601008D03*
%TO.P,U1,5,5*%
%TO.N,Board_5-Net-(J1-Pad5)*%
X72178004Y-113871008D03*
%TO.P,U1,6,6*%
%TO.N,Board_5-Net-(J1-Pad6)*%
X72178004Y-115141008D03*
%TO.P,U1,7,7*%
%TO.N,Board_5-Net-(J1-Pad7)*%
X72178004Y-116411008D03*
%TO.P,U1,8,8*%
%TO.N,Board_5-Net-(J1-Pad8)*%
X72178004Y-117681008D03*
%TO.P,U1,9,9*%
%TO.N,Board_5-Net-(J1-Pad9)*%
X72178004Y-118951008D03*
%TO.P,U1,10,10*%
%TO.N,Board_5-Net-(J1-Pad10)*%
X72178004Y-120221008D03*
%TO.P,U1,11,11*%
%TO.N,Board_5-Net-(J1-Pad11)*%
X72178004Y-121491008D03*
%TO.P,U1,12,12*%
%TO.N,Board_5-Net-(J1-Pad12)*%
X72178004Y-122761008D03*
%TO.P,U1,13,13*%
%TO.N,Board_5-Net-(U1-Pad13)*%
X81478004Y-122761008D03*
%TO.P,U1,14,14*%
%TO.N,Board_5-Net-(U1-Pad14)*%
X81478004Y-121491008D03*
%TO.P,U1,15,15*%
%TO.N,Board_5-Net-(U1-Pad15)*%
X81478004Y-120221008D03*
%TO.P,U1,16,16*%
%TO.N,Board_5-Net-(U1-Pad16)*%
X81478004Y-118951008D03*
%TO.P,U1,17,17*%
%TO.N,Board_5-Net-(U1-Pad17)*%
X81478004Y-117681008D03*
%TO.P,U1,18,18*%
%TO.N,Board_5-Net-(U1-Pad18)*%
X81478004Y-116411008D03*
%TO.P,U1,19,19*%
%TO.N,Board_5-Net-(U1-Pad19)*%
X81478004Y-115141008D03*
%TO.P,U1,20,20*%
%TO.N,Board_5-Net-(U1-Pad20)*%
X81478004Y-113871008D03*
%TO.P,U1,21,21*%
%TO.N,Board_5-Net-(U1-Pad21)*%
X81478004Y-112601008D03*
%TO.P,U1,22,22*%
%TO.N,Board_5-Net-(U1-Pad22)*%
X81478004Y-111331008D03*
%TO.P,U1,23,23*%
%TO.N,Board_5-Net-(J2-Pad2)*%
X81478004Y-110061008D03*
%TO.P,U1,24,24*%
%TO.N,Board_5-Net-(J2-Pad1)*%
X81478004Y-108791008D03*
%TD*%
D10*
%TO.P,J1,1,Pin_1*%
%TO.N,Board_0-Net-(J1-Pad1)*%
X41109997Y-36029998D03*
D11*
%TO.P,J1,2,Pin_2*%
%TO.N,Board_0-Net-(J1-Pad2)*%
X41109997Y-38569998D03*
%TO.P,J1,3,Pin_3*%
%TO.N,Board_0-Net-(J1-Pad3)*%
X41109997Y-41109998D03*
%TO.P,J1,4,Pin_4*%
%TO.N,Board_0-Net-(J1-Pad4)*%
X41109997Y-43649998D03*
%TO.P,J1,5,Pin_5*%
%TO.N,Board_0-Net-(J1-Pad5)*%
X41109997Y-46189998D03*
%TO.P,J1,6,Pin_6*%
%TO.N,Board_0-Net-(J1-Pad6)*%
X41109997Y-48729998D03*
%TO.P,J1,7,Pin_7*%
%TO.N,Board_0-Net-(J1-Pad7)*%
X41109997Y-51269998D03*
%TO.P,J1,8,Pin_8*%
%TO.N,Board_0-Net-(J1-Pad8)*%
X41109997Y-53809998D03*
%TO.P,J1,9,Pin_9*%
%TO.N,Board_0-Net-(J1-Pad9)*%
X41109997Y-56349998D03*
%TO.P,J1,10,Pin_10*%
%TO.N,Board_0-Net-(J1-Pad10)*%
X41109997Y-58889998D03*
%TO.P,J1,11,Pin_11*%
%TO.N,Board_0-Net-(J1-Pad11)*%
X41109997Y-61429998D03*
%TO.P,J1,12,Pin_12*%
%TO.N,Board_0-Net-(J1-Pad12)*%
X41109997Y-63969998D03*
%TD*%
D10*
%TO.P,J2,1,Pin_1*%
%TO.N,Board_5-Net-(J2-Pad1)*%
X85718004Y-102006008D03*
D11*
%TO.P,J2,2,Pin_2*%
%TO.N,Board_5-Net-(J2-Pad2)*%
X85718004Y-104546008D03*
%TO.P,J2,3,Pin_3*%
%TO.N,Board_5-Net-(U1-Pad22)*%
X85718004Y-107086008D03*
%TO.P,J2,4,Pin_4*%
%TO.N,Board_5-Net-(U1-Pad21)*%
X85718004Y-109626008D03*
%TO.P,J2,5,Pin_5*%
%TO.N,Board_5-Net-(U1-Pad20)*%
X85718004Y-112166008D03*
%TO.P,J2,6,Pin_6*%
%TO.N,Board_5-Net-(U1-Pad19)*%
X85718004Y-114706008D03*
%TO.P,J2,7,Pin_7*%
%TO.N,Board_5-Net-(U1-Pad18)*%
X85718004Y-117246008D03*
%TO.P,J2,8,Pin_8*%
%TO.N,Board_5-Net-(U1-Pad17)*%
X85718004Y-119786008D03*
%TO.P,J2,9,Pin_9*%
%TO.N,Board_5-Net-(U1-Pad16)*%
X85718004Y-122326008D03*
%TO.P,J2,10,Pin_10*%
%TO.N,Board_5-Net-(U1-Pad15)*%
X85718004Y-124866008D03*
%TO.P,J2,11,Pin_11*%
%TO.N,Board_5-Net-(U1-Pad14)*%
X85718004Y-127406008D03*
%TO.P,J2,12,Pin_12*%
%TO.N,Board_5-Net-(U1-Pad13)*%
X85718004Y-129946008D03*
%TD*%
D12*
%TO.P,U1,1,1*%
%TO.N,Board_4-Net-(J1-Pad1)*%
X45349997Y-108791008D03*
%TO.P,U1,2,2*%
%TO.N,Board_4-Net-(J1-Pad2)*%
X45349997Y-110061008D03*
%TO.P,U1,3,3*%
%TO.N,Board_4-Net-(J1-Pad3)*%
X45349997Y-111331008D03*
%TO.P,U1,4,4*%
%TO.N,Board_4-Net-(J1-Pad4)*%
X45349997Y-112601008D03*
%TO.P,U1,5,5*%
%TO.N,Board_4-Net-(J1-Pad5)*%
X45349997Y-113871008D03*
%TO.P,U1,6,6*%
%TO.N,Board_4-Net-(J1-Pad6)*%
X45349997Y-115141008D03*
%TO.P,U1,7,7*%
%TO.N,Board_4-Net-(J1-Pad7)*%
X45349997Y-116411008D03*
%TO.P,U1,8,8*%
%TO.N,Board_4-Net-(J1-Pad8)*%
X45349997Y-117681008D03*
%TO.P,U1,9,9*%
%TO.N,Board_4-Net-(J1-Pad9)*%
X45349997Y-118951008D03*
%TO.P,U1,10,10*%
%TO.N,Board_4-Net-(J1-Pad10)*%
X45349997Y-120221008D03*
%TO.P,U1,11,11*%
%TO.N,Board_4-Net-(J1-Pad11)*%
X45349997Y-121491008D03*
%TO.P,U1,12,12*%
%TO.N,Board_4-Net-(J1-Pad12)*%
X45349997Y-122761008D03*
%TO.P,U1,13,13*%
%TO.N,Board_4-Net-(U1-Pad13)*%
X54649997Y-122761008D03*
%TO.P,U1,14,14*%
%TO.N,Board_4-Net-(U1-Pad14)*%
X54649997Y-121491008D03*
%TO.P,U1,15,15*%
%TO.N,Board_4-Net-(U1-Pad15)*%
X54649997Y-120221008D03*
%TO.P,U1,16,16*%
%TO.N,Board_4-Net-(U1-Pad16)*%
X54649997Y-118951008D03*
%TO.P,U1,17,17*%
%TO.N,Board_4-Net-(U1-Pad17)*%
X54649997Y-117681008D03*
%TO.P,U1,18,18*%
%TO.N,Board_4-Net-(U1-Pad18)*%
X54649997Y-116411008D03*
%TO.P,U1,19,19*%
%TO.N,Board_4-Net-(U1-Pad19)*%
X54649997Y-115141008D03*
%TO.P,U1,20,20*%
%TO.N,Board_4-Net-(U1-Pad20)*%
X54649997Y-113871008D03*
%TO.P,U1,21,21*%
%TO.N,Board_4-Net-(U1-Pad21)*%
X54649997Y-112601008D03*
%TO.P,U1,22,22*%
%TO.N,Board_4-Net-(U1-Pad22)*%
X54649997Y-111331008D03*
%TO.P,U1,23,23*%
%TO.N,Board_4-Net-(J2-Pad2)*%
X54649997Y-110061008D03*
%TO.P,U1,24,24*%
%TO.N,Board_4-Net-(J2-Pad1)*%
X54649997Y-108791008D03*
%TD*%
D10*
%TO.P,J2,1,Pin_1*%
%TO.N,Board_4-Net-(J2-Pad1)*%
X58889997Y-102006008D03*
D11*
%TO.P,J2,2,Pin_2*%
%TO.N,Board_4-Net-(J2-Pad2)*%
X58889997Y-104546008D03*
%TO.P,J2,3,Pin_3*%
%TO.N,Board_4-Net-(U1-Pad22)*%
X58889997Y-107086008D03*
%TO.P,J2,4,Pin_4*%
%TO.N,Board_4-Net-(U1-Pad21)*%
X58889997Y-109626008D03*
%TO.P,J2,5,Pin_5*%
%TO.N,Board_4-Net-(U1-Pad20)*%
X58889997Y-112166008D03*
%TO.P,J2,6,Pin_6*%
%TO.N,Board_4-Net-(U1-Pad19)*%
X58889997Y-114706008D03*
%TO.P,J2,7,Pin_7*%
%TO.N,Board_4-Net-(U1-Pad18)*%
X58889997Y-117246008D03*
%TO.P,J2,8,Pin_8*%
%TO.N,Board_4-Net-(U1-Pad17)*%
X58889997Y-119786008D03*
%TO.P,J2,9,Pin_9*%
%TO.N,Board_4-Net-(U1-Pad16)*%
X58889997Y-122326008D03*
%TO.P,J2,10,Pin_10*%
%TO.N,Board_4-Net-(U1-Pad15)*%
X58889997Y-124866008D03*
%TO.P,J2,11,Pin_11*%
%TO.N,Board_4-Net-(U1-Pad14)*%
X58889997Y-127406008D03*
%TO.P,J2,12,Pin_12*%
%TO.N,Board_4-Net-(U1-Pad13)*%
X58889997Y-129946008D03*
%TD*%
D10*
%TO.P,J1,1,Pin_1*%
%TO.N,Board_2-Net-(J1-Pad1)*%
X41109997Y-69018003D03*
D11*
%TO.P,J1,2,Pin_2*%
%TO.N,Board_2-Net-(J1-Pad2)*%
X41109997Y-71558003D03*
%TO.P,J1,3,Pin_3*%
%TO.N,Board_2-Net-(J1-Pad3)*%
X41109997Y-74098003D03*
%TO.P,J1,4,Pin_4*%
%TO.N,Board_2-Net-(J1-Pad4)*%
X41109997Y-76638003D03*
%TO.P,J1,5,Pin_5*%
%TO.N,Board_2-Net-(J1-Pad5)*%
X41109997Y-79178003D03*
%TO.P,J1,6,Pin_6*%
%TO.N,Board_2-Net-(J1-Pad6)*%
X41109997Y-81718003D03*
%TO.P,J1,7,Pin_7*%
%TO.N,Board_2-Net-(J1-Pad7)*%
X41109997Y-84258003D03*
%TO.P,J1,8,Pin_8*%
%TO.N,Board_2-Net-(J1-Pad8)*%
X41109997Y-86798003D03*
%TO.P,J1,9,Pin_9*%
%TO.N,Board_2-Net-(J1-Pad9)*%
X41109997Y-89338003D03*
%TO.P,J1,10,Pin_10*%
%TO.N,Board_2-Net-(J1-Pad10)*%
X41109997Y-91878003D03*
%TO.P,J1,11,Pin_11*%
%TO.N,Board_2-Net-(J1-Pad11)*%
X41109997Y-94418003D03*
%TO.P,J1,12,Pin_12*%
%TO.N,Board_2-Net-(J1-Pad12)*%
X41109997Y-96958003D03*
%TD*%
D12*
%TO.P,U1,1,1*%
%TO.N,Board_0-Net-(J1-Pad1)*%
X45349997Y-42814998D03*
%TO.P,U1,2,2*%
%TO.N,Board_0-Net-(J1-Pad2)*%
X45349997Y-44084998D03*
%TO.P,U1,3,3*%
%TO.N,Board_0-Net-(J1-Pad3)*%
X45349997Y-45354998D03*
%TO.P,U1,4,4*%
%TO.N,Board_0-Net-(J1-Pad4)*%
X45349997Y-46624998D03*
%TO.P,U1,5,5*%
%TO.N,Board_0-Net-(J1-Pad5)*%
X45349997Y-47894998D03*
%TO.P,U1,6,6*%
%TO.N,Board_0-Net-(J1-Pad6)*%
X45349997Y-49164998D03*
%TO.P,U1,7,7*%
%TO.N,Board_0-Net-(J1-Pad7)*%
X45349997Y-50434998D03*
%TO.P,U1,8,8*%
%TO.N,Board_0-Net-(J1-Pad8)*%
X45349997Y-51704998D03*
%TO.P,U1,9,9*%
%TO.N,Board_0-Net-(J1-Pad9)*%
X45349997Y-52974998D03*
%TO.P,U1,10,10*%
%TO.N,Board_0-Net-(J1-Pad10)*%
X45349997Y-54244998D03*
%TO.P,U1,11,11*%
%TO.N,Board_0-Net-(J1-Pad11)*%
X45349997Y-55514998D03*
%TO.P,U1,12,12*%
%TO.N,Board_0-Net-(J1-Pad12)*%
X45349997Y-56784998D03*
%TO.P,U1,13,13*%
%TO.N,Board_0-Net-(U1-Pad13)*%
X54649997Y-56784998D03*
%TO.P,U1,14,14*%
%TO.N,Board_0-Net-(U1-Pad14)*%
X54649997Y-55514998D03*
%TO.P,U1,15,15*%
%TO.N,Board_0-Net-(U1-Pad15)*%
X54649997Y-54244998D03*
%TO.P,U1,16,16*%
%TO.N,Board_0-Net-(U1-Pad16)*%
X54649997Y-52974998D03*
%TO.P,U1,17,17*%
%TO.N,Board_0-Net-(U1-Pad17)*%
X54649997Y-51704998D03*
%TO.P,U1,18,18*%
%TO.N,Board_0-Net-(U1-Pad18)*%
X54649997Y-50434998D03*
%TO.P,U1,19,19*%
%TO.N,Board_0-Net-(U1-Pad19)*%
X54649997Y-49164998D03*
%TO.P,U1,20,20*%
%TO.N,Board_0-Net-(U1-Pad20)*%
X54649997Y-47894998D03*
%TO.P,U1,21,21*%
%TO.N,Board_0-Net-(U1-Pad21)*%
X54649997Y-46624998D03*
%TO.P,U1,22,22*%
%TO.N,Board_0-Net-(U1-Pad22)*%
X54649997Y-45354998D03*
%TO.P,U1,23,23*%
%TO.N,Board_0-Net-(J2-Pad2)*%
X54649997Y-44084998D03*
%TO.P,U1,24,24*%
%TO.N,Board_0-Net-(J2-Pad1)*%
X54649997Y-42814998D03*
%TD*%
D10*
%TO.P,J1,1,Pin_1*%
%TO.N,Board_4-Net-(J1-Pad1)*%
X41109997Y-102006008D03*
D11*
%TO.P,J1,2,Pin_2*%
%TO.N,Board_4-Net-(J1-Pad2)*%
X41109997Y-104546008D03*
%TO.P,J1,3,Pin_3*%
%TO.N,Board_4-Net-(J1-Pad3)*%
X41109997Y-107086008D03*
%TO.P,J1,4,Pin_4*%
%TO.N,Board_4-Net-(J1-Pad4)*%
X41109997Y-109626008D03*
%TO.P,J1,5,Pin_5*%
%TO.N,Board_4-Net-(J1-Pad5)*%
X41109997Y-112166008D03*
%TO.P,J1,6,Pin_6*%
%TO.N,Board_4-Net-(J1-Pad6)*%
X41109997Y-114706008D03*
%TO.P,J1,7,Pin_7*%
%TO.N,Board_4-Net-(J1-Pad7)*%
X41109997Y-117246008D03*
%TO.P,J1,8,Pin_8*%
%TO.N,Board_4-Net-(J1-Pad8)*%
X41109997Y-119786008D03*
%TO.P,J1,9,Pin_9*%
%TO.N,Board_4-Net-(J1-Pad9)*%
X41109997Y-122326008D03*
%TO.P,J1,10,Pin_10*%
%TO.N,Board_4-Net-(J1-Pad10)*%
X41109997Y-124866008D03*
%TO.P,J1,11,Pin_11*%
%TO.N,Board_4-Net-(J1-Pad11)*%
X41109997Y-127406008D03*
%TO.P,J1,12,Pin_12*%
%TO.N,Board_4-Net-(J1-Pad12)*%
X41109997Y-129946008D03*
%TD*%
D12*
%TO.P,U1,1,1*%
%TO.N,Board_1-Net-(J1-Pad1)*%
X72178004Y-42814998D03*
%TO.P,U1,2,2*%
%TO.N,Board_1-Net-(J1-Pad2)*%
X72178004Y-44084998D03*
%TO.P,U1,3,3*%
%TO.N,Board_1-Net-(J1-Pad3)*%
X72178004Y-45354998D03*
%TO.P,U1,4,4*%
%TO.N,Board_1-Net-(J1-Pad4)*%
X72178004Y-46624998D03*
%TO.P,U1,5,5*%
%TO.N,Board_1-Net-(J1-Pad5)*%
X72178004Y-47894998D03*
%TO.P,U1,6,6*%
%TO.N,Board_1-Net-(J1-Pad6)*%
X72178004Y-49164998D03*
%TO.P,U1,7,7*%
%TO.N,Board_1-Net-(J1-Pad7)*%
X72178004Y-50434998D03*
%TO.P,U1,8,8*%
%TO.N,Board_1-Net-(J1-Pad8)*%
X72178004Y-51704998D03*
%TO.P,U1,9,9*%
%TO.N,Board_1-Net-(J1-Pad9)*%
X72178004Y-52974998D03*
%TO.P,U1,10,10*%
%TO.N,Board_1-Net-(J1-Pad10)*%
X72178004Y-54244998D03*
%TO.P,U1,11,11*%
%TO.N,Board_1-Net-(J1-Pad11)*%
X72178004Y-55514998D03*
%TO.P,U1,12,12*%
%TO.N,Board_1-Net-(J1-Pad12)*%
X72178004Y-56784998D03*
%TO.P,U1,13,13*%
%TO.N,Board_1-Net-(U1-Pad13)*%
X81478004Y-56784998D03*
%TO.P,U1,14,14*%
%TO.N,Board_1-Net-(U1-Pad14)*%
X81478004Y-55514998D03*
%TO.P,U1,15,15*%
%TO.N,Board_1-Net-(U1-Pad15)*%
X81478004Y-54244998D03*
%TO.P,U1,16,16*%
%TO.N,Board_1-Net-(U1-Pad16)*%
X81478004Y-52974998D03*
%TO.P,U1,17,17*%
%TO.N,Board_1-Net-(U1-Pad17)*%
X81478004Y-51704998D03*
%TO.P,U1,18,18*%
%TO.N,Board_1-Net-(U1-Pad18)*%
X81478004Y-50434998D03*
%TO.P,U1,19,19*%
%TO.N,Board_1-Net-(U1-Pad19)*%
X81478004Y-49164998D03*
%TO.P,U1,20,20*%
%TO.N,Board_1-Net-(U1-Pad20)*%
X81478004Y-47894998D03*
%TO.P,U1,21,21*%
%TO.N,Board_1-Net-(U1-Pad21)*%
X81478004Y-46624998D03*
%TO.P,U1,22,22*%
%TO.N,Board_1-Net-(U1-Pad22)*%
X81478004Y-45354998D03*
%TO.P,U1,23,23*%
%TO.N,Board_1-Net-(J2-Pad2)*%
X81478004Y-44084998D03*
%TO.P,U1,24,24*%
%TO.N,Board_1-Net-(J2-Pad1)*%
X81478004Y-42814998D03*
%TD*%
D10*
%TO.P,J2,1,Pin_1*%
%TO.N,Board_1-Net-(J2-Pad1)*%
X85718004Y-36029998D03*
D11*
%TO.P,J2,2,Pin_2*%
%TO.N,Board_1-Net-(J2-Pad2)*%
X85718004Y-38569998D03*
%TO.P,J2,3,Pin_3*%
%TO.N,Board_1-Net-(U1-Pad22)*%
X85718004Y-41109998D03*
%TO.P,J2,4,Pin_4*%
%TO.N,Board_1-Net-(U1-Pad21)*%
X85718004Y-43649998D03*
%TO.P,J2,5,Pin_5*%
%TO.N,Board_1-Net-(U1-Pad20)*%
X85718004Y-46189998D03*
%TO.P,J2,6,Pin_6*%
%TO.N,Board_1-Net-(U1-Pad19)*%
X85718004Y-48729998D03*
%TO.P,J2,7,Pin_7*%
%TO.N,Board_1-Net-(U1-Pad18)*%
X85718004Y-51269998D03*
%TO.P,J2,8,Pin_8*%
%TO.N,Board_1-Net-(U1-Pad17)*%
X85718004Y-53809998D03*
%TO.P,J2,9,Pin_9*%
%TO.N,Board_1-Net-(U1-Pad16)*%
X85718004Y-56349998D03*
%TO.P,J2,10,Pin_10*%
%TO.N,Board_1-Net-(U1-Pad15)*%
X85718004Y-58889998D03*
%TO.P,J2,11,Pin_11*%
%TO.N,Board_1-Net-(U1-Pad14)*%
X85718004Y-61429998D03*
%TO.P,J2,12,Pin_12*%
%TO.N,Board_1-Net-(U1-Pad13)*%
X85718004Y-63969998D03*
%TD*%
D10*
%TO.P,J1,1,Pin_1*%
%TO.N,Board_1-Net-(J1-Pad1)*%
X67938004Y-36029998D03*
D11*
%TO.P,J1,2,Pin_2*%
%TO.N,Board_1-Net-(J1-Pad2)*%
X67938004Y-38569998D03*
%TO.P,J1,3,Pin_3*%
%TO.N,Board_1-Net-(J1-Pad3)*%
X67938004Y-41109998D03*
%TO.P,J1,4,Pin_4*%
%TO.N,Board_1-Net-(J1-Pad4)*%
X67938004Y-43649998D03*
%TO.P,J1,5,Pin_5*%
%TO.N,Board_1-Net-(J1-Pad5)*%
X67938004Y-46189998D03*
%TO.P,J1,6,Pin_6*%
%TO.N,Board_1-Net-(J1-Pad6)*%
X67938004Y-48729998D03*
%TO.P,J1,7,Pin_7*%
%TO.N,Board_1-Net-(J1-Pad7)*%
X67938004Y-51269998D03*
%TO.P,J1,8,Pin_8*%
%TO.N,Board_1-Net-(J1-Pad8)*%
X67938004Y-53809998D03*
%TO.P,J1,9,Pin_9*%
%TO.N,Board_1-Net-(J1-Pad9)*%
X67938004Y-56349998D03*
%TO.P,J1,10,Pin_10*%
%TO.N,Board_1-Net-(J1-Pad10)*%
X67938004Y-58889998D03*
%TO.P,J1,11,Pin_11*%
%TO.N,Board_1-Net-(J1-Pad11)*%
X67938004Y-61429998D03*
%TO.P,J1,12,Pin_12*%
%TO.N,Board_1-Net-(J1-Pad12)*%
X67938004Y-63969998D03*
%TD*%
D10*
%TO.P,J1,1,Pin_1*%
%TO.N,Board_5-Net-(J1-Pad1)*%
X67938004Y-102006008D03*
D11*
%TO.P,J1,2,Pin_2*%
%TO.N,Board_5-Net-(J1-Pad2)*%
X67938004Y-104546008D03*
%TO.P,J1,3,Pin_3*%
%TO.N,Board_5-Net-(J1-Pad3)*%
X67938004Y-107086008D03*
%TO.P,J1,4,Pin_4*%
%TO.N,Board_5-Net-(J1-Pad4)*%
X67938004Y-109626008D03*
%TO.P,J1,5,Pin_5*%
%TO.N,Board_5-Net-(J1-Pad5)*%
X67938004Y-112166008D03*
%TO.P,J1,6,Pin_6*%
%TO.N,Board_5-Net-(J1-Pad6)*%
X67938004Y-114706008D03*
%TO.P,J1,7,Pin_7*%
%TO.N,Board_5-Net-(J1-Pad7)*%
X67938004Y-117246008D03*
%TO.P,J1,8,Pin_8*%
%TO.N,Board_5-Net-(J1-Pad8)*%
X67938004Y-119786008D03*
%TO.P,J1,9,Pin_9*%
%TO.N,Board_5-Net-(J1-Pad9)*%
X67938004Y-122326008D03*
%TO.P,J1,10,Pin_10*%
%TO.N,Board_5-Net-(J1-Pad10)*%
X67938004Y-124866008D03*
%TO.P,J1,11,Pin_11*%
%TO.N,Board_5-Net-(J1-Pad11)*%
X67938004Y-127406008D03*
%TO.P,J1,12,Pin_12*%
%TO.N,Board_5-Net-(J1-Pad12)*%
X67938004Y-129946008D03*
%TD*%
D10*
%TO.P,J1,1,Pin_1*%
%TO.N,Board_3-Net-(J1-Pad1)*%
X67938004Y-69018003D03*
D11*
%TO.P,J1,2,Pin_2*%
%TO.N,Board_3-Net-(J1-Pad2)*%
X67938004Y-71558003D03*
%TO.P,J1,3,Pin_3*%
%TO.N,Board_3-Net-(J1-Pad3)*%
X67938004Y-74098003D03*
%TO.P,J1,4,Pin_4*%
%TO.N,Board_3-Net-(J1-Pad4)*%
X67938004Y-76638003D03*
%TO.P,J1,5,Pin_5*%
%TO.N,Board_3-Net-(J1-Pad5)*%
X67938004Y-79178003D03*
%TO.P,J1,6,Pin_6*%
%TO.N,Board_3-Net-(J1-Pad6)*%
X67938004Y-81718003D03*
%TO.P,J1,7,Pin_7*%
%TO.N,Board_3-Net-(J1-Pad7)*%
X67938004Y-84258003D03*
%TO.P,J1,8,Pin_8*%
%TO.N,Board_3-Net-(J1-Pad8)*%
X67938004Y-86798003D03*
%TO.P,J1,9,Pin_9*%
%TO.N,Board_3-Net-(J1-Pad9)*%
X67938004Y-89338003D03*
%TO.P,J1,10,Pin_10*%
%TO.N,Board_3-Net-(J1-Pad10)*%
X67938004Y-91878003D03*
%TO.P,J1,11,Pin_11*%
%TO.N,Board_3-Net-(J1-Pad11)*%
X67938004Y-94418003D03*
%TO.P,J1,12,Pin_12*%
%TO.N,Board_3-Net-(J1-Pad12)*%
X67938004Y-96958003D03*
%TD*%
D10*
%TO.P,J2,1,Pin_1*%
%TO.N,Board_0-Net-(J2-Pad1)*%
X58889997Y-36029998D03*
D11*
%TO.P,J2,2,Pin_2*%
%TO.N,Board_0-Net-(J2-Pad2)*%
X58889997Y-38569998D03*
%TO.P,J2,3,Pin_3*%
%TO.N,Board_0-Net-(U1-Pad22)*%
X58889997Y-41109998D03*
%TO.P,J2,4,Pin_4*%
%TO.N,Board_0-Net-(U1-Pad21)*%
X58889997Y-43649998D03*
%TO.P,J2,5,Pin_5*%
%TO.N,Board_0-Net-(U1-Pad20)*%
X58889997Y-46189998D03*
%TO.P,J2,6,Pin_6*%
%TO.N,Board_0-Net-(U1-Pad19)*%
X58889997Y-48729998D03*
%TO.P,J2,7,Pin_7*%
%TO.N,Board_0-Net-(U1-Pad18)*%
X58889997Y-51269998D03*
%TO.P,J2,8,Pin_8*%
%TO.N,Board_0-Net-(U1-Pad17)*%
X58889997Y-53809998D03*
%TO.P,J2,9,Pin_9*%
%TO.N,Board_0-Net-(U1-Pad16)*%
X58889997Y-56349998D03*
%TO.P,J2,10,Pin_10*%
%TO.N,Board_0-Net-(U1-Pad15)*%
X58889997Y-58889998D03*
%TO.P,J2,11,Pin_11*%
%TO.N,Board_0-Net-(U1-Pad14)*%
X58889997Y-61429998D03*
%TO.P,J2,12,Pin_12*%
%TO.N,Board_0-Net-(U1-Pad13)*%
X58889997Y-63969998D03*
%TD*%
D12*
%TO.P,U1,1,1*%
%TO.N,Board_2-Net-(J1-Pad1)*%
X45349997Y-75803003D03*
%TO.P,U1,2,2*%
%TO.N,Board_2-Net-(J1-Pad2)*%
X45349997Y-77073003D03*
%TO.P,U1,3,3*%
%TO.N,Board_2-Net-(J1-Pad3)*%
X45349997Y-78343003D03*
%TO.P,U1,4,4*%
%TO.N,Board_2-Net-(J1-Pad4)*%
X45349997Y-79613003D03*
%TO.P,U1,5,5*%
%TO.N,Board_2-Net-(J1-Pad5)*%
X45349997Y-80883003D03*
%TO.P,U1,6,6*%
%TO.N,Board_2-Net-(J1-Pad6)*%
X45349997Y-82153003D03*
%TO.P,U1,7,7*%
%TO.N,Board_2-Net-(J1-Pad7)*%
X45349997Y-83423003D03*
%TO.P,U1,8,8*%
%TO.N,Board_2-Net-(J1-Pad8)*%
X45349997Y-84693003D03*
%TO.P,U1,9,9*%
%TO.N,Board_2-Net-(J1-Pad9)*%
X45349997Y-85963003D03*
%TO.P,U1,10,10*%
%TO.N,Board_2-Net-(J1-Pad10)*%
X45349997Y-87233003D03*
%TO.P,U1,11,11*%
%TO.N,Board_2-Net-(J1-Pad11)*%
X45349997Y-88503003D03*
%TO.P,U1,12,12*%
%TO.N,Board_2-Net-(J1-Pad12)*%
X45349997Y-89773003D03*
%TO.P,U1,13,13*%
%TO.N,Board_2-Net-(U1-Pad13)*%
X54649997Y-89773003D03*
%TO.P,U1,14,14*%
%TO.N,Board_2-Net-(U1-Pad14)*%
X54649997Y-88503003D03*
%TO.P,U1,15,15*%
%TO.N,Board_2-Net-(U1-Pad15)*%
X54649997Y-87233003D03*
%TO.P,U1,16,16*%
%TO.N,Board_2-Net-(U1-Pad16)*%
X54649997Y-85963003D03*
%TO.P,U1,17,17*%
%TO.N,Board_2-Net-(U1-Pad17)*%
X54649997Y-84693003D03*
%TO.P,U1,18,18*%
%TO.N,Board_2-Net-(U1-Pad18)*%
X54649997Y-83423003D03*
%TO.P,U1,19,19*%
%TO.N,Board_2-Net-(U1-Pad19)*%
X54649997Y-82153003D03*
%TO.P,U1,20,20*%
%TO.N,Board_2-Net-(U1-Pad20)*%
X54649997Y-80883003D03*
%TO.P,U1,21,21*%
%TO.N,Board_2-Net-(U1-Pad21)*%
X54649997Y-79613003D03*
%TO.P,U1,22,22*%
%TO.N,Board_2-Net-(U1-Pad22)*%
X54649997Y-78343003D03*
%TO.P,U1,23,23*%
%TO.N,Board_2-Net-(J2-Pad2)*%
X54649997Y-77073003D03*
%TO.P,U1,24,24*%
%TO.N,Board_2-Net-(J2-Pad1)*%
X54649997Y-75803003D03*
%TD*%
D13*
%TO.N,Board_5-Net-(U1-Pad22)*%
X84194004Y-107086008D02*
X85718004Y-107086008D01*
X83373524Y-107906488D02*
X84194004Y-107086008D01*
X81478004Y-111331008D02*
X81904076Y-111331008D01*
X81904076Y-111331008D02*
X83373524Y-109861560D01*
X83373524Y-109861560D02*
X83373524Y-107906488D01*
%TO.N,Board_5-Net-(U1-Pad21)*%
X82743004Y-112601008D02*
X85718004Y-109626008D01*
X81478004Y-112601008D02*
X82743004Y-112601008D01*
%TO.N,Board_5-Net-(U1-Pad20)*%
X84013004Y-113871008D02*
X85718004Y-112166008D01*
X81478004Y-113871008D02*
X84013004Y-113871008D01*
%TO.N,Board_5-Net-(U1-Pad19)*%
X81551004Y-115214008D02*
X85210004Y-115214008D01*
X81478004Y-115141008D02*
X81551004Y-115214008D01*
X85210004Y-115214008D02*
X85718004Y-114706008D01*
%TO.N,Board_5-Net-(U1-Pad18)*%
X81478004Y-116411008D02*
X84883004Y-116411008D01*
X84883004Y-116411008D02*
X85718004Y-117246008D01*
%TO.N,Board_5-Net-(U1-Pad17)*%
X83613004Y-117681008D02*
X85718004Y-119786008D01*
X81478004Y-117681008D02*
X83613004Y-117681008D01*
%TO.N,Board_5-Net-(U1-Pad16)*%
X81478004Y-118951008D02*
X82343004Y-118951008D01*
X82343004Y-118951008D02*
X85718004Y-122326008D01*
%TO.N,Board_5-Net-(U1-Pad15)*%
X84194004Y-124866008D02*
X85718004Y-124866008D01*
X81904076Y-120221008D02*
X83432004Y-121748936D01*
X83432004Y-121748936D02*
X83432004Y-124104008D01*
X81478004Y-120221008D02*
X81904076Y-120221008D01*
X83432004Y-124104008D02*
X84194004Y-124866008D01*
%TO.N,Board_5-Net-(U1-Pad14)*%
X81478004Y-121491008D02*
X81904076Y-121491008D01*
X81904076Y-121491008D02*
X82924004Y-122510936D01*
X82924004Y-124612008D02*
X85718004Y-127406008D01*
X82924004Y-122510936D02*
X82924004Y-124612008D01*
%TO.N,Board_5-Net-(U1-Pad13)*%
X81478004Y-125706008D02*
X85718004Y-129946008D01*
X81478004Y-122761008D02*
X81478004Y-125706008D01*
%TO.N,Board_5-Net-(J2-Pad2)*%
X84194004Y-104546008D02*
X85718004Y-104546008D01*
X81478004Y-110061008D02*
X81904076Y-110061008D01*
X81904076Y-110061008D02*
X82924004Y-109041080D01*
X82924004Y-109041080D02*
X82924004Y-105816008D01*
X82924004Y-105816008D02*
X84194004Y-104546008D01*
%TO.N,Board_5-Net-(J2-Pad1)*%
X81478004Y-106246008D02*
X85718004Y-102006008D01*
X81478004Y-108791008D02*
X81478004Y-106246008D01*
%TO.N,Board_5-Net-(J1-Pad9)*%
X72178004Y-118951008D02*
X71313004Y-118951008D01*
X71313004Y-118951008D02*
X67938004Y-122326008D01*
%TO.N,Board_5-Net-(J1-Pad8)*%
X70043004Y-117681008D02*
X67938004Y-119786008D01*
X72178004Y-117681008D02*
X70043004Y-117681008D01*
%TO.N,Board_5-Net-(J1-Pad7)*%
X68773004Y-116411008D02*
X67938004Y-117246008D01*
X72178004Y-116411008D02*
X68773004Y-116411008D01*
%TO.N,Board_5-Net-(J1-Pad6)*%
X72105004Y-115214008D02*
X68446004Y-115214008D01*
X72178004Y-115141008D02*
X72105004Y-115214008D01*
X68446004Y-115214008D02*
X67938004Y-114706008D01*
%TO.N,Board_5-Net-(J1-Pad5)*%
X69643004Y-113871008D02*
X67938004Y-112166008D01*
X72178004Y-113871008D02*
X69643004Y-113871008D01*
%TO.N,Board_5-Net-(J1-Pad4)*%
X70913004Y-112601008D02*
X67938004Y-109626008D01*
X72178004Y-112601008D02*
X70913004Y-112601008D01*
%TO.N,Board_5-Net-(J1-Pad3)*%
X70224004Y-109803080D02*
X70224004Y-107848008D01*
X71751932Y-111331008D02*
X70224004Y-109803080D01*
X72178004Y-111331008D02*
X71751932Y-111331008D01*
X70224004Y-107848008D02*
X69462004Y-107086008D01*
X69462004Y-107086008D02*
X67938004Y-107086008D01*
%TO.N,Board_5-Net-(J1-Pad2)*%
X72178004Y-110061008D02*
X71751932Y-110061008D01*
X70732004Y-105816008D02*
X69462004Y-104546008D01*
X70732004Y-109041080D02*
X70732004Y-105816008D01*
X71751932Y-110061008D02*
X70732004Y-109041080D01*
X69462004Y-104546008D02*
X67938004Y-104546008D01*
%TO.N,Board_5-Net-(J1-Pad12)*%
X72178004Y-122761008D02*
X72178004Y-125706008D01*
X72178004Y-125706008D02*
X67938004Y-129946008D01*
%TO.N,Board_5-Net-(J1-Pad11)*%
X71751932Y-121491008D02*
X70673524Y-122569416D01*
X70673524Y-124670488D02*
X67938004Y-127406008D01*
X70673524Y-122569416D02*
X70673524Y-124670488D01*
X72178004Y-121491008D02*
X71751932Y-121491008D01*
%TO.N,Board_5-Net-(J1-Pad10)*%
X71751932Y-120221008D02*
X70224004Y-121748936D01*
X70224004Y-121748936D02*
X70224004Y-124104008D01*
X69462004Y-124866008D02*
X67938004Y-124866008D01*
X72178004Y-120221008D02*
X71751932Y-120221008D01*
X70224004Y-124104008D02*
X69462004Y-124866008D01*
%TO.N,Board_5-Net-(J1-Pad1)*%
X72178004Y-106246008D02*
X67938004Y-102006008D01*
X72178004Y-108791008D02*
X72178004Y-106246008D01*
%TO.N,Board_4-Net-(U1-Pad22)*%
X57365997Y-107086008D02*
X58889997Y-107086008D01*
X56545517Y-107906488D02*
X57365997Y-107086008D01*
X54649997Y-111331008D02*
X55076069Y-111331008D01*
X55076069Y-111331008D02*
X56545517Y-109861560D01*
X56545517Y-109861560D02*
X56545517Y-107906488D01*
%TO.N,Board_4-Net-(U1-Pad21)*%
X55914997Y-112601008D02*
X58889997Y-109626008D01*
X54649997Y-112601008D02*
X55914997Y-112601008D01*
%TO.N,Board_4-Net-(U1-Pad20)*%
X57184997Y-113871008D02*
X58889997Y-112166008D01*
X54649997Y-113871008D02*
X57184997Y-113871008D01*
%TO.N,Board_4-Net-(U1-Pad19)*%
X54722997Y-115214008D02*
X58381997Y-115214008D01*
X54649997Y-115141008D02*
X54722997Y-115214008D01*
X58381997Y-115214008D02*
X58889997Y-114706008D01*
%TO.N,Board_4-Net-(U1-Pad18)*%
X54649997Y-116411008D02*
X58054997Y-116411008D01*
X58054997Y-116411008D02*
X58889997Y-117246008D01*
%TO.N,Board_4-Net-(U1-Pad17)*%
X56784997Y-117681008D02*
X58889997Y-119786008D01*
X54649997Y-117681008D02*
X56784997Y-117681008D01*
%TO.N,Board_4-Net-(U1-Pad16)*%
X54649997Y-118951008D02*
X55514997Y-118951008D01*
X55514997Y-118951008D02*
X58889997Y-122326008D01*
%TO.N,Board_4-Net-(U1-Pad15)*%
X57365997Y-124866008D02*
X58889997Y-124866008D01*
X55076069Y-120221008D02*
X56603997Y-121748936D01*
X56603997Y-121748936D02*
X56603997Y-124104008D01*
X54649997Y-120221008D02*
X55076069Y-120221008D01*
X56603997Y-124104008D02*
X57365997Y-124866008D01*
%TO.N,Board_4-Net-(U1-Pad14)*%
X54649997Y-121491008D02*
X55076069Y-121491008D01*
X55076069Y-121491008D02*
X56095997Y-122510936D01*
X56095997Y-124612008D02*
X58889997Y-127406008D01*
X56095997Y-122510936D02*
X56095997Y-124612008D01*
%TO.N,Board_4-Net-(U1-Pad13)*%
X54649997Y-125706008D02*
X58889997Y-129946008D01*
X54649997Y-122761008D02*
X54649997Y-125706008D01*
%TO.N,Board_4-Net-(J2-Pad2)*%
X57365997Y-104546008D02*
X58889997Y-104546008D01*
X54649997Y-110061008D02*
X55076069Y-110061008D01*
X55076069Y-110061008D02*
X56095997Y-109041080D01*
X56095997Y-109041080D02*
X56095997Y-105816008D01*
X56095997Y-105816008D02*
X57365997Y-104546008D01*
%TO.N,Board_4-Net-(J2-Pad1)*%
X54649997Y-106246008D02*
X58889997Y-102006008D01*
X54649997Y-108791008D02*
X54649997Y-106246008D01*
%TO.N,Board_4-Net-(J1-Pad9)*%
X45349997Y-118951008D02*
X44484997Y-118951008D01*
X44484997Y-118951008D02*
X41109997Y-122326008D01*
%TO.N,Board_4-Net-(J1-Pad8)*%
X43214997Y-117681008D02*
X41109997Y-119786008D01*
X45349997Y-117681008D02*
X43214997Y-117681008D01*
%TO.N,Board_4-Net-(J1-Pad7)*%
X41944997Y-116411008D02*
X41109997Y-117246008D01*
X45349997Y-116411008D02*
X41944997Y-116411008D01*
%TO.N,Board_4-Net-(J1-Pad6)*%
X45276997Y-115214008D02*
X41617997Y-115214008D01*
X45349997Y-115141008D02*
X45276997Y-115214008D01*
X41617997Y-115214008D02*
X41109997Y-114706008D01*
%TO.N,Board_4-Net-(J1-Pad5)*%
X42814997Y-113871008D02*
X41109997Y-112166008D01*
X45349997Y-113871008D02*
X42814997Y-113871008D01*
%TO.N,Board_4-Net-(J1-Pad4)*%
X44084997Y-112601008D02*
X41109997Y-109626008D01*
X45349997Y-112601008D02*
X44084997Y-112601008D01*
%TO.N,Board_4-Net-(J1-Pad3)*%
X43395997Y-109803080D02*
X43395997Y-107848008D01*
X44923925Y-111331008D02*
X43395997Y-109803080D01*
X45349997Y-111331008D02*
X44923925Y-111331008D01*
X43395997Y-107848008D02*
X42633997Y-107086008D01*
X42633997Y-107086008D02*
X41109997Y-107086008D01*
%TO.N,Board_4-Net-(J1-Pad2)*%
X45349997Y-110061008D02*
X44923925Y-110061008D01*
X43903997Y-105816008D02*
X42633997Y-104546008D01*
X43903997Y-109041080D02*
X43903997Y-105816008D01*
X44923925Y-110061008D02*
X43903997Y-109041080D01*
X42633997Y-104546008D02*
X41109997Y-104546008D01*
%TO.N,Board_4-Net-(J1-Pad12)*%
X45349997Y-122761008D02*
X45349997Y-125706008D01*
X45349997Y-125706008D02*
X41109997Y-129946008D01*
%TO.N,Board_4-Net-(J1-Pad11)*%
X44923925Y-121491008D02*
X43845517Y-122569416D01*
X43845517Y-124670488D02*
X41109997Y-127406008D01*
X43845517Y-122569416D02*
X43845517Y-124670488D01*
X45349997Y-121491008D02*
X44923925Y-121491008D01*
%TO.N,Board_4-Net-(J1-Pad10)*%
X44923925Y-120221008D02*
X43395997Y-121748936D01*
X43395997Y-121748936D02*
X43395997Y-124104008D01*
X42633997Y-124866008D02*
X41109997Y-124866008D01*
X45349997Y-120221008D02*
X44923925Y-120221008D01*
X43395997Y-124104008D02*
X42633997Y-124866008D01*
%TO.N,Board_4-Net-(J1-Pad1)*%
X45349997Y-106246008D02*
X41109997Y-102006008D01*
X45349997Y-108791008D02*
X45349997Y-106246008D01*
%TO.N,Board_3-Net-(U1-Pad22)*%
X84194004Y-74098003D02*
X85718004Y-74098003D01*
X83373524Y-74918483D02*
X84194004Y-74098003D01*
X81478004Y-78343003D02*
X81904076Y-78343003D01*
X81904076Y-78343003D02*
X83373524Y-76873555D01*
X83373524Y-76873555D02*
X83373524Y-74918483D01*
%TO.N,Board_3-Net-(U1-Pad21)*%
X82743004Y-79613003D02*
X85718004Y-76638003D01*
X81478004Y-79613003D02*
X82743004Y-79613003D01*
%TO.N,Board_3-Net-(U1-Pad20)*%
X84013004Y-80883003D02*
X85718004Y-79178003D01*
X81478004Y-80883003D02*
X84013004Y-80883003D01*
%TO.N,Board_3-Net-(U1-Pad19)*%
X81551004Y-82226003D02*
X85210004Y-82226003D01*
X81478004Y-82153003D02*
X81551004Y-82226003D01*
X85210004Y-82226003D02*
X85718004Y-81718003D01*
%TO.N,Board_3-Net-(U1-Pad18)*%
X81478004Y-83423003D02*
X84883004Y-83423003D01*
X84883004Y-83423003D02*
X85718004Y-84258003D01*
%TO.N,Board_3-Net-(U1-Pad17)*%
X83613004Y-84693003D02*
X85718004Y-86798003D01*
X81478004Y-84693003D02*
X83613004Y-84693003D01*
%TO.N,Board_3-Net-(U1-Pad16)*%
X81478004Y-85963003D02*
X82343004Y-85963003D01*
X82343004Y-85963003D02*
X85718004Y-89338003D01*
%TO.N,Board_3-Net-(U1-Pad15)*%
X84194004Y-91878003D02*
X85718004Y-91878003D01*
X81904076Y-87233003D02*
X83432004Y-88760931D01*
X83432004Y-88760931D02*
X83432004Y-91116003D01*
X81478004Y-87233003D02*
X81904076Y-87233003D01*
X83432004Y-91116003D02*
X84194004Y-91878003D01*
%TO.N,Board_3-Net-(U1-Pad14)*%
X81478004Y-88503003D02*
X81904076Y-88503003D01*
X81904076Y-88503003D02*
X82924004Y-89522931D01*
X82924004Y-91624003D02*
X85718004Y-94418003D01*
X82924004Y-89522931D02*
X82924004Y-91624003D01*
%TO.N,Board_3-Net-(U1-Pad13)*%
X81478004Y-92718003D02*
X85718004Y-96958003D01*
X81478004Y-89773003D02*
X81478004Y-92718003D01*
%TO.N,Board_3-Net-(J2-Pad2)*%
X84194004Y-71558003D02*
X85718004Y-71558003D01*
X81478004Y-77073003D02*
X81904076Y-77073003D01*
X81904076Y-77073003D02*
X82924004Y-76053075D01*
X82924004Y-76053075D02*
X82924004Y-72828003D01*
X82924004Y-72828003D02*
X84194004Y-71558003D01*
%TO.N,Board_3-Net-(J2-Pad1)*%
X81478004Y-73258003D02*
X85718004Y-69018003D01*
X81478004Y-75803003D02*
X81478004Y-73258003D01*
%TO.N,Board_3-Net-(J1-Pad9)*%
X72178004Y-85963003D02*
X71313004Y-85963003D01*
X71313004Y-85963003D02*
X67938004Y-89338003D01*
%TO.N,Board_3-Net-(J1-Pad8)*%
X70043004Y-84693003D02*
X67938004Y-86798003D01*
X72178004Y-84693003D02*
X70043004Y-84693003D01*
%TO.N,Board_3-Net-(J1-Pad7)*%
X68773004Y-83423003D02*
X67938004Y-84258003D01*
X72178004Y-83423003D02*
X68773004Y-83423003D01*
%TO.N,Board_3-Net-(J1-Pad6)*%
X72105004Y-82226003D02*
X68446004Y-82226003D01*
X72178004Y-82153003D02*
X72105004Y-82226003D01*
X68446004Y-82226003D02*
X67938004Y-81718003D01*
%TO.N,Board_3-Net-(J1-Pad5)*%
X69643004Y-80883003D02*
X67938004Y-79178003D01*
X72178004Y-80883003D02*
X69643004Y-80883003D01*
%TO.N,Board_3-Net-(J1-Pad4)*%
X70913004Y-79613003D02*
X67938004Y-76638003D01*
X72178004Y-79613003D02*
X70913004Y-79613003D01*
%TO.N,Board_3-Net-(J1-Pad3)*%
X70224004Y-76815075D02*
X70224004Y-74860003D01*
X71751932Y-78343003D02*
X70224004Y-76815075D01*
X72178004Y-78343003D02*
X71751932Y-78343003D01*
X70224004Y-74860003D02*
X69462004Y-74098003D01*
X69462004Y-74098003D02*
X67938004Y-74098003D01*
%TO.N,Board_3-Net-(J1-Pad2)*%
X72178004Y-77073003D02*
X71751932Y-77073003D01*
X70732004Y-72828003D02*
X69462004Y-71558003D01*
X70732004Y-76053075D02*
X70732004Y-72828003D01*
X71751932Y-77073003D02*
X70732004Y-76053075D01*
X69462004Y-71558003D02*
X67938004Y-71558003D01*
%TO.N,Board_3-Net-(J1-Pad12)*%
X72178004Y-89773003D02*
X72178004Y-92718003D01*
X72178004Y-92718003D02*
X67938004Y-96958003D01*
%TO.N,Board_3-Net-(J1-Pad11)*%
X71751932Y-88503003D02*
X70673524Y-89581411D01*
X70673524Y-91682483D02*
X67938004Y-94418003D01*
X70673524Y-89581411D02*
X70673524Y-91682483D01*
X72178004Y-88503003D02*
X71751932Y-88503003D01*
%TO.N,Board_3-Net-(J1-Pad10)*%
X71751932Y-87233003D02*
X70224004Y-88760931D01*
X70224004Y-88760931D02*
X70224004Y-91116003D01*
X69462004Y-91878003D02*
X67938004Y-91878003D01*
X72178004Y-87233003D02*
X71751932Y-87233003D01*
X70224004Y-91116003D02*
X69462004Y-91878003D01*
%TO.N,Board_3-Net-(J1-Pad1)*%
X72178004Y-73258003D02*
X67938004Y-69018003D01*
X72178004Y-75803003D02*
X72178004Y-73258003D01*
%TO.N,Board_2-Net-(U1-Pad22)*%
X57365997Y-74098003D02*
X58889997Y-74098003D01*
X56545517Y-74918483D02*
X57365997Y-74098003D01*
X54649997Y-78343003D02*
X55076069Y-78343003D01*
X55076069Y-78343003D02*
X56545517Y-76873555D01*
X56545517Y-76873555D02*
X56545517Y-74918483D01*
%TO.N,Board_2-Net-(U1-Pad21)*%
X55914997Y-79613003D02*
X58889997Y-76638003D01*
X54649997Y-79613003D02*
X55914997Y-79613003D01*
%TO.N,Board_2-Net-(U1-Pad20)*%
X57184997Y-80883003D02*
X58889997Y-79178003D01*
X54649997Y-80883003D02*
X57184997Y-80883003D01*
%TO.N,Board_2-Net-(U1-Pad19)*%
X54722997Y-82226003D02*
X58381997Y-82226003D01*
X54649997Y-82153003D02*
X54722997Y-82226003D01*
X58381997Y-82226003D02*
X58889997Y-81718003D01*
%TO.N,Board_2-Net-(U1-Pad18)*%
X54649997Y-83423003D02*
X58054997Y-83423003D01*
X58054997Y-83423003D02*
X58889997Y-84258003D01*
%TO.N,Board_2-Net-(U1-Pad17)*%
X56784997Y-84693003D02*
X58889997Y-86798003D01*
X54649997Y-84693003D02*
X56784997Y-84693003D01*
%TO.N,Board_2-Net-(U1-Pad16)*%
X54649997Y-85963003D02*
X55514997Y-85963003D01*
X55514997Y-85963003D02*
X58889997Y-89338003D01*
%TO.N,Board_2-Net-(U1-Pad15)*%
X57365997Y-91878003D02*
X58889997Y-91878003D01*
X55076069Y-87233003D02*
X56603997Y-88760931D01*
X56603997Y-88760931D02*
X56603997Y-91116003D01*
X54649997Y-87233003D02*
X55076069Y-87233003D01*
X56603997Y-91116003D02*
X57365997Y-91878003D01*
%TO.N,Board_2-Net-(U1-Pad14)*%
X54649997Y-88503003D02*
X55076069Y-88503003D01*
X55076069Y-88503003D02*
X56095997Y-89522931D01*
X56095997Y-91624003D02*
X58889997Y-94418003D01*
X56095997Y-89522931D02*
X56095997Y-91624003D01*
%TO.N,Board_2-Net-(U1-Pad13)*%
X54649997Y-92718003D02*
X58889997Y-96958003D01*
X54649997Y-89773003D02*
X54649997Y-92718003D01*
%TO.N,Board_2-Net-(J2-Pad2)*%
X57365997Y-71558003D02*
X58889997Y-71558003D01*
X54649997Y-77073003D02*
X55076069Y-77073003D01*
X55076069Y-77073003D02*
X56095997Y-76053075D01*
X56095997Y-76053075D02*
X56095997Y-72828003D01*
X56095997Y-72828003D02*
X57365997Y-71558003D01*
%TO.N,Board_2-Net-(J2-Pad1)*%
X54649997Y-73258003D02*
X58889997Y-69018003D01*
X54649997Y-75803003D02*
X54649997Y-73258003D01*
%TO.N,Board_2-Net-(J1-Pad9)*%
X45349997Y-85963003D02*
X44484997Y-85963003D01*
X44484997Y-85963003D02*
X41109997Y-89338003D01*
%TO.N,Board_2-Net-(J1-Pad8)*%
X43214997Y-84693003D02*
X41109997Y-86798003D01*
X45349997Y-84693003D02*
X43214997Y-84693003D01*
%TO.N,Board_2-Net-(J1-Pad7)*%
X41944997Y-83423003D02*
X41109997Y-84258003D01*
X45349997Y-83423003D02*
X41944997Y-83423003D01*
%TO.N,Board_2-Net-(J1-Pad6)*%
X45276997Y-82226003D02*
X41617997Y-82226003D01*
X45349997Y-82153003D02*
X45276997Y-82226003D01*
X41617997Y-82226003D02*
X41109997Y-81718003D01*
%TO.N,Board_2-Net-(J1-Pad5)*%
X42814997Y-80883003D02*
X41109997Y-79178003D01*
X45349997Y-80883003D02*
X42814997Y-80883003D01*
%TO.N,Board_2-Net-(J1-Pad4)*%
X44084997Y-79613003D02*
X41109997Y-76638003D01*
X45349997Y-79613003D02*
X44084997Y-79613003D01*
%TO.N,Board_2-Net-(J1-Pad3)*%
X43395997Y-76815075D02*
X43395997Y-74860003D01*
X44923925Y-78343003D02*
X43395997Y-76815075D01*
X45349997Y-78343003D02*
X44923925Y-78343003D01*
X43395997Y-74860003D02*
X42633997Y-74098003D01*
X42633997Y-74098003D02*
X41109997Y-74098003D01*
%TO.N,Board_2-Net-(J1-Pad2)*%
X45349997Y-77073003D02*
X44923925Y-77073003D01*
X43903997Y-72828003D02*
X42633997Y-71558003D01*
X43903997Y-76053075D02*
X43903997Y-72828003D01*
X44923925Y-77073003D02*
X43903997Y-76053075D01*
X42633997Y-71558003D02*
X41109997Y-71558003D01*
%TO.N,Board_2-Net-(J1-Pad12)*%
X45349997Y-89773003D02*
X45349997Y-92718003D01*
X45349997Y-92718003D02*
X41109997Y-96958003D01*
%TO.N,Board_2-Net-(J1-Pad11)*%
X44923925Y-88503003D02*
X43845517Y-89581411D01*
X43845517Y-91682483D02*
X41109997Y-94418003D01*
X43845517Y-89581411D02*
X43845517Y-91682483D01*
X45349997Y-88503003D02*
X44923925Y-88503003D01*
%TO.N,Board_2-Net-(J1-Pad10)*%
X44923925Y-87233003D02*
X43395997Y-88760931D01*
X43395997Y-88760931D02*
X43395997Y-91116003D01*
X42633997Y-91878003D02*
X41109997Y-91878003D01*
X45349997Y-87233003D02*
X44923925Y-87233003D01*
X43395997Y-91116003D02*
X42633997Y-91878003D01*
%TO.N,Board_2-Net-(J1-Pad1)*%
X45349997Y-73258003D02*
X41109997Y-69018003D01*
X45349997Y-75803003D02*
X45349997Y-73258003D01*
%TO.N,Board_1-Net-(U1-Pad22)*%
X84194004Y-41109998D02*
X85718004Y-41109998D01*
X83373524Y-41930478D02*
X84194004Y-41109998D01*
X81478004Y-45354998D02*
X81904076Y-45354998D01*
X81904076Y-45354998D02*
X83373524Y-43885550D01*
X83373524Y-43885550D02*
X83373524Y-41930478D01*
%TO.N,Board_1-Net-(U1-Pad21)*%
X82743004Y-46624998D02*
X85718004Y-43649998D01*
X81478004Y-46624998D02*
X82743004Y-46624998D01*
%TO.N,Board_1-Net-(U1-Pad20)*%
X84013004Y-47894998D02*
X85718004Y-46189998D01*
X81478004Y-47894998D02*
X84013004Y-47894998D01*
%TO.N,Board_1-Net-(U1-Pad19)*%
X81551004Y-49237998D02*
X85210004Y-49237998D01*
X81478004Y-49164998D02*
X81551004Y-49237998D01*
X85210004Y-49237998D02*
X85718004Y-48729998D01*
%TO.N,Board_1-Net-(U1-Pad18)*%
X81478004Y-50434998D02*
X84883004Y-50434998D01*
X84883004Y-50434998D02*
X85718004Y-51269998D01*
%TO.N,Board_1-Net-(U1-Pad17)*%
X83613004Y-51704998D02*
X85718004Y-53809998D01*
X81478004Y-51704998D02*
X83613004Y-51704998D01*
%TO.N,Board_1-Net-(U1-Pad16)*%
X81478004Y-52974998D02*
X82343004Y-52974998D01*
X82343004Y-52974998D02*
X85718004Y-56349998D01*
%TO.N,Board_1-Net-(U1-Pad15)*%
X84194004Y-58889998D02*
X85718004Y-58889998D01*
X81904076Y-54244998D02*
X83432004Y-55772926D01*
X83432004Y-55772926D02*
X83432004Y-58127998D01*
X81478004Y-54244998D02*
X81904076Y-54244998D01*
X83432004Y-58127998D02*
X84194004Y-58889998D01*
%TO.N,Board_1-Net-(U1-Pad14)*%
X81478004Y-55514998D02*
X81904076Y-55514998D01*
X81904076Y-55514998D02*
X82924004Y-56534926D01*
X82924004Y-58635998D02*
X85718004Y-61429998D01*
X82924004Y-56534926D02*
X82924004Y-58635998D01*
%TO.N,Board_1-Net-(U1-Pad13)*%
X81478004Y-59729998D02*
X85718004Y-63969998D01*
X81478004Y-56784998D02*
X81478004Y-59729998D01*
%TO.N,Board_1-Net-(J2-Pad2)*%
X84194004Y-38569998D02*
X85718004Y-38569998D01*
X81478004Y-44084998D02*
X81904076Y-44084998D01*
X81904076Y-44084998D02*
X82924004Y-43065070D01*
X82924004Y-43065070D02*
X82924004Y-39839998D01*
X82924004Y-39839998D02*
X84194004Y-38569998D01*
%TO.N,Board_1-Net-(J2-Pad1)*%
X81478004Y-40269998D02*
X85718004Y-36029998D01*
X81478004Y-42814998D02*
X81478004Y-40269998D01*
%TO.N,Board_1-Net-(J1-Pad9)*%
X72178004Y-52974998D02*
X71313004Y-52974998D01*
X71313004Y-52974998D02*
X67938004Y-56349998D01*
%TO.N,Board_1-Net-(J1-Pad8)*%
X70043004Y-51704998D02*
X67938004Y-53809998D01*
X72178004Y-51704998D02*
X70043004Y-51704998D01*
%TO.N,Board_1-Net-(J1-Pad7)*%
X68773004Y-50434998D02*
X67938004Y-51269998D01*
X72178004Y-50434998D02*
X68773004Y-50434998D01*
%TO.N,Board_1-Net-(J1-Pad6)*%
X72105004Y-49237998D02*
X68446004Y-49237998D01*
X72178004Y-49164998D02*
X72105004Y-49237998D01*
X68446004Y-49237998D02*
X67938004Y-48729998D01*
%TO.N,Board_1-Net-(J1-Pad5)*%
X69643004Y-47894998D02*
X67938004Y-46189998D01*
X72178004Y-47894998D02*
X69643004Y-47894998D01*
%TO.N,Board_1-Net-(J1-Pad4)*%
X70913004Y-46624998D02*
X67938004Y-43649998D01*
X72178004Y-46624998D02*
X70913004Y-46624998D01*
%TO.N,Board_1-Net-(J1-Pad3)*%
X70224004Y-43827070D02*
X70224004Y-41871998D01*
X71751932Y-45354998D02*
X70224004Y-43827070D01*
X72178004Y-45354998D02*
X71751932Y-45354998D01*
X70224004Y-41871998D02*
X69462004Y-41109998D01*
X69462004Y-41109998D02*
X67938004Y-41109998D01*
%TO.N,Board_1-Net-(J1-Pad2)*%
X72178004Y-44084998D02*
X71751932Y-44084998D01*
X70732004Y-39839998D02*
X69462004Y-38569998D01*
X70732004Y-43065070D02*
X70732004Y-39839998D01*
X71751932Y-44084998D02*
X70732004Y-43065070D01*
X69462004Y-38569998D02*
X67938004Y-38569998D01*
%TO.N,Board_1-Net-(J1-Pad12)*%
X72178004Y-56784998D02*
X72178004Y-59729998D01*
X72178004Y-59729998D02*
X67938004Y-63969998D01*
%TO.N,Board_1-Net-(J1-Pad11)*%
X71751932Y-55514998D02*
X70673524Y-56593406D01*
X70673524Y-58694478D02*
X67938004Y-61429998D01*
X70673524Y-56593406D02*
X70673524Y-58694478D01*
X72178004Y-55514998D02*
X71751932Y-55514998D01*
%TO.N,Board_1-Net-(J1-Pad10)*%
X71751932Y-54244998D02*
X70224004Y-55772926D01*
X70224004Y-55772926D02*
X70224004Y-58127998D01*
X69462004Y-58889998D02*
X67938004Y-58889998D01*
X72178004Y-54244998D02*
X71751932Y-54244998D01*
X70224004Y-58127998D02*
X69462004Y-58889998D01*
%TO.N,Board_1-Net-(J1-Pad1)*%
X72178004Y-40269998D02*
X67938004Y-36029998D01*
X72178004Y-42814998D02*
X72178004Y-40269998D01*
%TO.N,Board_0-Net-(U1-Pad22)*%
X57365997Y-41109998D02*
X58889997Y-41109998D01*
X56545517Y-41930478D02*
X57365997Y-41109998D01*
X54649997Y-45354998D02*
X55076069Y-45354998D01*
X55076069Y-45354998D02*
X56545517Y-43885550D01*
X56545517Y-43885550D02*
X56545517Y-41930478D01*
%TO.N,Board_0-Net-(U1-Pad21)*%
X55914997Y-46624998D02*
X58889997Y-43649998D01*
X54649997Y-46624998D02*
X55914997Y-46624998D01*
%TO.N,Board_0-Net-(U1-Pad20)*%
X57184997Y-47894998D02*
X58889997Y-46189998D01*
X54649997Y-47894998D02*
X57184997Y-47894998D01*
%TO.N,Board_0-Net-(U1-Pad19)*%
X54722997Y-49237998D02*
X58381997Y-49237998D01*
X54649997Y-49164998D02*
X54722997Y-49237998D01*
X58381997Y-49237998D02*
X58889997Y-48729998D01*
%TO.N,Board_0-Net-(U1-Pad18)*%
X54649997Y-50434998D02*
X58054997Y-50434998D01*
X58054997Y-50434998D02*
X58889997Y-51269998D01*
%TO.N,Board_0-Net-(U1-Pad17)*%
X56784997Y-51704998D02*
X58889997Y-53809998D01*
X54649997Y-51704998D02*
X56784997Y-51704998D01*
%TO.N,Board_0-Net-(U1-Pad16)*%
X54649997Y-52974998D02*
X55514997Y-52974998D01*
X55514997Y-52974998D02*
X58889997Y-56349998D01*
%TO.N,Board_0-Net-(U1-Pad15)*%
X57365997Y-58889998D02*
X58889997Y-58889998D01*
X55076069Y-54244998D02*
X56603997Y-55772926D01*
X56603997Y-55772926D02*
X56603997Y-58127998D01*
X54649997Y-54244998D02*
X55076069Y-54244998D01*
X56603997Y-58127998D02*
X57365997Y-58889998D01*
%TO.N,Board_0-Net-(U1-Pad14)*%
X54649997Y-55514998D02*
X55076069Y-55514998D01*
X55076069Y-55514998D02*
X56095997Y-56534926D01*
X56095997Y-58635998D02*
X58889997Y-61429998D01*
X56095997Y-56534926D02*
X56095997Y-58635998D01*
%TO.N,Board_0-Net-(U1-Pad13)*%
X54649997Y-59729998D02*
X58889997Y-63969998D01*
X54649997Y-56784998D02*
X54649997Y-59729998D01*
%TO.N,Board_0-Net-(J2-Pad2)*%
X57365997Y-38569998D02*
X58889997Y-38569998D01*
X54649997Y-44084998D02*
X55076069Y-44084998D01*
X55076069Y-44084998D02*
X56095997Y-43065070D01*
X56095997Y-43065070D02*
X56095997Y-39839998D01*
X56095997Y-39839998D02*
X57365997Y-38569998D01*
%TO.N,Board_0-Net-(J2-Pad1)*%
X54649997Y-40269998D02*
X58889997Y-36029998D01*
X54649997Y-42814998D02*
X54649997Y-40269998D01*
%TO.N,Board_0-Net-(J1-Pad9)*%
X45349997Y-52974998D02*
X44484997Y-52974998D01*
X44484997Y-52974998D02*
X41109997Y-56349998D01*
%TO.N,Board_0-Net-(J1-Pad8)*%
X43214997Y-51704998D02*
X41109997Y-53809998D01*
X45349997Y-51704998D02*
X43214997Y-51704998D01*
%TO.N,Board_0-Net-(J1-Pad7)*%
X41944997Y-50434998D02*
X41109997Y-51269998D01*
X45349997Y-50434998D02*
X41944997Y-50434998D01*
%TO.N,Board_0-Net-(J1-Pad6)*%
X45276997Y-49237998D02*
X41617997Y-49237998D01*
X45349997Y-49164998D02*
X45276997Y-49237998D01*
X41617997Y-49237998D02*
X41109997Y-48729998D01*
%TO.N,Board_0-Net-(J1-Pad5)*%
X42814997Y-47894998D02*
X41109997Y-46189998D01*
X45349997Y-47894998D02*
X42814997Y-47894998D01*
%TO.N,Board_0-Net-(J1-Pad4)*%
X44084997Y-46624998D02*
X41109997Y-43649998D01*
X45349997Y-46624998D02*
X44084997Y-46624998D01*
%TO.N,Board_0-Net-(J1-Pad3)*%
X43395997Y-43827070D02*
X43395997Y-41871998D01*
X44923925Y-45354998D02*
X43395997Y-43827070D01*
X45349997Y-45354998D02*
X44923925Y-45354998D01*
X43395997Y-41871998D02*
X42633997Y-41109998D01*
X42633997Y-41109998D02*
X41109997Y-41109998D01*
%TO.N,Board_0-Net-(J1-Pad2)*%
X45349997Y-44084998D02*
X44923925Y-44084998D01*
X43903997Y-39839998D02*
X42633997Y-38569998D01*
X43903997Y-43065070D02*
X43903997Y-39839998D01*
X44923925Y-44084998D02*
X43903997Y-43065070D01*
X42633997Y-38569998D02*
X41109997Y-38569998D01*
%TO.N,Board_0-Net-(J1-Pad12)*%
X45349997Y-56784998D02*
X45349997Y-59729998D01*
X45349997Y-59729998D02*
X41109997Y-63969998D01*
%TO.N,Board_0-Net-(J1-Pad11)*%
X44923925Y-55514998D02*
X43845517Y-56593406D01*
X43845517Y-58694478D02*
X41109997Y-61429998D01*
X43845517Y-56593406D02*
X43845517Y-58694478D01*
X45349997Y-55514998D02*
X44923925Y-55514998D01*
%TO.N,Board_0-Net-(J1-Pad10)*%
X44923925Y-54244998D02*
X43395997Y-55772926D01*
X43395997Y-55772926D02*
X43395997Y-58127998D01*
X42633997Y-58889998D02*
X41109997Y-58889998D01*
X45349997Y-54244998D02*
X44923925Y-54244998D01*
X43395997Y-58127998D02*
X42633997Y-58889998D01*
%TO.N,Board_0-Net-(J1-Pad1)*%
X45349997Y-40269998D02*
X41109997Y-36029998D01*
X45349997Y-42814998D02*
X45349997Y-40269998D01*
%TD*%
M02*
