%TF.GenerationSoftware,KiCad,Pcbnew,(6.0.0)*%
%TF.CreationDate,2022-01-18T21:24:02-05:00*%
%TF.ProjectId,WSOIC-24_7.5mm PANEL,57534f49-432d-4323-945f-372e356d6d20,rev?*%
%TF.SameCoordinates,Original*%
%TF.FileFunction,Profile,NP*%
%FSLAX46Y46*%
G04 Gerber Fmt 4.6, Leading zero omitted, Abs format (unit mm)*
G04 Created by KiCad (PCBNEW (6.0.0)) date 2022-01-18 21:24:02*
%MOMM*%
%LPD*%
G01*
G04 APERTURE LIST*
%TA.AperFunction,Profile*%
%ADD10C,0.100000*%
%TD*%
G04 APERTURE END LIST*
D10*
X60412210Y-100936829D02*
X60408733Y-100910408D01*
X39773653Y-131357558D02*
X39794835Y-131373812D01*
X60359530Y-100758950D02*
X60332893Y-100712809D01*
X60359530Y-67770945D02*
X60346790Y-67747480D01*
X60113001Y-98439007D02*
X60137101Y-98427512D01*
X51499997Y-65493302D02*
X59905996Y-65494997D01*
X61910998Y-56664331D02*
X61910998Y-76321001D01*
X59909999Y-100479000D02*
X51499997Y-100479852D01*
X39587888Y-76321001D02*
X37587997Y-76321001D01*
X89240003Y-112310336D02*
X89240003Y-119639672D01*
X48499997Y-100480156D02*
X40093996Y-100481008D01*
X39962283Y-100498345D02*
X39936682Y-100505928D01*
X89240003Y-43335664D02*
X87242447Y-43335664D01*
X66411892Y-122639672D02*
X66413004Y-130962034D01*
X60414996Y-68002003D02*
X60412210Y-67948824D01*
X87240212Y-34960767D02*
X87231886Y-34908196D01*
X48499997Y-34506695D02*
X40093970Y-34504998D01*
X64912998Y-119639672D02*
X64912998Y-112310336D01*
X78326002Y-34507302D02*
X78326002Y-32506998D01*
X39962283Y-131453670D02*
X40014397Y-131464744D01*
X66622800Y-34602224D02*
X66581436Y-34635720D01*
X87199008Y-67794998D02*
X87174823Y-67747526D01*
X87241756Y-119639672D02*
X87242247Y-112310336D01*
X60381198Y-67819618D02*
X60359530Y-67770945D01*
X86813654Y-98476731D02*
X86865717Y-98465665D01*
X87241000Y-64989971D02*
X87241556Y-56664331D01*
X60414297Y-98000668D02*
X60411000Y-97969946D01*
X39588999Y-100990061D02*
X39587888Y-109310336D01*
X66622842Y-65397802D02*
X66667481Y-65426791D01*
X59959227Y-100483799D02*
X59909999Y-100479000D01*
X59959227Y-34507789D02*
X59932550Y-34505694D01*
X66581436Y-65364275D02*
X66622842Y-65397802D01*
X59909927Y-34508999D02*
X51499997Y-34507301D01*
X66895338Y-65494298D02*
X66920066Y-65491000D01*
X60137101Y-34560488D02*
X60088430Y-34538815D01*
X66510199Y-98273164D02*
X66543726Y-98314570D01*
X39734098Y-67642067D02*
X39698446Y-67681659D01*
X60414297Y-130988673D02*
X60411000Y-130959942D01*
X87054347Y-131357558D02*
X87093902Y-131321943D01*
X39962233Y-34522349D02*
X39911563Y-34538815D01*
X89240003Y-76321001D02*
X87242447Y-76321001D01*
X86891268Y-131446103D02*
X86941008Y-131427012D01*
X86734003Y-65494997D02*
X86787182Y-65492211D01*
X60088381Y-65461199D02*
X60137054Y-65439531D01*
X89240003Y-86651002D02*
X87241756Y-86651002D01*
X87011246Y-98400871D02*
X87054307Y-98369586D01*
X87011246Y-65412866D02*
X87054307Y-65381581D01*
X39667128Y-131239250D02*
X39698446Y-131282351D01*
X66739619Y-131437209D02*
X66790240Y-131453656D01*
X39862892Y-100536498D02*
X39816754Y-100563139D01*
X39591260Y-98053602D02*
X39596125Y-98079855D01*
X87129554Y-98294346D02*
X87160872Y-98251245D01*
X60412210Y-67948824D02*
X60408725Y-67922352D01*
X39682192Y-34714836D02*
X39653177Y-34759521D01*
X87174823Y-131216484D02*
X87198987Y-131169060D01*
X37587997Y-76321001D02*
X37587997Y-56664331D01*
X61910998Y-112310336D02*
X61910998Y-119639672D01*
X66419275Y-67922352D02*
X66413707Y-67975282D01*
X61910998Y-86651002D02*
X60412509Y-86651002D01*
X66430341Y-100858294D02*
X66419275Y-100910357D01*
X39587888Y-109310336D02*
X37587997Y-109310336D01*
X66495107Y-67724804D02*
X66468470Y-67770945D01*
X39698413Y-65306301D02*
X39734061Y-65345896D01*
X59932550Y-34505694D02*
X59909927Y-34508999D01*
X66919999Y-131471000D02*
X75326002Y-131471003D01*
X60359506Y-98205107D02*
X60371001Y-98181007D01*
X66868825Y-34507784D02*
X66842353Y-34511269D01*
X60284274Y-131302575D02*
X60317770Y-131261211D01*
X39640487Y-65217102D02*
X39667128Y-65263240D01*
X39640463Y-67770945D02*
X39618795Y-67819618D01*
X39667100Y-100712809D02*
X39640463Y-100758950D01*
X39862892Y-34560488D02*
X39816798Y-34587101D01*
X86891318Y-34529918D02*
X86865717Y-34522335D01*
X66622842Y-67590198D02*
X66601660Y-67606452D01*
X60205158Y-100578203D02*
X60160473Y-100549188D01*
X61910998Y-89651002D02*
X61910998Y-109310336D01*
X37587997Y-112310336D02*
X39587488Y-112310336D01*
X87242447Y-109310336D02*
X87242307Y-100963395D01*
X66562105Y-98333938D02*
X66601660Y-98369553D01*
X39596125Y-131067860D02*
X39609901Y-131119272D01*
X60183239Y-98400871D02*
X60226300Y-98369586D01*
X39962283Y-67510340D02*
X39936682Y-67517923D01*
X87145808Y-131261169D02*
X87174823Y-131216484D01*
X78326002Y-67490698D02*
X78326002Y-65493301D01*
X66562068Y-67642104D02*
X66526420Y-67681699D01*
X66411892Y-56664331D02*
X66413703Y-65012663D01*
X66468494Y-34782893D02*
X66456999Y-34806993D01*
X37587997Y-46335664D02*
X39587487Y-46335664D01*
X60390092Y-34856733D02*
X60371001Y-34806993D01*
X60414300Y-65012551D02*
X60411000Y-64989927D01*
X39585693Y-65012610D02*
X39591260Y-65065597D01*
X39587788Y-34960767D02*
X39585693Y-34987444D01*
X61910998Y-32505998D02*
X61910998Y-43335664D01*
X39839474Y-65426791D02*
X39886944Y-65450981D01*
X66921977Y-67493003D02*
X66868825Y-67495789D01*
X64912998Y-112310336D02*
X66410512Y-112310336D01*
X60160519Y-65426791D02*
X60205158Y-65397802D01*
X87243003Y-35013971D02*
X87240212Y-34960767D01*
X66446802Y-131144392D02*
X66468470Y-131193065D01*
X86813654Y-65488726D02*
X86865717Y-65477660D01*
X39698446Y-131282351D02*
X39734061Y-131321906D01*
X60397659Y-100858294D02*
X60381198Y-100807623D01*
X60011798Y-100492125D02*
X59959227Y-100483799D01*
X66410112Y-43335664D02*
X64912998Y-43335664D01*
X60397659Y-65117711D02*
X60408733Y-65065597D01*
X64912998Y-53664331D02*
X64912998Y-46335664D01*
X39734098Y-34654062D02*
X39715719Y-34673430D01*
X86988480Y-67561183D02*
X86941008Y-67536998D01*
X60063261Y-67517907D02*
X60011798Y-67504120D01*
X60265932Y-100630109D02*
X60226340Y-100594457D01*
X33586997Y-29503998D02*
X33586997Y-136472007D01*
X66667527Y-131402827D02*
X66714951Y-131426991D01*
X51499997Y-98482153D02*
X59905996Y-98483002D01*
X86988480Y-131402827D02*
X87011246Y-131388876D01*
X66415790Y-131015186D02*
X66419267Y-131041607D01*
X39618795Y-67819618D02*
X39602334Y-67870289D01*
X39586508Y-53664331D02*
X37587997Y-53664331D01*
X66468470Y-67770945D02*
X66446802Y-67819618D01*
X37587997Y-43335664D02*
X37587997Y-32505998D01*
X39628992Y-98181007D02*
X39653177Y-98228479D01*
X89240003Y-46335664D02*
X89240003Y-53664331D01*
X37587997Y-133470007D02*
X37587997Y-122639672D01*
X39591260Y-100910408D02*
X39585693Y-100963443D01*
X66409000Y-68000000D02*
X66410111Y-76321001D01*
X60359530Y-65217055D02*
X60381198Y-65168382D01*
X66526420Y-67681699D02*
X66495107Y-67724804D01*
X78326002Y-65493301D02*
X86734003Y-65494997D01*
X39609901Y-98131267D02*
X39628992Y-98181007D01*
X64912998Y-79321001D02*
X66410512Y-79321001D01*
X37587997Y-119639672D02*
X37587997Y-112310336D01*
X60370980Y-131169060D02*
X60381198Y-131144392D01*
X59959175Y-65492211D02*
X59985647Y-65488726D01*
X89240003Y-89651002D02*
X89240003Y-109310336D01*
X60408725Y-67922352D02*
X60397645Y-67870239D01*
X59985596Y-98476739D02*
X60011849Y-98471874D01*
X86760669Y-34505697D02*
X86729946Y-34508999D01*
X86734003Y-98483002D02*
X86787182Y-98480216D01*
X60205200Y-67590229D02*
X60183195Y-67575106D01*
X87129554Y-65306341D02*
X87160872Y-65263240D01*
X60408733Y-65065597D02*
X60414300Y-65012551D01*
X87187513Y-98205107D02*
X87209186Y-98156436D01*
X39753429Y-65364275D02*
X39794835Y-65397802D01*
X60411000Y-64989927D02*
X60412110Y-56664331D01*
X66868825Y-100483794D02*
X66842353Y-100487279D01*
X48499997Y-32506998D02*
X48499997Y-34506695D01*
X34585997Y-28504998D02*
X33586997Y-29503998D01*
X60332893Y-65263196D02*
X60359530Y-65217055D01*
X60226340Y-65381548D02*
X60265932Y-65345896D01*
X66430341Y-67870289D02*
X66419275Y-67922352D01*
X39667128Y-65263240D02*
X39698413Y-65306301D01*
X60317801Y-34714836D02*
X60284274Y-34673430D01*
X60332893Y-100712809D02*
X60301580Y-100669704D01*
X39936682Y-98458082D02*
X39962283Y-98465665D01*
X66842353Y-67499274D02*
X66790290Y-67510340D01*
X64912998Y-43335664D02*
X64912998Y-32505998D01*
X39734061Y-98333901D02*
X39773653Y-98369553D01*
X78326002Y-98482153D02*
X86734003Y-98483002D01*
X39585693Y-100963443D02*
X39588999Y-100990061D01*
X60246603Y-34635755D02*
X60226300Y-34618414D01*
X89240003Y-32505998D02*
X89240003Y-43335664D01*
X60137101Y-67548493D02*
X60088430Y-67526820D01*
X66446802Y-67819618D02*
X66430341Y-67870289D01*
X60265895Y-131321943D02*
X60284274Y-131302575D01*
X66468470Y-131193065D02*
X66495107Y-131239206D01*
X66868825Y-67495789D02*
X66842353Y-67499274D01*
X39936682Y-100505928D02*
X39886992Y-100525003D01*
X86813603Y-67499266D02*
X86730076Y-67489002D01*
X66790290Y-34522335D02*
X66739619Y-34538796D01*
X39667128Y-98251245D02*
X39698446Y-98294346D01*
X66437924Y-65143312D02*
X66456999Y-65193002D01*
X40067331Y-131470308D02*
X48499997Y-131471003D01*
X87199008Y-34806993D02*
X87174823Y-34759521D01*
X87231875Y-67896150D02*
X87218083Y-67844688D01*
X87241556Y-56664331D02*
X89240003Y-56664331D01*
X87174823Y-100735531D02*
X87145808Y-100690846D01*
X89240003Y-119639672D02*
X87241756Y-119639672D01*
X60413487Y-79321001D02*
X61910998Y-79321001D01*
X60246603Y-67623760D02*
X60205200Y-67590229D01*
X66644805Y-34587101D02*
X66622800Y-34602224D01*
X66526453Y-131282351D02*
X66562105Y-131321943D01*
X61910998Y-79321001D02*
X61910998Y-86651002D01*
X66842404Y-98476739D02*
X66895338Y-98482303D01*
X93241003Y-136472007D02*
X93241003Y-29503998D01*
X66419275Y-100910357D02*
X66413707Y-100963294D01*
X39698446Y-98294346D02*
X39734061Y-98333901D01*
X59985647Y-131464736D02*
X60037710Y-131453670D01*
X59910102Y-67489005D02*
X51499997Y-67490698D01*
X66468470Y-100758950D02*
X66446802Y-100807623D01*
X60183195Y-67575106D02*
X60137101Y-67548493D01*
X86865717Y-65477660D02*
X86891318Y-65470077D01*
X60284274Y-34673430D02*
X60246603Y-34635755D01*
X66410512Y-79321001D02*
X66411491Y-86651002D01*
X66419267Y-131041607D02*
X66430341Y-131093721D01*
X61910998Y-53664331D02*
X60412510Y-53664331D01*
X66415790Y-98027181D02*
X66419275Y-98053653D01*
X39609901Y-34856733D02*
X39596125Y-34908145D01*
X87241756Y-86651002D02*
X87242247Y-79321001D01*
X66622842Y-100578203D02*
X66601660Y-100594457D01*
X89240003Y-56664331D02*
X89240003Y-76321001D01*
X39839520Y-131402827D02*
X39886944Y-131426991D01*
X48499997Y-133469007D02*
X51499997Y-133469007D01*
X66413703Y-65012663D02*
X66419267Y-65065597D01*
X60284274Y-67661435D02*
X60246603Y-67623760D01*
X66816202Y-131459890D02*
X66868773Y-131468216D01*
X60412109Y-89651002D02*
X61910998Y-89651002D01*
X60412205Y-34960767D02*
X60403868Y-34908145D01*
X60408733Y-98053602D02*
X60414297Y-98000668D01*
X66601700Y-131357591D02*
X66644761Y-131388876D01*
X51499997Y-32506998D02*
X48499997Y-32506998D01*
X60371001Y-98181007D02*
X60390076Y-98131317D01*
X40014397Y-131464744D02*
X40067331Y-131470308D01*
X61910998Y-119639672D02*
X60412509Y-119639672D01*
X87074571Y-34635720D02*
X87033165Y-34602193D01*
X66419267Y-34934398D02*
X66413708Y-34987269D01*
X61910998Y-109310336D02*
X60413887Y-109310336D01*
X60011849Y-98471874D02*
X60063311Y-98458082D01*
X60371001Y-34806993D02*
X60346816Y-34759521D01*
X87242247Y-46335664D02*
X89240003Y-46335664D01*
X66409000Y-35010000D02*
X66410112Y-43335664D01*
X39962283Y-65477660D02*
X40014397Y-65488734D01*
X60301580Y-65306301D02*
X60332893Y-65263196D01*
X66410111Y-76321001D02*
X64912998Y-76321001D01*
X40067331Y-98482303D02*
X40090028Y-98481000D01*
X66413707Y-67975282D02*
X66409000Y-68000000D01*
X51499997Y-133469007D02*
X51499997Y-131471004D01*
X39584997Y-130962034D02*
X39587788Y-131015238D01*
X48499997Y-67491304D02*
X40093996Y-67493003D01*
X60113049Y-100525024D02*
X60088381Y-100514806D01*
X59985596Y-67499266D02*
X59932725Y-67493707D01*
X66446802Y-98156387D02*
X66468470Y-98205060D01*
X89240003Y-79321001D02*
X89240003Y-86651002D01*
X60413887Y-109310336D02*
X60414996Y-100989981D01*
X66790290Y-65477660D02*
X66842404Y-65488734D01*
X39886944Y-98438986D02*
X39936682Y-98458082D01*
X39816754Y-100563139D02*
X39773693Y-100594424D01*
X87236732Y-98053653D02*
X87242304Y-98000668D01*
X60414996Y-35013971D02*
X60412205Y-34960767D01*
X87225666Y-100858294D02*
X87218083Y-100832693D01*
X60397659Y-98105716D02*
X60408733Y-98053602D01*
X86865717Y-98465665D02*
X86891318Y-98458082D01*
X66714999Y-98439007D02*
X66764689Y-98458082D01*
X60412509Y-119639672D02*
X60413487Y-112310336D01*
X87231886Y-34908196D02*
X87218099Y-34856733D01*
X60412110Y-56664331D02*
X61910998Y-56664331D01*
X39911563Y-34538815D02*
X39862892Y-34560488D01*
X86787182Y-65492211D02*
X86813654Y-65488726D01*
X66468494Y-65217102D02*
X66495135Y-65263240D01*
X87242447Y-76321001D02*
X87242307Y-67975390D01*
X37587997Y-79321001D02*
X39587488Y-79321001D01*
X75326002Y-100480156D02*
X66922003Y-100481008D01*
X39988195Y-34516115D02*
X39962233Y-34522349D01*
X86941008Y-67536998D02*
X86891318Y-67517923D01*
X61910998Y-133470007D02*
X37587997Y-133470007D01*
X66526453Y-34693654D02*
X66510199Y-34714836D01*
X64912998Y-109310336D02*
X64912998Y-89651002D01*
X39698446Y-67681659D02*
X39667100Y-67724804D01*
X87054347Y-67606452D02*
X87011246Y-67575134D01*
X60037710Y-65477660D02*
X60088381Y-65461199D01*
X87241556Y-89651002D02*
X89240003Y-89651002D01*
X87242307Y-100963395D02*
X87236740Y-100910408D01*
X39628992Y-34806993D02*
X39609901Y-34856733D01*
X66526420Y-65306301D02*
X66562068Y-65345896D01*
X39628992Y-65193002D02*
X39640487Y-65217102D01*
X60408733Y-131041607D02*
X60414297Y-130988673D01*
X86916437Y-100514825D02*
X86891268Y-100505912D01*
X39886944Y-131426991D02*
X39936682Y-131446087D01*
X61910998Y-76321001D02*
X60413887Y-76321001D01*
X60301580Y-98294306D02*
X60332893Y-98251201D01*
X89240003Y-109310336D02*
X87242447Y-109310336D01*
X39816754Y-67575134D02*
X39773693Y-67606419D01*
X66601660Y-100594457D02*
X66562068Y-100630109D01*
X75326002Y-98481849D02*
X75326002Y-100480156D01*
X87054307Y-65381581D02*
X87093902Y-65345933D01*
X40093996Y-100481008D02*
X40040818Y-100483794D01*
X60137101Y-98427512D02*
X60183239Y-98400871D01*
X60205158Y-65397802D02*
X60226340Y-65381548D01*
X87198987Y-131169060D02*
X87218083Y-131119322D01*
X39586108Y-56664331D02*
X39585693Y-65012610D01*
X87033165Y-34602193D02*
X86988526Y-34573204D01*
X66430341Y-65117711D02*
X66437924Y-65143312D01*
X87218099Y-34856733D02*
X87199008Y-34806993D01*
X86941008Y-98439007D02*
X86988480Y-98414822D01*
X66739619Y-65461199D02*
X66790290Y-65477660D01*
X66816151Y-98471874D02*
X66842404Y-98476739D01*
X39628992Y-131169012D02*
X39653177Y-131216484D01*
X93241003Y-29503998D02*
X92242003Y-28504998D01*
X66510199Y-34714836D02*
X66495107Y-34736799D01*
X66430341Y-131093721D02*
X66446802Y-131144392D01*
X66667481Y-65426791D02*
X66714951Y-65450981D01*
X60403868Y-34908145D02*
X60390092Y-34856733D01*
X86787234Y-131468216D02*
X86839805Y-131459890D01*
X66411892Y-89651002D02*
X66413004Y-97974003D01*
X66495107Y-34736799D02*
X66468494Y-34782893D01*
X66419275Y-98053653D02*
X66430355Y-98105766D01*
X66764689Y-98458082D02*
X66816151Y-98471874D01*
X66644761Y-131388876D02*
X66667527Y-131402827D01*
X51499997Y-131471004D02*
X59905996Y-131471007D01*
X86891318Y-98458082D02*
X86941008Y-98439007D01*
X66790290Y-100498345D02*
X66739619Y-100514806D01*
X39715719Y-34673430D02*
X39682192Y-34714836D01*
X34585997Y-137471007D02*
X92242003Y-137471007D01*
X60246603Y-98352245D02*
X60284239Y-98314609D01*
X39653177Y-131216484D02*
X39667128Y-131239250D01*
X86839805Y-100492125D02*
X86787234Y-100483799D01*
X60346816Y-131216484D02*
X60370980Y-131169060D01*
X87236740Y-131041607D02*
X87242304Y-130988673D01*
X37587997Y-32505998D02*
X89240003Y-32505998D01*
X78326002Y-133469007D02*
X78326002Y-131471004D01*
X86839856Y-67504131D02*
X86813603Y-67499266D01*
X66456999Y-65193002D02*
X66468494Y-65217102D01*
X60063311Y-98458082D02*
X60113001Y-98439007D01*
X39609901Y-65143262D02*
X39628992Y-65193002D01*
X40014346Y-67499274D02*
X39962283Y-67510340D01*
X66644761Y-98400871D02*
X66667527Y-98414822D01*
X78326002Y-131471004D02*
X86734030Y-131471007D01*
X40040818Y-34507784D02*
X39988195Y-34516115D01*
X66410512Y-46335664D02*
X66411491Y-53664331D01*
X60332893Y-98251201D02*
X60359506Y-98205107D01*
X48499997Y-98481850D02*
X48499997Y-100480156D01*
X87242304Y-130988673D02*
X87241000Y-130959977D01*
X66424121Y-34908196D02*
X66419267Y-34934398D01*
X87209186Y-65168431D02*
X87225652Y-65117761D01*
X40090072Y-65491000D02*
X48499997Y-65492696D01*
X66562068Y-100630109D02*
X66526420Y-100669704D01*
X87236732Y-65065648D02*
X87242304Y-65012663D01*
X59932662Y-98482303D02*
X59985596Y-98476739D01*
X39596125Y-34908145D02*
X39587788Y-34960767D01*
X87033207Y-100578234D02*
X87011202Y-100563111D01*
X86730088Y-100479003D02*
X78326002Y-100479851D01*
X39587487Y-46335664D02*
X39586508Y-53664331D01*
X66667527Y-67561183D02*
X66622842Y-67590198D01*
X60088430Y-67526820D02*
X60063261Y-67517907D01*
X66739619Y-67526801D02*
X66714951Y-67537019D01*
X66437924Y-34856683D02*
X66424121Y-34908196D01*
X60413887Y-43335664D02*
X60414996Y-35013971D01*
X86941056Y-34549014D02*
X86891318Y-34529918D01*
X87242247Y-112310336D02*
X89240003Y-112310336D01*
X61910998Y-43335664D02*
X60413887Y-43335664D01*
X86813603Y-34511261D02*
X86760669Y-34505697D01*
X59959175Y-131468221D02*
X59985647Y-131464736D01*
X39734061Y-65345896D02*
X39753429Y-65364275D01*
X87174823Y-34759521D02*
X87160872Y-34736755D01*
X64912998Y-46335664D02*
X66410512Y-46335664D01*
X87145808Y-100690846D02*
X87112281Y-100649440D01*
X66562105Y-131321943D02*
X66601700Y-131357591D01*
X87054307Y-98369586D02*
X87093902Y-98333938D01*
X66411491Y-119639672D02*
X64912998Y-119639672D01*
X64912998Y-89651002D02*
X66411892Y-89651002D01*
X39588999Y-35010072D02*
X39587888Y-43335664D01*
X86734030Y-131471007D02*
X86787234Y-131468216D01*
X39596125Y-98079855D02*
X39609901Y-98131267D01*
X60137101Y-131415517D02*
X60183195Y-131388904D01*
X39734061Y-131321906D02*
X39773653Y-131357558D01*
X39587488Y-79321001D02*
X39586509Y-86651002D01*
X39602334Y-100858294D02*
X39591260Y-100910408D01*
X87093902Y-131321943D02*
X87129554Y-131282351D01*
X66411491Y-86651002D02*
X64912998Y-86651002D01*
X75326002Y-67491304D02*
X66921977Y-67493003D01*
X40093996Y-67493003D02*
X40040818Y-67495789D01*
X75326002Y-133469007D02*
X78326002Y-133469007D01*
X86891318Y-65470077D02*
X86941008Y-65451002D01*
X87074610Y-100611765D02*
X87033207Y-100578234D01*
X60011798Y-34516115D02*
X59959227Y-34507789D01*
X66562068Y-34654099D02*
X66526453Y-34693654D01*
X60412509Y-86651002D02*
X60413487Y-79321001D01*
X75326002Y-32506998D02*
X75326002Y-34506695D01*
X39602334Y-67870289D02*
X39591260Y-67922403D01*
X60088381Y-131437209D02*
X60137101Y-131415517D01*
X40093970Y-34504998D02*
X40040818Y-34507784D01*
X39587488Y-112310336D02*
X39586509Y-119639672D01*
X64912998Y-122639672D02*
X66411892Y-122639672D01*
X86965108Y-100536498D02*
X86916437Y-100514825D01*
X60411000Y-130959942D02*
X60412109Y-122639672D01*
X86891268Y-100505912D02*
X86839805Y-100492125D01*
X39586108Y-122639672D02*
X39584997Y-130962034D01*
X66430355Y-98105766D02*
X66446802Y-98156387D01*
X51499997Y-34507301D02*
X51499997Y-32506998D01*
X39586108Y-89651002D02*
X39585693Y-98000615D01*
X87218083Y-67844688D02*
X87199008Y-67794998D01*
X40014346Y-100487279D02*
X39962283Y-100498345D01*
X66446802Y-100807623D02*
X66430341Y-100858294D01*
X86787182Y-98480216D02*
X86813654Y-98476731D01*
X87011202Y-100563111D02*
X86965108Y-100536498D01*
X39640463Y-100758950D02*
X39618795Y-100807623D01*
X60088381Y-100514806D02*
X60037760Y-100498359D01*
X89240003Y-53664331D02*
X87241757Y-53664331D01*
X39586509Y-119639672D02*
X37587997Y-119639672D01*
X87160872Y-98251245D02*
X87187513Y-98205107D01*
X92242003Y-28504998D02*
X34585997Y-28504998D01*
X64912998Y-76321001D02*
X64912998Y-56664331D01*
X66413708Y-34987269D02*
X66409000Y-35010000D01*
X61910998Y-122639672D02*
X61910998Y-133470007D01*
X60317770Y-67702799D02*
X60284274Y-67661435D01*
X60346790Y-67747480D02*
X60317770Y-67702799D01*
X66714951Y-100525024D02*
X66667527Y-100549188D01*
X39911612Y-65461199D02*
X39962283Y-65477660D01*
X75326002Y-131471003D02*
X75326002Y-133469007D01*
X66413004Y-97974003D02*
X66415790Y-98027181D01*
X87241757Y-53664331D02*
X87242247Y-46335664D01*
X60183195Y-34587101D02*
X60137101Y-34560488D01*
X66895338Y-98482303D02*
X66920026Y-98481000D01*
X87218083Y-100832693D02*
X87198987Y-100782955D01*
X87093902Y-65345933D02*
X87129554Y-65306341D01*
X39591260Y-65065597D02*
X39596125Y-65091850D01*
X75326002Y-34506695D02*
X66922004Y-34504998D01*
X39773693Y-34618414D02*
X39734098Y-34654062D01*
X87093939Y-34654099D02*
X87074571Y-34635720D01*
X60403868Y-131067860D02*
X60408733Y-131041607D01*
X87129554Y-34693654D02*
X87093939Y-34654099D01*
X89240003Y-133470007D02*
X64912998Y-133470007D01*
X60183195Y-131388904D02*
X60205200Y-131373781D01*
X86988526Y-34573204D02*
X86941056Y-34549014D01*
X87242304Y-65012663D02*
X87241000Y-64989971D01*
X60412109Y-122639672D02*
X61910998Y-122639672D01*
X37587997Y-86651002D02*
X37587997Y-79321001D01*
X87112281Y-100649440D02*
X87074610Y-100611765D01*
X60390092Y-131119272D02*
X60403868Y-131067860D01*
X60226300Y-98369586D02*
X60246603Y-98352245D01*
X40014397Y-65488734D02*
X40067331Y-65494298D01*
X39587788Y-131015238D02*
X39596125Y-131067860D01*
X60037760Y-34522349D02*
X60011798Y-34516115D01*
X66667527Y-98414822D02*
X66714999Y-98439007D01*
X66526420Y-100669704D02*
X66495107Y-100712809D01*
X87236740Y-100910408D02*
X87225666Y-100858294D01*
X39653177Y-98228479D02*
X39667128Y-98251245D01*
X60346816Y-34759521D02*
X60317801Y-34714836D01*
X87225666Y-131093721D02*
X87236740Y-131041607D01*
X66495107Y-100712809D02*
X66468470Y-100758950D01*
X87011246Y-131388876D02*
X87054347Y-131357558D01*
X87129554Y-131282351D02*
X87145808Y-131261169D01*
X40014397Y-98476739D02*
X40067331Y-98482303D01*
X39585693Y-67975443D02*
X39588999Y-68000066D01*
X60381198Y-131144392D02*
X60390092Y-131119272D01*
X37587997Y-53664331D02*
X37587997Y-46335664D01*
X39667100Y-67724804D02*
X39640463Y-67770945D01*
X78326002Y-100479851D02*
X78326002Y-98482153D01*
X39773693Y-100594424D02*
X39734098Y-100630072D01*
X61910998Y-46335664D02*
X61910998Y-53664331D01*
X40067331Y-65494298D02*
X40090072Y-65491000D01*
X66601660Y-67606452D02*
X66562068Y-67642104D01*
X39587888Y-43335664D02*
X37587997Y-43335664D01*
X37587997Y-109310336D02*
X37587997Y-89651002D01*
X60160473Y-100549188D02*
X60113049Y-100525024D01*
X39609901Y-131119272D02*
X39628992Y-131169012D01*
X60381198Y-100807623D02*
X60359530Y-100758950D01*
X39886992Y-67536998D02*
X39862892Y-67548493D01*
X60411000Y-97969946D02*
X60412109Y-89651002D01*
X64912998Y-32505998D02*
X61910998Y-32505998D01*
X87242307Y-67975390D02*
X87236740Y-67922403D01*
X87241000Y-130959977D02*
X87241556Y-122639672D01*
X66419267Y-65065597D02*
X66430341Y-65117711D01*
X39794835Y-98385807D02*
X39839520Y-98414822D01*
X60205200Y-131373781D02*
X60226340Y-131357558D01*
X66468470Y-98205060D02*
X66481210Y-98228525D01*
X87241000Y-97969978D02*
X87241556Y-89651002D01*
X39936682Y-131446087D02*
X39962283Y-131453670D01*
X60412510Y-53664331D02*
X60413487Y-46335664D01*
X39816798Y-34587101D02*
X39773693Y-34618414D01*
X60037760Y-100498359D02*
X60011798Y-100492125D01*
X39596125Y-65091850D02*
X39609901Y-65143262D01*
X86730076Y-67489002D02*
X78326002Y-67490698D01*
X40040818Y-67495789D02*
X40014346Y-67499274D01*
X40040818Y-100483794D02*
X40014346Y-100487279D01*
X66739619Y-34538796D02*
X66690899Y-34560488D01*
X37587997Y-89651002D02*
X39586108Y-89651002D01*
X37587997Y-56664331D02*
X39586108Y-56664331D01*
X86988480Y-98414822D02*
X87011246Y-98400871D01*
X60390076Y-98131317D02*
X60397659Y-98105716D01*
X86941008Y-131427012D02*
X86988480Y-131402827D01*
X66456999Y-34806993D02*
X66437924Y-34856683D01*
X39794835Y-131373812D02*
X39839520Y-131402827D01*
X51499997Y-100479852D02*
X51499997Y-98482153D01*
X87209186Y-98156436D02*
X87225652Y-98105766D01*
X87160872Y-34736755D02*
X87129554Y-34693654D01*
X60413487Y-112310336D02*
X61910998Y-112310336D01*
X60381198Y-65168382D02*
X60397659Y-65117711D01*
X39773653Y-98369553D02*
X39794835Y-98385807D01*
X60011798Y-67504120D02*
X59985596Y-67499266D01*
X60226340Y-131357558D02*
X60265895Y-131321943D01*
X87145808Y-67702841D02*
X87129554Y-67681659D01*
X60284239Y-98314609D02*
X60301580Y-98294306D01*
X39586509Y-86651002D02*
X37587997Y-86651002D01*
X66714951Y-67537019D02*
X66667527Y-67561183D01*
X48499997Y-65492696D02*
X48499997Y-67491304D01*
X66920066Y-65491000D02*
X75326002Y-65492696D01*
X87241556Y-122639672D02*
X89240003Y-122639672D01*
X39585693Y-34987444D02*
X39588999Y-35010072D01*
X64912998Y-133470007D02*
X64912998Y-122639672D01*
X66868773Y-131468216D02*
X66919999Y-131471000D01*
X59905996Y-131471007D02*
X59959175Y-131468221D01*
X87198987Y-100782955D02*
X87174823Y-100735531D01*
X60137054Y-65439531D02*
X60160519Y-65426791D01*
X66413004Y-130962034D02*
X66415790Y-131015186D01*
X59985647Y-65488726D02*
X60037710Y-65477660D01*
X66601660Y-98369553D02*
X66644761Y-98400871D01*
X39618795Y-100807623D02*
X39602334Y-100858294D01*
X89240003Y-122639672D02*
X89240003Y-133470007D01*
X75326002Y-65492696D02*
X75326002Y-67491304D01*
X60408733Y-100910408D02*
X60397659Y-100858294D01*
X86729946Y-34508999D02*
X78326002Y-34507302D01*
X87093902Y-98333938D02*
X87129554Y-98294346D01*
X39886944Y-65450981D02*
X39911612Y-65461199D01*
X60265932Y-65345896D02*
X60301580Y-65306301D01*
X66410512Y-112310336D02*
X66411491Y-119639672D01*
X66581436Y-34635720D02*
X66562068Y-34654099D01*
X66495107Y-131239206D02*
X66526453Y-131282351D01*
X37587997Y-122639672D02*
X39586108Y-122639672D01*
X39839520Y-98414822D02*
X39886944Y-98438986D01*
X39734098Y-100630072D02*
X39698446Y-100669664D01*
X60397645Y-67870239D02*
X60381198Y-67819618D01*
X39585693Y-98000615D02*
X39591260Y-98053602D01*
X39962283Y-98465665D02*
X40014397Y-98476739D01*
X87225652Y-98105766D02*
X87236732Y-98053653D01*
X66790290Y-67510340D02*
X66739619Y-67526801D01*
X92242003Y-137471007D02*
X93241003Y-136472007D01*
X66413707Y-100963294D02*
X66409000Y-100990000D01*
X87129554Y-67681659D02*
X87093902Y-67642067D01*
X48499997Y-131471003D02*
X48499997Y-133469007D01*
X39698446Y-100669664D02*
X39667100Y-100712809D01*
X60226340Y-100594457D02*
X60205158Y-100578203D01*
X87236740Y-67922403D02*
X87231875Y-67896150D01*
X59905996Y-65494997D02*
X59959175Y-65492211D01*
X64912998Y-56664331D02*
X66411892Y-56664331D01*
X39653177Y-34759521D02*
X39628992Y-34806993D01*
X66714951Y-65450981D02*
X66739619Y-65461199D01*
X87187513Y-65217102D02*
X87209186Y-65168431D01*
X39773693Y-67606419D02*
X39734098Y-67642067D01*
X86988480Y-65426817D02*
X87011246Y-65412866D01*
X66920026Y-98481000D02*
X75326002Y-98481849D01*
X59932725Y-67493707D02*
X59910102Y-67489005D01*
X39794835Y-65397802D02*
X39839474Y-65426791D01*
X66922003Y-100481008D02*
X66868825Y-100483794D01*
X66410111Y-109310336D02*
X64912998Y-109310336D01*
X66922004Y-34504998D02*
X66868825Y-34507784D01*
X40090028Y-98481000D02*
X48499997Y-98481850D01*
X66842353Y-34511269D02*
X66790290Y-34522335D01*
X59905996Y-98483002D02*
X59932662Y-98482303D01*
X60413487Y-46335664D02*
X61910998Y-46335664D01*
X39588999Y-68000066D02*
X39587888Y-76321001D01*
X60301580Y-100669704D02*
X60265932Y-100630109D01*
X87242247Y-79321001D02*
X89240003Y-79321001D01*
X66667527Y-100549188D02*
X66622842Y-100578203D01*
X87093902Y-67642067D02*
X87054347Y-67606452D01*
X64912998Y-86651002D02*
X64912998Y-79321001D01*
X66562068Y-65345896D02*
X66581436Y-65364275D01*
X87160872Y-65263240D02*
X87187513Y-65217102D01*
X66790240Y-131453656D02*
X66816202Y-131459890D01*
X87242447Y-43335664D02*
X87243003Y-35013971D01*
X66495135Y-65263240D02*
X66526420Y-65306301D01*
X60226300Y-34618414D02*
X60183195Y-34587101D01*
X66714951Y-131426991D02*
X66739619Y-131437209D01*
X87011246Y-67575134D02*
X86988480Y-67561183D01*
X87242304Y-98000668D02*
X87241000Y-97969978D01*
X66409000Y-100990000D02*
X66410111Y-109310336D01*
X60037710Y-131453670D02*
X60088381Y-131437209D01*
X60413887Y-76321001D02*
X60414996Y-68002003D01*
X33586997Y-136472007D02*
X34585997Y-137471007D01*
X66739619Y-100514806D02*
X66714951Y-100525024D01*
X78326002Y-32506998D02*
X75326002Y-32506998D01*
X66411491Y-53664331D02*
X64912998Y-53664331D01*
X39886992Y-100525003D02*
X39862892Y-100536498D01*
X66690899Y-34560488D02*
X66644805Y-34587101D01*
X66543726Y-98314570D02*
X66562105Y-98333938D01*
X51499997Y-67490698D02*
X51499997Y-65493302D01*
X87225652Y-65117761D02*
X87236732Y-65065648D01*
X60317770Y-131261211D02*
X60346816Y-131216484D01*
X39591260Y-67922403D02*
X39585693Y-67975443D01*
X66842353Y-100487279D02*
X66790290Y-100498345D01*
X86941008Y-65451002D02*
X86988480Y-65426817D01*
X39862892Y-67548493D02*
X39816754Y-67575134D01*
X87218083Y-131119322D02*
X87225666Y-131093721D01*
X39936682Y-67517923D02*
X39886992Y-67536998D01*
X66481210Y-98228525D02*
X66510199Y-98273164D01*
X60414996Y-100989981D02*
X60412210Y-100936829D01*
X60088430Y-34538815D02*
X60037760Y-34522349D01*
X66842404Y-65488734D02*
X66895338Y-65494298D01*
X87174823Y-67747526D02*
X87145808Y-67702841D01*
X86891318Y-67517923D02*
X86839856Y-67504131D01*
X86865717Y-34522335D02*
X86813603Y-34511261D01*
X86839805Y-131459890D02*
X86891268Y-131446103D01*
X86787234Y-100483799D02*
X86730088Y-100479003D01*
M02*
