%TF.GenerationSoftware,KiCad,Pcbnew,(6.0.0)*%
%TF.CreationDate,2022-01-18T21:24:02-05:00*%
%TF.ProjectId,WSOIC-24_7.5mm PANEL,57534f49-432d-4323-945f-372e356d6d20,rev?*%
%TF.SameCoordinates,Original*%
%TF.FileFunction,Soldermask,Bot*%
%TF.FilePolarity,Negative*%
%FSLAX46Y46*%
G04 Gerber Fmt 4.6, Leading zero omitted, Abs format (unit mm)*
G04 Created by KiCad (PCBNEW (6.0.0)) date 2022-01-18 21:24:02*
%MOMM*%
%LPD*%
G01*
G04 APERTURE LIST*
%ADD10C,0.500000*%
%ADD11R,1.700000X1.700000*%
%ADD12O,1.700000X1.700000*%
G04 APERTURE END LIST*
D10*
%TO.C,REF\u002A\u002A*%
X66412512Y-112310336D03*
%TD*%
%TO.C,REF\u002A\u002A*%
X77326002Y-98480051D03*
%TD*%
%TO.C,REF\u002A\u002A*%
X60410376Y-120639672D03*
%TD*%
%TO.C,REF\u002A\u002A*%
X39588375Y-87651002D03*
%TD*%
%TO.C,REF\u002A\u002A*%
X62911998Y-66491999D03*
%TD*%
%TO.C,REF\u002A\u002A*%
X39588108Y-122639672D03*
%TD*%
%TO.C,REF\u002A\u002A*%
X87239690Y-54664331D03*
%TD*%
%TO.C,REF\u002A\u002A*%
X66412245Y-110310336D03*
%TD*%
%TO.C,REF\u002A\u002A*%
X63911998Y-34504998D03*
%TD*%
%TO.C,REF\u002A\u002A*%
X89240003Y-34506998D03*
%TD*%
%TO.C,REF\u002A\u002A*%
X77326002Y-100481953D03*
%TD*%
%TO.C,REF\u002A\u002A*%
X66413491Y-53664331D03*
%TD*%
D11*
%TO.C,J2*%
X85718004Y-69018003D03*
D12*
X85718004Y-71558003D03*
X85718004Y-74098003D03*
X85718004Y-76638003D03*
X85718004Y-79178003D03*
X85718004Y-81718003D03*
X85718004Y-84258003D03*
X85718004Y-86798003D03*
X85718004Y-89338003D03*
X85718004Y-91878003D03*
X85718004Y-94418003D03*
X85718004Y-96958003D03*
%TD*%
D10*
%TO.C,REF\u002A\u002A*%
X39588108Y-56664331D03*
%TD*%
%TO.C,REF\u002A\u002A*%
X76326002Y-65490897D03*
%TD*%
%TO.C,REF\u002A\u002A*%
X49499997Y-67493102D03*
%TD*%
%TO.C,REF\u002A\u002A*%
X49499997Y-98479951D03*
%TD*%
%TO.C,REF\u002A\u002A*%
X51499997Y-67492698D03*
%TD*%
%TO.C,REF\u002A\u002A*%
X66412245Y-77321001D03*
%TD*%
%TO.C,REF\u002A\u002A*%
X35987597Y-131469009D03*
%TD*%
%TO.C,REF\u002A\u002A*%
X66413491Y-86651002D03*
%TD*%
%TO.C,REF\u002A\u002A*%
X66412378Y-78321001D03*
%TD*%
%TO.C,REF\u002A\u002A*%
X87239756Y-86651002D03*
%TD*%
%TO.C,REF\u002A\u002A*%
X76326002Y-98479950D03*
%TD*%
%TO.C,REF\u002A\u002A*%
X49499997Y-65490898D03*
%TD*%
%TO.C,REF\u002A\u002A*%
X51499997Y-131469004D03*
%TD*%
%TO.C,REF\u002A\u002A*%
X35187397Y-131469009D03*
%TD*%
%TO.C,REF\u002A\u002A*%
X78326002Y-98480153D03*
%TD*%
%TO.C,REF\u002A\u002A*%
X87240313Y-111310336D03*
%TD*%
D11*
%TO.C,J2*%
X58889997Y-69018003D03*
D12*
X58889997Y-71558003D03*
X58889997Y-74098003D03*
X58889997Y-76638003D03*
X58889997Y-79178003D03*
X58889997Y-81718003D03*
X58889997Y-84258003D03*
X58889997Y-86798003D03*
X58889997Y-89338003D03*
X58889997Y-91878003D03*
X58889997Y-94418003D03*
X58889997Y-96958003D03*
%TD*%
D10*
%TO.C,REF\u002A\u002A*%
X87240447Y-43335664D03*
%TD*%
%TO.C,REF\u002A\u002A*%
X87239556Y-89651002D03*
%TD*%
%TO.C,REF\u002A\u002A*%
X48499997Y-65490696D03*
%TD*%
%TO.C,REF\u002A\u002A*%
X35187397Y-34506998D03*
%TD*%
%TO.C,REF\u002A\u002A*%
X49499997Y-131469003D03*
%TD*%
%TO.C,REF\u002A\u002A*%
X66412111Y-76321001D03*
%TD*%
%TO.C,REF\u002A\u002A*%
X92440803Y-34506998D03*
%TD*%
%TO.C,REF\u002A\u002A*%
X39588509Y-119639672D03*
%TD*%
%TO.C,REF\u002A\u002A*%
X66412379Y-45335664D03*
%TD*%
%TO.C,REF\u002A\u002A*%
X50499997Y-65491100D03*
%TD*%
%TO.C,REF\u002A\u002A*%
X87241008Y-136670807D03*
%TD*%
%TO.C,REF\u002A\u002A*%
X39588242Y-88651002D03*
%TD*%
%TO.C,REF\u002A\u002A*%
X87241008Y-30905598D03*
%TD*%
%TO.C,REF\u002A\u002A*%
X77326002Y-65491099D03*
%TD*%
%TO.C,REF\u002A\u002A*%
X37587997Y-131469009D03*
%TD*%
%TO.C,REF\u002A\u002A*%
X91640603Y-131469009D03*
%TD*%
%TO.C,REF\u002A\u002A*%
X87241008Y-135070407D03*
%TD*%
%TO.C,REF\u002A\u002A*%
X62911998Y-131471007D03*
%TD*%
%TO.C,REF\u002A\u002A*%
X87240247Y-112310336D03*
%TD*%
%TO.C,REF\u002A\u002A*%
X63911998Y-66491999D03*
%TD*%
%TO.C,REF\u002A\u002A*%
X51499997Y-98480153D03*
%TD*%
%TO.C,REF\u002A\u002A*%
X39589754Y-44335664D03*
%TD*%
%TO.C,REF\u002A\u002A*%
X87241008Y-133470007D03*
%TD*%
%TO.C,REF\u002A\u002A*%
X87241008Y-28504998D03*
%TD*%
%TO.C,REF\u002A\u002A*%
X78326002Y-131469004D03*
%TD*%
%TO.C,REF\u002A\u002A*%
X60410376Y-87651002D03*
%TD*%
%TO.C,REF\u002A\u002A*%
X66413625Y-120639672D03*
%TD*%
%TO.C,REF\u002A\u002A*%
X87241008Y-134270207D03*
%TD*%
%TO.C,REF\u002A\u002A*%
X66413625Y-54664331D03*
%TD*%
%TO.C,REF\u002A\u002A*%
X77326002Y-67492900D03*
%TD*%
%TO.C,REF\u002A\u002A*%
X87241008Y-32505998D03*
%TD*%
D11*
%TO.C,J1*%
X41109997Y-36029998D03*
D12*
X41109997Y-38569998D03*
X41109997Y-41109998D03*
X41109997Y-43649998D03*
X41109997Y-46189998D03*
X41109997Y-48729998D03*
X41109997Y-51269998D03*
X41109997Y-53809998D03*
X41109997Y-56349998D03*
X41109997Y-58889998D03*
X41109997Y-61429998D03*
X41109997Y-63969998D03*
%TD*%
D10*
%TO.C,REF\u002A\u002A*%
X39588108Y-89651002D03*
%TD*%
%TO.C,REF\u002A\u002A*%
X66413892Y-56664331D03*
%TD*%
%TO.C,REF\u002A\u002A*%
X34387197Y-131469009D03*
%TD*%
D11*
%TO.C,J2*%
X85718004Y-102006008D03*
D12*
X85718004Y-104546008D03*
X85718004Y-107086008D03*
X85718004Y-109626008D03*
X85718004Y-112166008D03*
X85718004Y-114706008D03*
X85718004Y-117246008D03*
X85718004Y-119786008D03*
X85718004Y-122326008D03*
X85718004Y-124866008D03*
X85718004Y-127406008D03*
X85718004Y-129946008D03*
%TD*%
D10*
%TO.C,REF\u002A\u002A*%
X66413625Y-87651002D03*
%TD*%
%TO.C,REF\u002A\u002A*%
X78326002Y-34509302D03*
%TD*%
%TO.C,REF\u002A\u002A*%
X39588242Y-121639672D03*
%TD*%
%TO.C,REF\u002A\u002A*%
X87239556Y-122639672D03*
%TD*%
%TO.C,REF\u002A\u002A*%
X87239756Y-119639672D03*
%TD*%
%TO.C,REF\u002A\u002A*%
X39589488Y-112310336D03*
%TD*%
%TO.C,REF\u002A\u002A*%
X75326002Y-98479849D03*
%TD*%
%TO.C,REF\u002A\u002A*%
X39586997Y-30105398D03*
%TD*%
%TO.C,REF\u002A\u002A*%
X64911998Y-131471007D03*
%TD*%
%TO.C,REF\u002A\u002A*%
X50499997Y-34509099D03*
%TD*%
%TO.C,REF\u002A\u002A*%
X76326002Y-67493102D03*
%TD*%
%TO.C,REF\u002A\u002A*%
X60411620Y-45335664D03*
%TD*%
D11*
%TO.C,J2*%
X58889997Y-102006008D03*
D12*
X58889997Y-104546008D03*
X58889997Y-107086008D03*
X58889997Y-109626008D03*
X58889997Y-112166008D03*
X58889997Y-114706008D03*
X58889997Y-117246008D03*
X58889997Y-119786008D03*
X58889997Y-122326008D03*
X58889997Y-124866008D03*
X58889997Y-127406008D03*
X58889997Y-129946008D03*
%TD*%
D10*
%TO.C,REF\u002A\u002A*%
X39589621Y-45335664D03*
%TD*%
%TO.C,REF\u002A\u002A*%
X60411754Y-44335664D03*
%TD*%
%TO.C,REF\u002A\u002A*%
X39588375Y-54664331D03*
%TD*%
D11*
%TO.C,J1*%
X41109997Y-69018003D03*
D12*
X41109997Y-71558003D03*
X41109997Y-74098003D03*
X41109997Y-76638003D03*
X41109997Y-79178003D03*
X41109997Y-81718003D03*
X41109997Y-84258003D03*
X41109997Y-86798003D03*
X41109997Y-89338003D03*
X41109997Y-91878003D03*
X41109997Y-94418003D03*
X41109997Y-96958003D03*
%TD*%
D10*
%TO.C,REF\u002A\u002A*%
X39588375Y-120639672D03*
%TD*%
%TO.C,REF\u002A\u002A*%
X39589755Y-110310336D03*
%TD*%
%TO.C,REF\u002A\u002A*%
X63911998Y-131471007D03*
%TD*%
%TO.C,REF\u002A\u002A*%
X64911998Y-34504998D03*
%TD*%
%TO.C,REF\u002A\u002A*%
X60410109Y-122639672D03*
%TD*%
%TO.C,REF\u002A\u002A*%
X77326002Y-131469004D03*
%TD*%
%TO.C,REF\u002A\u002A*%
X49499997Y-34508897D03*
%TD*%
%TO.C,REF\u002A\u002A*%
X60410243Y-55664331D03*
%TD*%
%TO.C,REF\u002A\u002A*%
X78326002Y-65491301D03*
%TD*%
%TO.C,REF\u002A\u002A*%
X61911998Y-66491999D03*
%TD*%
%TO.C,REF\u002A\u002A*%
X87240380Y-44335664D03*
%TD*%
D11*
%TO.C,J1*%
X41109997Y-102006008D03*
D12*
X41109997Y-104546008D03*
X41109997Y-107086008D03*
X41109997Y-109626008D03*
X41109997Y-112166008D03*
X41109997Y-114706008D03*
X41109997Y-117246008D03*
X41109997Y-119786008D03*
X41109997Y-122326008D03*
X41109997Y-124866008D03*
X41109997Y-127406008D03*
X41109997Y-129946008D03*
%TD*%
D10*
%TO.C,REF\u002A\u002A*%
X90040203Y-131469009D03*
%TD*%
%TO.C,REF\u002A\u002A*%
X89240003Y-131469009D03*
%TD*%
%TO.C,REF\u002A\u002A*%
X87240247Y-79321001D03*
%TD*%
%TO.C,REF\u002A\u002A*%
X39588241Y-55664331D03*
%TD*%
%TO.C,REF\u002A\u002A*%
X76326002Y-34508897D03*
%TD*%
%TO.C,REF\u002A\u002A*%
X39586997Y-133470007D03*
%TD*%
%TO.C,REF\u002A\u002A*%
X50499997Y-98480052D03*
%TD*%
%TO.C,REF\u002A\u002A*%
X39586997Y-137471007D03*
%TD*%
%TO.C,REF\u002A\u002A*%
X87239623Y-88651002D03*
%TD*%
%TO.C,REF\u002A\u002A*%
X78326002Y-100481851D03*
%TD*%
%TO.C,REF\u002A\u002A*%
X48499997Y-131469003D03*
%TD*%
%TO.C,REF\u002A\u002A*%
X66412245Y-44335664D03*
%TD*%
%TO.C,REF\u002A\u002A*%
X87239690Y-120639672D03*
%TD*%
%TO.C,REF\u002A\u002A*%
X39589888Y-76321001D03*
%TD*%
%TO.C,REF\u002A\u002A*%
X33586997Y-34506998D03*
%TD*%
%TO.C,REF\u002A\u002A*%
X60411887Y-43335664D03*
%TD*%
%TO.C,REF\u002A\u002A*%
X61911998Y-131471007D03*
%TD*%
%TO.C,REF\u002A\u002A*%
X39589888Y-109310336D03*
%TD*%
%TO.C,REF\u002A\u002A*%
X60410242Y-88651002D03*
%TD*%
%TO.C,REF\u002A\u002A*%
X66412512Y-46335664D03*
%TD*%
%TO.C,REF\u002A\u002A*%
X39586997Y-135070407D03*
%TD*%
%TO.C,REF\u002A\u002A*%
X48499997Y-98479850D03*
%TD*%
%TO.C,REF\u002A\u002A*%
X91640603Y-34506998D03*
%TD*%
%TO.C,REF\u002A\u002A*%
X60411487Y-46335664D03*
%TD*%
%TO.C,REF\u002A\u002A*%
X39589487Y-46335664D03*
%TD*%
%TO.C,REF\u002A\u002A*%
X48499997Y-100482156D03*
%TD*%
%TO.C,REF\u002A\u002A*%
X87241008Y-30105398D03*
%TD*%
%TO.C,REF\u002A\u002A*%
X87240313Y-78321001D03*
%TD*%
%TO.C,REF\u002A\u002A*%
X60411753Y-110310336D03*
%TD*%
%TO.C,REF\u002A\u002A*%
X75326002Y-100482156D03*
%TD*%
%TO.C,REF\u002A\u002A*%
X49499997Y-100482054D03*
%TD*%
%TO.C,REF\u002A\u002A*%
X75326002Y-65490696D03*
%TD*%
%TO.C,REF\u002A\u002A*%
X64911998Y-66491999D03*
%TD*%
%TO.C,REF\u002A\u002A*%
X36787797Y-131469009D03*
%TD*%
%TO.C,REF\u002A\u002A*%
X93241003Y-34506998D03*
%TD*%
%TO.C,REF\u002A\u002A*%
X66412112Y-43335664D03*
%TD*%
%TO.C,REF\u002A\u002A*%
X35987597Y-34506998D03*
%TD*%
%TO.C,REF\u002A\u002A*%
X60410510Y-53664331D03*
%TD*%
%TO.C,REF\u002A\u002A*%
X87239757Y-53664331D03*
%TD*%
%TO.C,REF\u002A\u002A*%
X87241008Y-135870607D03*
%TD*%
%TO.C,REF\u002A\u002A*%
X33586997Y-131469009D03*
%TD*%
%TO.C,REF\u002A\u002A*%
X60410110Y-56664331D03*
%TD*%
%TO.C,REF\u002A\u002A*%
X87241008Y-29305198D03*
%TD*%
%TO.C,REF\u002A\u002A*%
X62911998Y-34504998D03*
%TD*%
%TO.C,REF\u002A\u002A*%
X60411754Y-77321001D03*
%TD*%
%TO.C,REF\u002A\u002A*%
X87239556Y-56664331D03*
%TD*%
%TO.C,REF\u002A\u002A*%
X34387197Y-34506998D03*
%TD*%
%TO.C,REF\u002A\u002A*%
X90840403Y-131469009D03*
%TD*%
%TO.C,REF\u002A\u002A*%
X78326002Y-67492698D03*
%TD*%
%TO.C,REF\u002A\u002A*%
X48499997Y-67493304D03*
%TD*%
%TO.C,REF\u002A\u002A*%
X60410243Y-121639672D03*
%TD*%
%TO.C,REF\u002A\u002A*%
X87239623Y-55664331D03*
%TD*%
%TO.C,REF\u002A\u002A*%
X39586997Y-136670807D03*
%TD*%
%TO.C,REF\u002A\u002A*%
X39589488Y-79321001D03*
%TD*%
%TO.C,REF\u002A\u002A*%
X87240247Y-46335664D03*
%TD*%
%TO.C,REF\u002A\u002A*%
X39589888Y-43335664D03*
%TD*%
%TO.C,REF\u002A\u002A*%
X87241008Y-137471007D03*
%TD*%
%TO.C,REF\u002A\u002A*%
X87240313Y-45335664D03*
%TD*%
%TO.C,REF\u002A\u002A*%
X76326002Y-131469003D03*
%TD*%
%TO.C,REF\u002A\u002A*%
X60410109Y-89651002D03*
%TD*%
%TO.C,REF\u002A\u002A*%
X51499997Y-34509301D03*
%TD*%
%TO.C,REF\u002A\u002A*%
X39589621Y-78321001D03*
%TD*%
%TO.C,REF\u002A\u002A*%
X60411487Y-112310336D03*
%TD*%
%TO.C,REF\u002A\u002A*%
X39588509Y-86651002D03*
%TD*%
%TO.C,REF\u002A\u002A*%
X39586997Y-29305198D03*
%TD*%
%TO.C,REF\u002A\u002A*%
X39586997Y-135870607D03*
%TD*%
%TO.C,REF\u002A\u002A*%
X60410376Y-54664331D03*
%TD*%
%TO.C,REF\u002A\u002A*%
X90840403Y-34506998D03*
%TD*%
%TO.C,REF\u002A\u002A*%
X93241003Y-131469009D03*
%TD*%
%TO.C,REF\u002A\u002A*%
X92440803Y-131469009D03*
%TD*%
%TO.C,REF\u002A\u002A*%
X66412378Y-111310336D03*
%TD*%
%TO.C,REF\u002A\u002A*%
X39588508Y-53664331D03*
%TD*%
%TO.C,REF\u002A\u002A*%
X66413758Y-121639672D03*
%TD*%
%TO.C,REF\u002A\u002A*%
X48499997Y-34508695D03*
%TD*%
%TO.C,REF\u002A\u002A*%
X60411620Y-78321001D03*
%TD*%
%TO.C,REF\u002A\u002A*%
X76326002Y-100482054D03*
%TD*%
%TO.C,REF\u002A\u002A*%
X66413758Y-55664331D03*
%TD*%
%TO.C,REF\u002A\u002A*%
X60411620Y-111310336D03*
%TD*%
%TO.C,REF\u002A\u002A*%
X61911998Y-34504998D03*
%TD*%
D11*
%TO.C,J2*%
X85718004Y-36029998D03*
D12*
X85718004Y-38569998D03*
X85718004Y-41109998D03*
X85718004Y-43649998D03*
X85718004Y-46189998D03*
X85718004Y-48729998D03*
X85718004Y-51269998D03*
X85718004Y-53809998D03*
X85718004Y-56349998D03*
X85718004Y-58889998D03*
X85718004Y-61429998D03*
X85718004Y-63969998D03*
%TD*%
D10*
%TO.C,REF\u002A\u002A*%
X50499997Y-100481953D03*
%TD*%
%TO.C,REF\u002A\u002A*%
X66413892Y-122639672D03*
%TD*%
%TO.C,REF\u002A\u002A*%
X60411887Y-109310336D03*
%TD*%
%TO.C,REF\u002A\u002A*%
X37587997Y-34506998D03*
%TD*%
D11*
%TO.C,J1*%
X67938004Y-36029998D03*
D12*
X67938004Y-38569998D03*
X67938004Y-41109998D03*
X67938004Y-43649998D03*
X67938004Y-46189998D03*
X67938004Y-48729998D03*
X67938004Y-51269998D03*
X67938004Y-53809998D03*
X67938004Y-56349998D03*
X67938004Y-58889998D03*
X67938004Y-61429998D03*
X67938004Y-63969998D03*
%TD*%
D10*
%TO.C,REF\u002A\u002A*%
X75326002Y-34508695D03*
%TD*%
%TO.C,REF\u002A\u002A*%
X87241008Y-31705798D03*
%TD*%
%TO.C,REF\u002A\u002A*%
X36787797Y-34506998D03*
%TD*%
%TO.C,REF\u002A\u002A*%
X60410509Y-86651002D03*
%TD*%
%TO.C,REF\u002A\u002A*%
X87240447Y-76321001D03*
%TD*%
%TO.C,REF\u002A\u002A*%
X75326002Y-67493304D03*
%TD*%
%TO.C,REF\u002A\u002A*%
X39586997Y-28504998D03*
%TD*%
%TO.C,REF\u002A\u002A*%
X77326002Y-34509100D03*
%TD*%
%TO.C,REF\u002A\u002A*%
X39586997Y-32505998D03*
%TD*%
%TO.C,REF\u002A\u002A*%
X75326002Y-131469003D03*
%TD*%
D11*
%TO.C,J1*%
X67938004Y-102006008D03*
D12*
X67938004Y-104546008D03*
X67938004Y-107086008D03*
X67938004Y-109626008D03*
X67938004Y-112166008D03*
X67938004Y-114706008D03*
X67938004Y-117246008D03*
X67938004Y-119786008D03*
X67938004Y-122326008D03*
X67938004Y-124866008D03*
X67938004Y-127406008D03*
X67938004Y-129946008D03*
%TD*%
D10*
%TO.C,REF\u002A\u002A*%
X60411487Y-79321001D03*
%TD*%
%TO.C,REF\u002A\u002A*%
X90040203Y-34506998D03*
%TD*%
D11*
%TO.C,J1*%
X67938004Y-69018003D03*
D12*
X67938004Y-71558003D03*
X67938004Y-74098003D03*
X67938004Y-76638003D03*
X67938004Y-79178003D03*
X67938004Y-81718003D03*
X67938004Y-84258003D03*
X67938004Y-86798003D03*
X67938004Y-89338003D03*
X67938004Y-91878003D03*
X67938004Y-94418003D03*
X67938004Y-96958003D03*
%TD*%
D10*
%TO.C,REF\u002A\u002A*%
X39586997Y-31705798D03*
%TD*%
%TO.C,REF\u002A\u002A*%
X87239690Y-87651002D03*
%TD*%
%TO.C,REF\u002A\u002A*%
X87240380Y-110310336D03*
%TD*%
%TO.C,REF\u002A\u002A*%
X51499997Y-100481852D03*
%TD*%
%TO.C,REF\u002A\u002A*%
X39586997Y-30905598D03*
%TD*%
%TO.C,REF\u002A\u002A*%
X66412512Y-79321001D03*
%TD*%
%TO.C,REF\u002A\u002A*%
X66412111Y-109310336D03*
%TD*%
%TO.C,REF\u002A\u002A*%
X50499997Y-67492900D03*
%TD*%
%TO.C,REF\u002A\u002A*%
X39589621Y-111310336D03*
%TD*%
%TO.C,REF\u002A\u002A*%
X60410509Y-119639672D03*
%TD*%
%TO.C,REF\u002A\u002A*%
X39586997Y-134270207D03*
%TD*%
%TO.C,REF\u002A\u002A*%
X87240447Y-109310336D03*
%TD*%
%TO.C,REF\u002A\u002A*%
X87240380Y-77321001D03*
%TD*%
%TO.C,REF\u002A\u002A*%
X66413892Y-89651002D03*
%TD*%
%TO.C,REF\u002A\u002A*%
X51499997Y-65491302D03*
%TD*%
%TO.C,REF\u002A\u002A*%
X39589755Y-77321001D03*
%TD*%
D11*
%TO.C,J2*%
X58889997Y-36029998D03*
D12*
X58889997Y-38569998D03*
X58889997Y-41109998D03*
X58889997Y-43649998D03*
X58889997Y-46189998D03*
X58889997Y-48729998D03*
X58889997Y-51269998D03*
X58889997Y-53809998D03*
X58889997Y-56349998D03*
X58889997Y-58889998D03*
X58889997Y-61429998D03*
X58889997Y-63969998D03*
%TD*%
D10*
%TO.C,REF\u002A\u002A*%
X60411887Y-76321001D03*
%TD*%
%TO.C,REF\u002A\u002A*%
X87239623Y-121639672D03*
%TD*%
%TO.C,REF\u002A\u002A*%
X66413491Y-119639672D03*
%TD*%
%TO.C,REF\u002A\u002A*%
X66413758Y-88651002D03*
%TD*%
%TO.C,REF\u002A\u002A*%
X50499997Y-131469004D03*
%TD*%
M02*
