%TF.GenerationSoftware,KiCad,Pcbnew,(6.0.0)*%
%TF.CreationDate,2022-01-18T21:24:02-05:00*%
%TF.ProjectId,WSOIC-24_7.5mm PANEL,57534f49-432d-4323-945f-372e356d6d20,rev?*%
%TF.SameCoordinates,Original*%
%TF.FileFunction,Paste,Top*%
%TF.FilePolarity,Positive*%
%FSLAX46Y46*%
G04 Gerber Fmt 4.6, Leading zero omitted, Abs format (unit mm)*
G04 Created by KiCad (PCBNEW (6.0.0)) date 2022-01-18 21:24:02*
%MOMM*%
%LPD*%
G01*
G04 APERTURE LIST*
G04 Aperture macros list*
%AMRoundRect*
0 Rectangle with rounded corners*
0 $1 Rounding radius*
0 $2 $3 $4 $5 $6 $7 $8 $9 X,Y pos of 4 corners*
0 Add a 4 corners polygon primitive as box body*
4,1,4,$2,$3,$4,$5,$6,$7,$8,$9,$2,$3,0*
0 Add four circle primitives for the rounded corners*
1,1,$1+$1,$2,$3*
1,1,$1+$1,$4,$5*
1,1,$1+$1,$6,$7*
1,1,$1+$1,$8,$9*
0 Add four rect primitives between the rounded corners*
20,1,$1+$1,$2,$3,$4,$5,0*
20,1,$1+$1,$4,$5,$6,$7,0*
20,1,$1+$1,$6,$7,$8,$9,0*
20,1,$1+$1,$8,$9,$2,$3,0*%
G04 Aperture macros list end*
%ADD10RoundRect,0.150000X-0.875000X-0.150000X0.875000X-0.150000X0.875000X0.150000X-0.875000X0.150000X0*%
G04 APERTURE END LIST*
D10*
%TO.C,U1*%
X72178004Y-75803003D03*
X72178004Y-77073003D03*
X72178004Y-78343003D03*
X72178004Y-79613003D03*
X72178004Y-80883003D03*
X72178004Y-82153003D03*
X72178004Y-83423003D03*
X72178004Y-84693003D03*
X72178004Y-85963003D03*
X72178004Y-87233003D03*
X72178004Y-88503003D03*
X72178004Y-89773003D03*
X81478004Y-89773003D03*
X81478004Y-88503003D03*
X81478004Y-87233003D03*
X81478004Y-85963003D03*
X81478004Y-84693003D03*
X81478004Y-83423003D03*
X81478004Y-82153003D03*
X81478004Y-80883003D03*
X81478004Y-79613003D03*
X81478004Y-78343003D03*
X81478004Y-77073003D03*
X81478004Y-75803003D03*
%TD*%
%TO.C,U1*%
X72178004Y-108791008D03*
X72178004Y-110061008D03*
X72178004Y-111331008D03*
X72178004Y-112601008D03*
X72178004Y-113871008D03*
X72178004Y-115141008D03*
X72178004Y-116411008D03*
X72178004Y-117681008D03*
X72178004Y-118951008D03*
X72178004Y-120221008D03*
X72178004Y-121491008D03*
X72178004Y-122761008D03*
X81478004Y-122761008D03*
X81478004Y-121491008D03*
X81478004Y-120221008D03*
X81478004Y-118951008D03*
X81478004Y-117681008D03*
X81478004Y-116411008D03*
X81478004Y-115141008D03*
X81478004Y-113871008D03*
X81478004Y-112601008D03*
X81478004Y-111331008D03*
X81478004Y-110061008D03*
X81478004Y-108791008D03*
%TD*%
%TO.C,U1*%
X45349997Y-108791008D03*
X45349997Y-110061008D03*
X45349997Y-111331008D03*
X45349997Y-112601008D03*
X45349997Y-113871008D03*
X45349997Y-115141008D03*
X45349997Y-116411008D03*
X45349997Y-117681008D03*
X45349997Y-118951008D03*
X45349997Y-120221008D03*
X45349997Y-121491008D03*
X45349997Y-122761008D03*
X54649997Y-122761008D03*
X54649997Y-121491008D03*
X54649997Y-120221008D03*
X54649997Y-118951008D03*
X54649997Y-117681008D03*
X54649997Y-116411008D03*
X54649997Y-115141008D03*
X54649997Y-113871008D03*
X54649997Y-112601008D03*
X54649997Y-111331008D03*
X54649997Y-110061008D03*
X54649997Y-108791008D03*
%TD*%
%TO.C,U1*%
X45349997Y-42814998D03*
X45349997Y-44084998D03*
X45349997Y-45354998D03*
X45349997Y-46624998D03*
X45349997Y-47894998D03*
X45349997Y-49164998D03*
X45349997Y-50434998D03*
X45349997Y-51704998D03*
X45349997Y-52974998D03*
X45349997Y-54244998D03*
X45349997Y-55514998D03*
X45349997Y-56784998D03*
X54649997Y-56784998D03*
X54649997Y-55514998D03*
X54649997Y-54244998D03*
X54649997Y-52974998D03*
X54649997Y-51704998D03*
X54649997Y-50434998D03*
X54649997Y-49164998D03*
X54649997Y-47894998D03*
X54649997Y-46624998D03*
X54649997Y-45354998D03*
X54649997Y-44084998D03*
X54649997Y-42814998D03*
%TD*%
%TO.C,U1*%
X72178004Y-42814998D03*
X72178004Y-44084998D03*
X72178004Y-45354998D03*
X72178004Y-46624998D03*
X72178004Y-47894998D03*
X72178004Y-49164998D03*
X72178004Y-50434998D03*
X72178004Y-51704998D03*
X72178004Y-52974998D03*
X72178004Y-54244998D03*
X72178004Y-55514998D03*
X72178004Y-56784998D03*
X81478004Y-56784998D03*
X81478004Y-55514998D03*
X81478004Y-54244998D03*
X81478004Y-52974998D03*
X81478004Y-51704998D03*
X81478004Y-50434998D03*
X81478004Y-49164998D03*
X81478004Y-47894998D03*
X81478004Y-46624998D03*
X81478004Y-45354998D03*
X81478004Y-44084998D03*
X81478004Y-42814998D03*
%TD*%
%TO.C,U1*%
X45349997Y-75803003D03*
X45349997Y-77073003D03*
X45349997Y-78343003D03*
X45349997Y-79613003D03*
X45349997Y-80883003D03*
X45349997Y-82153003D03*
X45349997Y-83423003D03*
X45349997Y-84693003D03*
X45349997Y-85963003D03*
X45349997Y-87233003D03*
X45349997Y-88503003D03*
X45349997Y-89773003D03*
X54649997Y-89773003D03*
X54649997Y-88503003D03*
X54649997Y-87233003D03*
X54649997Y-85963003D03*
X54649997Y-84693003D03*
X54649997Y-83423003D03*
X54649997Y-82153003D03*
X54649997Y-80883003D03*
X54649997Y-79613003D03*
X54649997Y-78343003D03*
X54649997Y-77073003D03*
X54649997Y-75803003D03*
%TD*%
M02*
