M48
; DRILL file {KiCad (6.0.0)} date Tue Jan 18 21:24:05 2022
; FORMAT={-:-/ absolute / inch / decimal}
; #@! TF.CreationDate,2022-01-18T21:24:05-05:00
; #@! TF.GenerationSoftware,Kicad,Pcbnew,(6.0.0)
; #@! TF.FileFunction,NonPlated,1,2,NPTH
FMAT,2
INCH
; #@! TA.AperFunction,NonPlated,NPTH,ComponentDrill
T1C0.0197
%
G90
G05
T1
X1.3223Y-1.3585
X1.3223Y-5.1759
X1.3538Y-1.3585
X1.3538Y-5.1759
X1.3853Y-1.3585
X1.3853Y-5.1759
X1.4168Y-1.3585
X1.4168Y-5.1759
X1.4483Y-1.3585
X1.4483Y-5.1759
X1.4798Y-1.3585
X1.4798Y-5.1759
X1.5585Y-1.1222
X1.5585Y-1.1537
X1.5585Y-1.1853
X1.5585Y-1.2168
X1.5585Y-1.2483
X1.5585Y-1.2798
X1.5585Y-5.2547
X1.5585Y-5.2862
X1.5585Y-5.3177
X1.5585Y-5.3492
X1.5585Y-5.3807
X1.5585Y-5.4122
X1.5586Y-2.2309
X1.5586Y-3.5296
X1.5586Y-4.8283
X1.5586Y-2.1915
X1.5586Y-3.4902
X1.5586Y-4.789
X1.5586Y-2.1521
X1.5586Y-3.4508
X1.5586Y-4.7496
X1.5586Y-2.1128
X1.5586Y-3.4115
X1.5586Y-4.7102
X1.5586Y-1.8242
X1.5586Y-3.1229
X1.5586Y-4.4217
X1.5586Y-1.7849
X1.5586Y-3.0835
X1.5586Y-4.3823
X1.5587Y-1.7455
X1.5587Y-3.0441
X1.5587Y-4.3429
X1.5587Y-1.7061
X1.5587Y-3.0048
X1.5587Y-4.3036
X1.9094Y-1.3586
X1.9094Y-2.5784
X1.9094Y-2.6572
X1.9094Y-3.8772
X1.9094Y-3.956
X1.9094Y-5.1759
X1.9488Y-1.3586
X1.9488Y-2.5784
X1.9488Y-2.6572
X1.9488Y-3.8772
X1.9488Y-3.956
X1.9488Y-5.1759
X1.9882Y-1.3586
X1.9882Y-2.5784
X1.9882Y-2.6572
X1.9882Y-3.8772
X1.9882Y-3.956
X1.9882Y-5.1759
X2.0276Y-1.3586
X2.0276Y-2.5784
X2.0276Y-2.6572
X2.0276Y-3.8772
X2.0276Y-3.956
X2.0276Y-5.1759
X2.3784Y-3.5296
X2.3784Y-4.8283
X2.3784Y-2.2309
X2.3784Y-3.4902
X2.3784Y-2.1915
X2.3784Y-4.789
X2.3784Y-2.1521
X2.3784Y-3.4508
X2.3784Y-4.7496
X2.3784Y-3.4115
X2.3784Y-4.7102
X2.3784Y-2.1128
X2.3784Y-1.8242
X2.3784Y-3.1229
X2.3784Y-4.4217
X2.3784Y-1.7849
X2.3784Y-3.0835
X2.3784Y-4.3823
X2.3784Y-4.3429
X2.3784Y-1.7455
X2.3784Y-3.0441
X2.3784Y-1.7061
X2.3784Y-3.0048
X2.3784Y-4.3036
X2.4375Y-1.3585
X2.4375Y-2.6178
X2.4375Y-5.176
X2.4769Y-1.3585
X2.4769Y-2.6178
X2.4769Y-5.176
X2.5162Y-1.3585
X2.5162Y-2.6178
X2.5162Y-5.176
X2.5556Y-1.3585
X2.5556Y-2.6178
X2.5556Y-5.176
X2.6147Y-3.0048
X2.6147Y-4.3036
X2.6147Y-1.7061
X2.6147Y-1.7455
X2.6147Y-3.0441
X2.6147Y-4.3429
X2.6147Y-3.0835
X2.6147Y-4.3823
X2.6147Y-1.7849
X2.6147Y-1.8242
X2.6147Y-3.1229
X2.6147Y-4.4217
X2.6147Y-2.1128
X2.6147Y-3.4115
X2.6147Y-4.7102
X2.6147Y-2.1521
X2.6147Y-3.4508
X2.6147Y-4.7496
X2.6147Y-2.1915
X2.6147Y-3.4902
X2.6147Y-4.789
X2.6147Y-2.2309
X2.6147Y-3.5296
X2.6147Y-4.8283
X2.9656Y-1.3586
X2.9656Y-2.5784
X2.9656Y-2.6572
X2.9656Y-3.8772
X2.9656Y-3.956
X2.9656Y-5.1759
X3.005Y-1.3586
X3.005Y-2.5784
X3.005Y-2.6572
X3.005Y-3.8772
X3.005Y-3.956
X3.005Y-5.1759
X3.0443Y-1.3586
X3.0443Y-2.5784
X3.0443Y-2.6572
X3.0443Y-3.8772
X3.0443Y-3.956
X3.0443Y-5.1759
X3.0837Y-1.3586
X3.0837Y-2.5784
X3.0837Y-2.6572
X3.0837Y-3.8772
X3.0837Y-3.956
X3.0837Y-5.1759
X3.4346Y-2.2309
X3.4346Y-3.5296
X3.4346Y-4.8283
X3.4346Y-2.1915
X3.4346Y-3.4902
X3.4346Y-4.789
X3.4346Y-2.1521
X3.4346Y-3.4508
X3.4346Y-4.7496
X3.4346Y-3.4115
X3.4346Y-4.7102
X3.4346Y-2.1128
X3.4347Y-1.8242
X3.4347Y-3.1229
X3.4347Y-4.4217
X3.4347Y-1.7849
X3.4347Y-3.0835
X3.4347Y-4.3823
X3.4347Y-1.7455
X3.4347Y-3.0441
X3.4347Y-4.3429
X3.4347Y-1.7061
X3.4347Y-3.0048
X3.4347Y-4.3036
X3.4347Y-1.1222
X3.4347Y-1.1537
X3.4347Y-1.1853
X3.4347Y-1.2168
X3.4347Y-1.2483
X3.4347Y-1.2798
X3.4347Y-5.2547
X3.4347Y-5.2862
X3.4347Y-5.3177
X3.4347Y-5.3492
X3.4347Y-5.3807
X3.4347Y-5.4122
X3.5134Y-1.3585
X3.5134Y-5.1759
X3.5449Y-1.3585
X3.5449Y-5.1759
X3.5764Y-1.3585
X3.5764Y-5.1759
X3.6079Y-1.3585
X3.6079Y-5.1759
X3.6394Y-1.3585
X3.6394Y-5.1759
X3.6709Y-1.3585
X3.6709Y-5.1759
T0
M30
