M48
; DRILL file {KiCad (6.0.0)} date Tue Jan 18 21:24:05 2022
; FORMAT={-:-/ absolute / inch / decimal}
; #@! TF.CreationDate,2022-01-18T21:24:05-05:00
; #@! TF.GenerationSoftware,Kicad,Pcbnew,(6.0.0)
; #@! TF.FileFunction,Plated,1,2,PTH
FMAT,2
INCH
; #@! TA.AperFunction,Plated,PTH,ComponentDrill
T1C0.0394
%
G90
G05
T1
X1.6185Y-1.4185
X1.6185Y-1.5185
X1.6185Y-1.6185
X1.6185Y-1.7185
X1.6185Y-1.8185
X1.6185Y-1.9185
X1.6185Y-2.0185
X1.6185Y-2.1185
X1.6185Y-2.2185
X1.6185Y-2.3185
X1.6185Y-2.4185
X1.6185Y-2.5185
X1.6185Y-2.7172
X1.6185Y-2.8172
X1.6185Y-2.9172
X1.6185Y-3.0172
X1.6185Y-3.1172
X1.6185Y-3.2172
X1.6185Y-3.3172
X1.6185Y-3.4172
X1.6185Y-3.5172
X1.6185Y-3.6172
X1.6185Y-3.7172
X1.6185Y-3.8172
X1.6185Y-4.016
X1.6185Y-4.116
X1.6185Y-4.216
X1.6185Y-4.316
X1.6185Y-4.416
X1.6185Y-4.516
X1.6185Y-4.616
X1.6185Y-4.716
X1.6185Y-4.816
X1.6185Y-4.916
X1.6185Y-5.016
X1.6185Y-5.116
X2.3185Y-1.4185
X2.3185Y-1.5185
X2.3185Y-1.6185
X2.3185Y-1.7185
X2.3185Y-1.8185
X2.3185Y-1.9185
X2.3185Y-2.0185
X2.3185Y-2.1185
X2.3185Y-2.2185
X2.3185Y-2.3185
X2.3185Y-2.4185
X2.3185Y-2.5185
X2.3185Y-2.7172
X2.3185Y-2.8172
X2.3185Y-2.9172
X2.3185Y-3.0172
X2.3185Y-3.1172
X2.3185Y-3.2172
X2.3185Y-3.3172
X2.3185Y-3.4172
X2.3185Y-3.5172
X2.3185Y-3.6172
X2.3185Y-3.7172
X2.3185Y-3.8172
X2.3185Y-4.016
X2.3185Y-4.116
X2.3185Y-4.216
X2.3185Y-4.316
X2.3185Y-4.416
X2.3185Y-4.516
X2.3185Y-4.616
X2.3185Y-4.716
X2.3185Y-4.816
X2.3185Y-4.916
X2.3185Y-5.016
X2.3185Y-5.116
X2.6747Y-1.4185
X2.6747Y-1.5185
X2.6747Y-1.6185
X2.6747Y-1.7185
X2.6747Y-1.8185
X2.6747Y-1.9185
X2.6747Y-2.0185
X2.6747Y-2.1185
X2.6747Y-2.2185
X2.6747Y-2.3185
X2.6747Y-2.4185
X2.6747Y-2.5185
X2.6747Y-2.7172
X2.6747Y-2.8172
X2.6747Y-2.9172
X2.6747Y-3.0172
X2.6747Y-3.1172
X2.6747Y-3.2172
X2.6747Y-3.3172
X2.6747Y-3.4172
X2.6747Y-3.5172
X2.6747Y-3.6172
X2.6747Y-3.7172
X2.6747Y-3.8172
X2.6747Y-4.016
X2.6747Y-4.116
X2.6747Y-4.216
X2.6747Y-4.316
X2.6747Y-4.416
X2.6747Y-4.516
X2.6747Y-4.616
X2.6747Y-4.716
X2.6747Y-4.816
X2.6747Y-4.916
X2.6747Y-5.016
X2.6747Y-5.116
X3.3747Y-1.4185
X3.3747Y-1.5185
X3.3747Y-1.6185
X3.3747Y-1.7185
X3.3747Y-1.8185
X3.3747Y-1.9185
X3.3747Y-2.0185
X3.3747Y-2.1185
X3.3747Y-2.2185
X3.3747Y-2.3185
X3.3747Y-2.4185
X3.3747Y-2.5185
X3.3747Y-2.7172
X3.3747Y-2.8172
X3.3747Y-2.9172
X3.3747Y-3.0172
X3.3747Y-3.1172
X3.3747Y-3.2172
X3.3747Y-3.3172
X3.3747Y-3.4172
X3.3747Y-3.5172
X3.3747Y-3.6172
X3.3747Y-3.7172
X3.3747Y-3.8172
X3.3747Y-4.016
X3.3747Y-4.116
X3.3747Y-4.216
X3.3747Y-4.316
X3.3747Y-4.416
X3.3747Y-4.516
X3.3747Y-4.616
X3.3747Y-4.716
X3.3747Y-4.816
X3.3747Y-4.916
X3.3747Y-5.016
X3.3747Y-5.116
T0
M30
